<?xml version="1.0" standalone="no"?>
<!DOCTYPE svg PUBLIC "-//W3C//DTD SVG 1.1//EN" "http://www.w3.org/Graphics/SVG/1.1/DTD/svg11.dtd" >
<svg xmlns="http://www.w3.org/2000/svg">
<metadata>
Created by FontPrep 20130207 at Mon Nov 23 02:22:13 2015
 By YL
Copyright 2006, 2009 for TeX Gyre extensions by B. Jackowski and J.M. Nowacki (on behalf of TeX users groups). This work is released under the GUST Font License --  see http://tug.org/fonts/licenses/GUST-FONT-LICENSE.txt for details.
</metadata>
<defs>
<font id="eb38d5b06bf3b7ce91bf1ab81bd95287" horiz-adv-x='1024' >
  <font-face 
    font-family="TeXGyreAdventor-Regular"
    font-weight="400"
    font-stretch="normal"
    units-per-em="2048"
    panose-1="0 0 5 0 0 0 0 0 0 0"
    ascent="1655"
    descent="-393"
    x-height="1120"
    cap-height="1513"
    bbox="-1257 -608 3174 2372"
    underline-thickness="118"
    underline-position="-78"
    unicode-range="U+0020-FB04"
  />
<missing-glyph horiz-adv-x="573" 
 />
    <glyph glyph-name="I_J" unicode="IJ" horiz-adv-x="1370" 
d="M1241 473q0 -250 -103 -376q-104 -126 -292 -126q-188 1 -296 103t-118 284h150q8 -116 76 -182t182 -65q250 0 250 362v1040h151v-1040zM281 0h-152v1513h152v-1513z" />
    <glyph glyph-name="i_j" unicode="ij" horiz-adv-x="825" 
d="M696 1243h-151v258h151v-258zM696 78q0 -240 -93 -352t-286 -119v145q127 8 178 80q50 72 50 246v1042h151v-1042zM281 1243h-152v258h152v-258zM281 0h-152v1120h152v-1120z" />
    <glyph glyph-name="f_k" unicode="fk" horiz-adv-x="1611" 
d="M864 0h-151v1513h151v-1073l522 680h187l-436 -563l465 -557h-189l-373 449l-176 -218v-231zM637 983h-279v-983h-151v983h-174v137h174q-6 393 430 393v-137q-156 0 -218 -58t-61 -198h279v-137z" />
    <glyph glyph-name="f_f" unicode="ff" horiz-adv-x="1175" 
d="M1143 983h-279v-983h-151v983h-355v-983h-151v983h-174v137h174q-6 393 430 393v-137q-156 0 -218 -58t-61 -198h355q-6 393 430 393v-137q-156 0 -218 -58t-61 -198h279v-137z" />
    <glyph glyph-name="f_i" unicode="fi" horiz-adv-x="997" 
d="M868 1243h-151v258h151v-258zM868 0h-151v1120h151v-1120zM637 983h-279v-983h-151v983h-174v137h174q-6 393 430 393v-137q-156 0 -218 -58t-61 -198h279v-137z" />
    <glyph glyph-name="f_l" unicode="fl" horiz-adv-x="993" 
d="M864 0h-151v1513h151v-1513zM637 983h-279v-983h-151v983h-174v137h174q-6 393 430 393v-137q-156 0 -218 -58t-61 -198h279v-137z" />
    <glyph glyph-name="f_f_i" unicode="&#xfb00;i" horiz-adv-x="1499" 
d="M1370 1243h-151v258h151v-258zM1370 0h-151v1120h151v-1120zM1143 983h-279v-983h-151v983h-355v-983h-151v983h-174v137h174q-6 393 430 393v-137q-156 0 -218 -58t-61 -198h355q-6 393 430 393v-137q-156 0 -218 -58t-61 -198h279v-137z" />
    <glyph glyph-name="f_f_l" unicode="ffl" horiz-adv-x="1499" 
d="M1370 0h-151v1513h151v-1513zM1143 983h-279v-983h-151v983h-355v-983h-151v983h-174v137h174q-6 393 430 393v-137q-156 0 -218 -58t-61 -198h355q-6 393 430 393v-137q-156 0 -218 -58t-61 -198h279v-137z" />
    <glyph glyph-name=".notdef" horiz-adv-x="573" 
 />
    <glyph glyph-name=".null" horiz-adv-x="0" 
 />
    <glyph glyph-name="nonmarkingreturn" horiz-adv-x="681" 
 />
    <glyph glyph-name="space" unicode=" " horiz-adv-x="567" 
 />
    <glyph glyph-name="exclam" unicode="!" horiz-adv-x="604" 
d="M379 403h-152v1110h152v-1110zM379 0h-152v258h152v-258z" />
    <glyph glyph-name="quotedbl" unicode="&#x22;" horiz-adv-x="632" 
d="M254 1051h-102v462h102v-462zM485 1051h-102v462h102v-462z" />
    <glyph glyph-name="numbersign" unicode="#" horiz-adv-x="1134" 
d="M764 928h-334l-59 -318h334zM1124 928h-225l-57 -318h252v-125h-277l-88 -485h-135l88 485h-336l-92 -485h-133l92 485h-203v125h228l59 318h-254v125h276l87 460h131l-84 -460h333l82 460h138l-84 -460h202v-125z" />
    <glyph glyph-name="dollar" unicode="$" horiz-adv-x="1134" 
d="M981 469q0 -168 -96 -281t-248 -129v-174h-135v174q-348 63 -348 408h141q0 -131 75 -207q76 -76 194 -76t192 78t74 200t-87 195q-57 47 -181 84t-180 69t-97 83q-80 96 -80 236q0 139 80 237t217 125v168h135v-168q152 -23 242 -122t90 -249h-144q1 114 -65 178
t-172 64t-168 -66t-64 -169q0 -103 52 -153t220 -104t240 -127q113 -106 113 -274z" />
    <glyph glyph-name="percent" unicode="%" horiz-adv-x="1587" 
d="M606 1173q0 93 -64 159t-157 67q-92 0 -158 -66q-65 -67 -65 -159t66 -159t156 -67q91 0 157 66q65 66 65 159zM386 1534q148 0 254 -106t105 -256q0 -148 -105 -253q-106 -105 -254 -105t-254 104q-106 106 -105 257q0 151 105 255q106 104 254 104zM1401 332
q0 92 -65 158q-64 66 -156 67t-157 -65t-65 -159t66 -159t156 -66t156 66t65 158zM1540 332q0 -148 -105 -253t-253 -105t-254 104q-106 106 -106 256t104 254q106 104 254 104t255 -106q105 -106 105 -254zM1204 1513l-684 -1513h-147l680 1513h151z" />
    <glyph glyph-name="ampersand" unicode="&#x26;" horiz-adv-x="1550" 
d="M877 1206q-1 84 -63 140t-152 57q-90 0 -152 -56q-61 -56 -61 -139q0 -106 165 -258q263 99 263 256zM266 412q0 -122 92 -211q92 -90 214 -90q122 -1 202 71q82 72 164 240l-365 356q-167 -82 -237 -163t-70 -203zM594 -27q-205 1 -341 135t-136 328q0 150 83 253
t265 198q-94 98 -131 169t-37 148q0 140 104 238t258 98t257 -98q104 -98 104 -234t-60 -207q-60 -72 -235 -159l287 -283l221 426h168l-279 -534l383 -373l-104 -105l-350 340q-90 -178 -199 -259t-258 -81z" />
    <glyph glyph-name="quotesingle" unicode="'" horiz-adv-x="405" 
d="M254 1051h-102v462h102v-462z" />
    <glyph glyph-name="parenleft" unicode="(" horiz-adv-x="755" 
d="M117 632q1 284 157 538t412 343v-129q-198 -120 -308 -328t-110 -427t108 -423t310 -329v-133q-244 90 -406 347t-163 541z" />
    <glyph glyph-name="parenright" unicode=")" horiz-adv-x="755" 
d="M639 626q0 -284 -157 -539t-412 -343v131q199 115 308 326q110 211 110 429t-109 424t-309 326v133q242 -87 406 -345t163 -542z" />
    <glyph glyph-name="asterisk" unicode="*" horiz-adv-x="870" 
d="M737 1194h-209l113 -180l-96 -56l-109 187l-108 -187l-99 58l117 178h-215v100h215l-115 189l101 57l108 -184l107 184l96 -57l-117 -189h211v-100z" />
    <glyph glyph-name="plus" unicode="+" horiz-adv-x="1241" 
d="M1112 436h-416v-416h-151v416h-416v152h416v416h151v-416h416v-152z" />
    <glyph glyph-name="comma" unicode="," horiz-adv-x="567" 
d="M518 258l-180 -395h-152l181 395h151z" />
    <glyph glyph-name="hyphen" unicode="-" horiz-adv-x="679" 
d="M618 477h-555v129h555v-129z" />
    <glyph glyph-name="period" unicode="." horiz-adv-x="567" 
d="M358 0h-151v258h151v-258z" />
    <glyph glyph-name="slash" unicode="/" horiz-adv-x="894" 
d="M813 1513l-594 -1775h-137l588 1775h143z" />
    <glyph glyph-name="zero" unicode="0" horiz-adv-x="1134" 
d="M926 575v371q0 219 -80 338t-266 119q-186 -1 -278 -107q-91 -106 -91 -350v-371q0 -252 93 -358t272 -106t265 108q85 108 85 356zM1075 551q0 -578 -495 -578q-246 1 -382 143t-137 435v430q1 275 135 417t369 142t373 -139t137 -420v-430z" />
    <glyph glyph-name="one" unicode="1" horiz-adv-x="1134" 
d="M725 0h-150v1376h-258v137h408v-1513z" />
    <glyph glyph-name="two" unicode="2" horiz-adv-x="1134" 
d="M1036 1079q0 -121 -59 -223t-219 -254l-486 -465h756v-137h-960v137l530 512q134 128 192 199q58 70 76 124t19 115q0 137 -92 227t-240 89q-148 0 -236 -98t-88 -281h-149q0 240 130 378t343 138t348 -130t135 -331z" />
    <glyph glyph-name="three" unicode="3" horiz-adv-x="1134" 
d="M1032 459q0 -205 -137 -345t-343 -140t-345 136t-139 363h149q0 -180 95 -271q96 -91 238 -91t236 98q94 97 94 229t-71 225q-72 93 -184 119q-49 10 -176 13v135l34 -2q18 -2 39 -2q119 0 189 64q69 64 69 172q0 107 -63 174t-170 67t-168 -70t-62 -196h-149
q0 184 105 294q105 109 275 109t277 -108t107 -282q0 -175 -156 -284q256 -128 256 -407z" />
    <glyph glyph-name="four" unicode="4" horiz-adv-x="1134" 
d="M791 414v891l-592 -891h592zM1079 276h-139v-276h-149v276h-766v138l737 1099h178v-1099h139v-138z" />
    <glyph glyph-name="five" unicode="5" horiz-adv-x="1134" 
d="M580 1030q211 0 356 -152t145 -375q0 -222 -147 -376q-148 -154 -358 -154t-350 133t-173 369h148q19 -162 121 -263t250 -101q148 -1 252 113q105 114 106 280q0 166 -104 278t-270 111q-165 0 -302 -170l-117 45l135 745h682v-137h-561l-74 -418q129 72 261 72z" />
    <glyph glyph-name="six" unicode="6" horiz-adv-x="1134" 
d="M932 504q0 170 -102 280t-260 109q-157 0 -262 -111q-105 -110 -105 -278t105 -281t263 -113q157 0 259 112t102 282zM602 1030q201 0 341 -152t140 -375q0 -224 -144 -377q-145 -153 -367 -153t-372 151t-149 376q0 113 36 205t144 251l375 557h174l-356 -526
q94 43 178 43z" />
    <glyph glyph-name="seven" unicode="7" horiz-adv-x="1134" 
d="M131 1376v137h873v-137l-619 -1376h-160l623 1376h-717z" />
    <glyph glyph-name="eight" unicode="8" horiz-adv-x="1134" 
d="M817 1157q0 106 -71 176q-72 70 -180 70t-178 -68q-70 -67 -71 -175q0 -108 73 -180t180 -71q107 0 178 71q69 71 69 177zM897 441q0 143 -92 235q-93 92 -237 92t-237 -91t-93 -235t93 -238q93 -93 238 -93t237 93q91 93 91 237zM1049 446q-1 -207 -135 -340t-342 -133
t-347 133t-139 334q0 283 256 406q-176 106 -176 303q0 167 116 279t288 112t286 -110q113 -110 113 -281q0 -219 -181 -303q261 -115 261 -400z" />
    <glyph glyph-name="nine" unicode="9" horiz-adv-x="1134" 
d="M932 1010q0 168 -106 280t-263 113q-158 0 -259 -111q-101 -112 -101 -282t102 -280t259 -110q156 0 262 112q106 110 106 278zM1083 1014q-1 -113 -37 -205t-143 -252l-375 -557h-174l357 526q-94 -43 -179 -43q-201 0 -341 152t-140 376q1 224 145 377q144 152 366 152
t372 -150q149 -151 149 -376z" />
    <glyph glyph-name="colon" unicode=":" horiz-adv-x="567" 
d="M358 780h-151v258h151v-258zM358 0h-151v258h151v-258z" />
    <glyph glyph-name="semicolon" unicode=";" horiz-adv-x="567" 
d="M408 780h-152v258h152v-258zM416 258l-180 -395h-152l180 395h152z" />
    <glyph glyph-name="less" unicode="&#x3c;" horiz-adv-x="1241" 
d="M983 -195l-774 650v114l774 650v-197l-606 -510l606 -510v-197z" />
    <glyph glyph-name="equal" unicode="=" horiz-adv-x="1241" 
d="M1112 248h-983v151h983v-151zM1112 625h-983v151h983v-151z" />
    <glyph glyph-name="greater" unicode="&#x3e;" horiz-adv-x="1241" 
d="M983 455l-774 -650v197l606 510l-606 510v197l774 -650v-114z" />
    <glyph glyph-name="question" unicode="?" horiz-adv-x="1210" 
d="M1075 1096q0 -98 -42 -178q-41 -80 -149 -176t-154 -174t-48 -173h-143q2 125 49 216q48 91 158 195t144 160q34 58 34 134q0 131 -88 217t-233 86t-235 -91t-92 -272h-143q0 240 134 370t340 130t337 -126t131 -318zM686 0h-151v258h151v-258z" />
    <glyph glyph-name="at" unicode="@" horiz-adv-x="1775" 
d="M1106 948q0 68 -41 112t-111 44q-134 0 -246 -157t-112 -345q0 -84 45 -136t119 -52q133 0 235 182q45 80 78 182t33 170zM1632 887q0 -221 -145 -411t-332 -191q-72 1 -114 27t-66 89q-105 -106 -237 -106t-211 85t-78 218q0 236 154 426q155 190 336 190t245 -141
l35 103h124l-190 -570q-41 -126 -41 -154t20 -44t50 -17q124 0 236 164t112 334q0 231 -173 389t-441 158t-466 -201t-198 -483t197 -479t479 -197t479 207l82 -68q-94 -113 -247 -177t-318 -65q-326 1 -552 227t-226 553t228 557t554 230q292 0 498 -190t206 -463z" />
    <glyph glyph-name="A" unicode="A" horiz-adv-x="1515" 
d="M1049 647l-291 694l-297 -694h588zM1493 0h-166l-219 510h-705l-221 -510h-159l649 1513h170z" />
    <glyph glyph-name="B" unicode="B" horiz-adv-x="1175" 
d="M874 1118q0 143 -80 201q-81 57 -305 57h-182v-514h185q214 0 298 56t84 200zM307 725v-588h207q238 1 342 65t105 220q0 156 -87 230q-87 73 -387 73h-180zM1114 434q0 -226 -136 -330t-448 -104h-374v1513h354q272 0 395 -97t123 -306t-168 -303q254 -103 254 -373z
" />
    <glyph glyph-name="C" unicode="C" horiz-adv-x="1665" 
d="M885 -27q-339 -1 -567 223t-228 560t223 560t561 224q236 0 422 -113t275 -307h-170q-178 281 -520 281q-269 1 -453 -185t-184 -455t188 -459t451 -189q165 1 285 67t241 217h168q-229 -424 -692 -424z" />
    <glyph glyph-name="D" unicode="D" horiz-adv-x="1523" 
d="M1280 758q0 170 -72 306t-202 214q-162 98 -488 98h-211v-1239h211q201 0 328 32t217 103q217 177 217 486zM1434 752q0 -342 -222 -547t-649 -205h-407v1513h356q207 1 339 -27t239 -91q344 -203 344 -643z" />
    <glyph glyph-name="E" unicode="E" horiz-adv-x="1097" 
d="M983 0h-827v1513h827v-137h-676v-542h654v-138h-654v-559h676v-137z" />
    <glyph glyph-name="F" unicode="F" horiz-adv-x="993" 
d="M924 1376h-617v-547h594v-137h-594v-692h-151v1513h768v-137z" />
    <glyph glyph-name="G" unicode="G" horiz-adv-x="1785" 
d="M901 -27q-335 -1 -573 227t-238 558t232 556t571 226q249 0 445 -119t272 -311h-170q-78 137 -218 214t-317 77q-281 -1 -471 -187t-190 -457t192 -458q193 -186 471 -186q219 0 395 132q175 132 218 316h-846v137h1028q-18 -295 -242 -510t-559 -215z" />
    <glyph glyph-name="H" unicode="H" horiz-adv-x="1398" 
d="M1243 0h-151v711h-785v-711h-151v1513h151v-665h785v665h151v-1513z" />
    <glyph glyph-name="I" unicode="I" horiz-adv-x="462" 
d="M307 0h-151v1513h151v-1513z" />
    <glyph glyph-name="J" unicode="J" horiz-adv-x="987" 
d="M831 473q0 -250 -103 -376q-104 -126 -292 -126q-188 1 -296 103t-117 284h149q8 -116 77 -182t181 -65q250 0 250 362v1040h151v-1040z" />
    <glyph glyph-name="K" unicode="K" horiz-adv-x="1210" 
d="M307 0h-151v1513h151v-870l701 870h190l-598 -737l598 -776h-190l-504 655l-197 -241v-414z" />
    <glyph glyph-name="L" unicode="L" horiz-adv-x="946" 
d="M934 0h-778v1513h151v-1376h627v-137z" />
    <glyph glyph-name="M" unicode="M" horiz-adv-x="1882" 
d="M1726 0h-151v1348l-569 -1348h-132l-567 1348v-1348h-151v1513h235l551 -1288l549 1288h235v-1513z" />
    <glyph glyph-name="N" unicode="N" horiz-adv-x="1515" 
d="M1360 0h-152l-901 1331v-1331h-151v1513h204l848 -1255v1255h152v-1513z" />
    <glyph glyph-name="O" unicode="O" horiz-adv-x="1779" 
d="M1536 756q0 264 -190 454t-454 190t-456 -188q-192 -190 -192 -454t189 -454t455 -191q266 0 458 189q190 190 190 454zM894 1540q328 0 562 -230t234 -553t-236 -553t-566 -230t-564 230q-234 232 -234 554t238 552t566 230z" />
    <glyph glyph-name="P" unicode="P" horiz-adv-x="1212" 
d="M522 1376h-215v-626h281q224 0 320 70t96 235q0 164 -84 245q-64 61 -235 72q-60 4 -163 4zM573 1513q309 0 447 -109q138 -108 137 -340q0 -232 -130 -342t-429 -110h-291v-612h-151v1513h417z" />
    <glyph glyph-name="Q" unicode="Q" horiz-adv-x="1783" 
d="M1565 761q1 271 -189 455t-471 185t-471 -189t-190 -469q0 -72 22 -172q160 53 352 53t366 -79q175 -80 374 -254q207 199 207 470zM907 113q182 0 332 92q-308 283 -640 281q-161 0 -269 -44q74 -139 234 -234t343 -95zM907 -27q-341 1 -579 229t-238 559t234 555
t584 224t580 -222t230 -567t-252 -561q109 -78 189 -77q27 0 39 2v-142q-106 2 -180 31t-152 100q-193 -131 -455 -131z" />
    <glyph glyph-name="R" unicode="R" horiz-adv-x="1243" 
d="M1182 1026q0 -202 -115 -320t-332 -141l424 -565h-188l-510 686q323 0 445 73t122 266t-120 272t-388 79h-213v-1376h-151v1513h374q346 1 499 -121t153 -366z" />
    <glyph glyph-name="S" unicode="S" horiz-adv-x="1019" 
d="M975 431q0 -202 -130 -330t-331 -128t-330 123t-139 328h162q16 -150 101 -230t214 -81q129 0 214 85t85 213q1 129 -71 195t-235 115t-216 75q-204 100 -205 337q0 175 119 291t303 116t303 -114t119 -296h-158q0 121 -77 196t-191 75t-190 -75q-74 -76 -74 -190
t71 -175q47 -41 234 -97t270 -119q152 -112 152 -314z" />
    <glyph glyph-name="T" unicode="T" horiz-adv-x="872" 
d="M858 1376h-346v-1376h-152v1376h-346v137h844v-137z" />
    <glyph glyph-name="U" unicode="U" 
d="M1186 569q0 -299 -138 -447t-377 -148t-377 148t-138 447v944h151v-944q0 -457 365 -456q362 0 362 456v944h152v-944z" />
    <glyph glyph-name="V" unicode="V" horiz-adv-x="1437" 
d="M1417 1513l-626 -1513h-148l-623 1513h166l533 -1325l534 1325h164z" />
    <glyph glyph-name="W" unicode="W" horiz-adv-x="1966" 
d="M1946 1513l-435 -1513h-194l-336 1241l-332 -1241h-196l-433 1513h156l373 -1316l362 1316h144l362 -1316l373 1316h156z" />
    <glyph glyph-name="X" unicode="X" horiz-adv-x="1247" 
d="M1231 0h-178l-428 647l-430 -647h-179l514 774l-485 739h178l402 -606l399 606h176l-485 -739z" />
    <glyph glyph-name="Y" unicode="Y" horiz-adv-x="1212" 
d="M680 0h-152v506l-524 1007h168l430 -847l440 847h166l-528 -1007v-506z" />
    <glyph glyph-name="Z" unicode="Z" horiz-adv-x="983" 
d="M971 0h-936v137l743 1239h-721v137h891v-137l-741 -1239h764v-137z" />
    <glyph glyph-name="bracketleft" unicode="[" horiz-adv-x="718" 
d="M229 336v610q0 220 111 368t301 199v-153q-150 -66 -209 -163t-59 -279v-556q0 -196 58 -296t210 -168v-154q-412 121 -412 592z" />
    <glyph glyph-name="backslash" unicode="\" horiz-adv-x="1239" 
d="M950 0h-143l-635 1513h143z" />
    <glyph glyph-name="bracketright" unicode="]" horiz-adv-x="718" 
d="M489 313q1 -221 -111 -369t-300 -200v154q152 68 210 164t58 278v557q0 195 -58 295t-210 168v153q412 -119 411 -591v-609z" />
    <glyph glyph-name="asciicircum" unicode="^" horiz-adv-x="1241" 
d="M1204 369h-166l-415 983l-420 -983h-166l498 1144h174z" />
    <glyph glyph-name="underscore" unicode="_" horiz-adv-x="1024" 
d="M1024 -256h-1024v119h1024v-119z" />
    <glyph glyph-name="grave" unicode="`" horiz-adv-x="768" 
d="M539 1331l-70 -114l-395 233l69 119z" />
    <glyph glyph-name="a" unicode="a" horiz-adv-x="1398" 
d="M1118 563q0 189 -127 317t-310 128t-312 -129t-129 -317t129 -318t314 -131q185 0 310 131t125 319zM1270 0h-152v197q-90 -121 -189 -172t-243 -52q-258 0 -429 167t-171 418t169 420t421 169q283 0 442 -225v198h152v-1120z" />
    <glyph glyph-name="b" unicode="b" horiz-adv-x="1396" 
d="M716 113q186 -1 314 129q127 130 127 320t-126 318t-314 128q-187 0 -317 -128t-130 -314t130 -320q130 -133 316 -133zM1311 559q0 -250 -169 -418t-423 -168q-137 -1 -252 57t-186 163v-193h-152v1513h152v-585q150 219 440 219q250 0 420 -169t170 -419z" />
    <glyph glyph-name="c" unicode="c" horiz-adv-x="1325" 
d="M86 560q0 247 174 417t426 170q188 0 339 -99t218 -268h-170q-133 227 -389 228q-186 0 -315 -130t-129 -318t131 -317q131 -130 319 -130q119 0 207 50t176 167h172q-188 -356 -549 -357q-258 0 -434 170t-176 417z" />
    <glyph glyph-name="d" unicode="d" horiz-adv-x="1402" 
d="M1128 563q0 185 -132 315t-316 130t-312 -129t-128 -318t130 -319t316 -129q186 0 314 133t128 317zM1274 0h-152v203q-84 -121 -185 -175t-241 -55q-260 0 -435 168t-175 418t171 419t433 169t432 -205v571h152v-1513z" />
    <glyph glyph-name="e" unicode="e" horiz-adv-x="1331" 
d="M1100 647q-39 168 -155 264q-115 97 -277 97t-279 -100t-147 -261h858zM1251 510h-1013q8 -166 136 -282t300 -115q128 1 236 71t155 185h158q-55 -166 -208 -281t-337 -115q-248 0 -420 171t-172 418t169 416t418 169t413 -173t165 -464z" />
    <glyph glyph-name="f" unicode="f" horiz-adv-x="643" 
d="M637 983h-279v-983h-151v983h-174v137h174q-6 393 430 393v-137q-156 0 -218 -58t-61 -198h279v-137z" />
    <glyph glyph-name="g" unicode="g" horiz-adv-x="1378" 
d="M1098 566q0 190 -125 316t-308 126t-305 -124t-120 -318q0 -194 122 -324t306 -129q184 -1 307 131t123 322zM1249 201q1 -164 -23 -263t-81 -178q-152 -201 -455 -200q-211 0 -356 104t-207 301h147q84 -150 176 -208t236 -58q203 0 307 116t105 337v75
q-129 -254 -428 -254q-246 0 -415 168t-169 418t164 419t422 169t426 -225v198h151v-919z" />
    <glyph glyph-name="h" unicode="h" horiz-adv-x="1249" 
d="M1120 0h-151v602q0 203 -93 304q-93 102 -250 102t-251 -98t-94 -296v-614h-152v1513h152v-538q119 172 350 172t360 -136t129 -409v-602z" />
    <glyph glyph-name="i" unicode="i" horiz-adv-x="409" 
d="M281 1243h-152v258h152v-258zM281 0h-152v1120h152v-1120z" />
    <glyph glyph-name="j" unicode="j" horiz-adv-x="415" 
d="M287 1243h-152v258h152v-258zM287 78q0 -240 -93 -352t-286 -119v145q127 8 177 80t50 246v1042h152v-1042z" />
    <glyph glyph-name="k" unicode="k" horiz-adv-x="1028" 
d="M281 0h-152v1513h152v-1073l522 680h186l-436 -563l465 -557h-189l-372 449l-176 -218v-231z" />
    <glyph glyph-name="l" unicode="l" horiz-adv-x="409" 
d="M281 0h-152v1513h152v-1513z" />
    <glyph glyph-name="m" unicode="m" horiz-adv-x="1921" 
d="M1792 0h-152v649q0 360 -297 361q-141 0 -224 -89t-83 -272v-649h-151v653q0 179 -83 267t-222 88q-140 0 -220 -94t-79 -261v-653h-152v1120h152v-129q63 84 136 120t189 36q232 0 357 -215q137 217 389 217q200 0 320 -124t120 -359v-666z" />
    <glyph glyph-name="n" unicode="n" horiz-adv-x="1249" 
d="M1120 0h-151v588q0 420 -346 420q-160 0 -251 -96t-91 -296v-616h-152v1120h152v-145q141 172 361 172t349 -138t129 -421v-588z" />
    <glyph glyph-name="o" unicode="o" 
d="M240 560q0 -194 125 -320t312 -127q187 1 306 125t119 318t-122 323t-307 129t-309 -127t-124 -321zM675 1147q251 0 415 -167t165 -421t-161 -420t-415 -166t-423 168t-170 420t169 419t420 167z" />
    <glyph glyph-name="p" unicode="p" horiz-adv-x="1396" 
d="M1157 560q0 190 -127 319t-314 129q-186 0 -316 -128t-130 -319t127 -319t317 -129q190 0 316 128q127 129 127 319zM1311 559q0 -248 -172 -417t-422 -169q-287 0 -436 220v-586h-152v1513h152v-192q145 219 440 219q250 0 420 -170t170 -418z" />
    <glyph glyph-name="q" unicode="q" horiz-adv-x="1396" 
d="M1126 558q0 190 -127 320t-316 130t-316 -129t-127 -319t127 -319q127 -128 314 -128t316 128q129 127 129 317zM1268 -393h-152v586q-150 -219 -436 -220q-250 0 -422 169t-172 418t170 418t420 169q297 0 440 -219v192h152v-1513z" />
    <glyph glyph-name="r" unicode="r" horiz-adv-x="616" 
d="M281 653v-653h-152v1120h152v-159q45 92 120 136q76 44 197 50v-150q-317 -31 -317 -344z" />
    <glyph glyph-name="s" unicode="s" horiz-adv-x="794" 
d="M739 322q0 -154 -95 -251t-252 -97t-256 96q-99 98 -99 260h149q0 -100 58 -158t147 -59q88 0 141 55q54 55 54 138t-44 124t-168 90q-124 50 -152 64t-60 47q-84 77 -84 207t90 220t227 89q137 0 227 -85t89 -218h-154q0 78 -44 121t-116 43q-73 0 -119 -47t-47 -115
q0 -96 103 -148q41 -20 211 -90q194 -81 194 -286z" />
    <glyph glyph-name="t" unicode="t" horiz-adv-x="694" 
d="M670 983h-252v-983h-152v983h-241v137h241v393h152v-393h252v-137z" />
    <glyph glyph-name="u" unicode="u" horiz-adv-x="1245" 
d="M1116 0h-151v174q-109 -201 -361 -201q-475 0 -475 543v604h152v-604q0 -403 335 -403q162 0 255 106t94 326v575h151v-1120z" />
    <glyph glyph-name="v" unicode="v" horiz-adv-x="1134" 
d="M1118 1120l-471 -1120h-160l-471 1120h154l393 -942l402 942h153z" />
    <glyph glyph-name="w" unicode="w" horiz-adv-x="1701" 
d="M1688 1120l-435 -1120h-161l-244 743l-242 -743h-164l-428 1120h152l356 -938l264 801h125l265 -801l364 938h148z" />
    <glyph glyph-name="x" unicode="x" horiz-adv-x="983" 
d="M967 0h-174l-301 449l-304 -449h-172l390 571l-390 549h172l304 -432l301 432h174l-392 -549z" />
    <glyph glyph-name="y" unicode="y" horiz-adv-x="1097" 
d="M1079 1120l-647 -1513h-162l183 430l-435 1083h166l355 -893l379 893h161z" />
    <glyph glyph-name="z" unicode="z" horiz-adv-x="870" 
d="M850 0h-830v137l619 846h-598v137h770v-129l-612 -854h651v-137z" />
    <glyph glyph-name="braceleft" unicode="{" horiz-adv-x="718" 
d="M238 27v348q0 94 -31 129t-131 53v141q100 16 131 52t31 131v348q0 160 61 219t256 65v-137q-109 -10 -135 -35t-25 -110v-348q0 -106 -31 -159q-32 -52 -114 -83q-25 -8 -37 -14q109 -41 145 -89t37 -165v-348q0 -78 28 -107t109 -37l23 -2v-137q-193 2 -255 64t-62 221
z" />
    <glyph glyph-name="bar" unicode="|" horiz-adv-x="1376" 
d="M764 -256h-152v1769h152v-1769z" />
    <glyph glyph-name="braceright" unicode="}" horiz-adv-x="718" 
d="M395 375v-348q0 -159 -62 -221t-255 -64v137l22 2q97 8 117 43t21 101v348q0 117 36 165q37 48 146 89q-145 71 -160 111q-22 60 -22 145v348q0 108 -60 129q-29 10 -78 14l-22 2v137q195 -6 256 -66t61 -218v-348q0 -96 30 -131t126 -52v-141q-96 -16 -126 -51t-30 -131
z" />
    <glyph glyph-name="asciitilde" unicode="~" horiz-adv-x="1241" 
d="M384 614q-54 0 -90 -36q-38 -36 -104 -148l-86 96q74 134 141 190t138 56t172 -39l133 -55q113 -47 164 -47q96 0 195 168l90 -97q-53 -104 -131 -166t-146 -62t-201 52l-112 45q-109 43 -163 43z" />
    <glyph glyph-name="uni00A0" unicode="&#xa0;" horiz-adv-x="567" 
 />
    <glyph glyph-name="exclamdown" unicode="&#xa1;" horiz-adv-x="604" 
d="M377 -393h-152v1110h152v-1110zM377 862h-152v258h152v-258z" />
    <glyph glyph-name="cent" unicode="&#xa2;" horiz-adv-x="1134" 
d="M580 1120q-144 0 -240 -95t-96 -239t97 -243t246 -99t277 150h166q-41 -113 -141 -190t-223 -93v-184h-136v184q-188 15 -313 149t-125 324t122 322q122 131 316 151v191h136v-191q131 -18 231 -100t145 -209h-170q-96 172 -292 172z" />
    <glyph glyph-name="sterling" unicode="&#xa3;" horiz-adv-x="1134" 
d="M1212 436q0 -200 -130 -318t-377 -118h-584v137h285q86 94 86 238q0 94 -40 163t-157 173h-258v137h153q-45 109 -45 201q1 215 137 353t343 138t347 -120t163 -312h-142q-31 139 -127 217t-240 78t-236 -98t-93 -254q0 -96 57 -203h582v-137h-440q147 -158 147 -334
q0 -104 -59 -240h116q184 0 273 85q88 85 88 227q0 39 -12 100h147q16 -64 16 -113z" />
    <glyph glyph-name="currency" unicode="&#xa4;" horiz-adv-x="1134" 
d="M936 621q0 158 -103 263t-263 105t-266 -104q-105 -105 -105 -265t106 -265t264 -105q159 0 263 106t104 265zM1081 609q0 -177 -96 -296l86 -86l-110 -108l-84 86q-86 -57 -155 -80t-157 -23q-158 0 -307 103l-86 -86l-109 110l84 84q-94 129 -94 303t97 310l-91 86
l113 110l88 -86q150 96 314 96t298 -94l89 86l110 -112l-84 -86q94 -140 94 -317z" />
    <glyph glyph-name="yen" unicode="&#xa5;" horiz-adv-x="1134" 
d="M1118 948v-137h-284l-99 -188h369v-138h-422v-485h-150v485h-430v138h375l-100 188h-289v137h215l-303 565h156l452 -843l443 843h155l-299 -565h211z" />
    <glyph glyph-name="brokenbar" unicode="&#xa6;" horiz-adv-x="1376" 
d="M764 -256h-152v709h152v-709zM764 805h-152v708h152v-708z" />
    <glyph glyph-name="section" unicode="&#xa7;" horiz-adv-x="1259" 
d="M944 571q0 119 -125 177l-385 182q-117 -80 -117 -213q0 -94 111 -148l406 -196q110 79 110 198zM1083 596q0 -182 -155 -297q98 -104 98 -223q0 -156 -111 -260t-283 -104t-290 117q-119 118 -125 302h139q10 -127 88 -205t190 -78t182 65q71 65 71 159q0 61 -45 109
t-148 100l-293 143q-125 60 -174 120t-49 150q0 186 176 312q-78 84 -78 214t100 224q100 96 252 96q151 0 251 -83t110 -216h-145q-35 162 -215 162q-93 0 -153 -54t-60 -139q0 -119 121 -176l323 -151q223 -105 223 -287z" />
    <glyph glyph-name="dieresis" unicode="&#xa8;" horiz-adv-x="755" 
d="M604 1243h-151v258h151v-258zM303 1243h-151v258h151v-258z" />
    <glyph glyph-name="copyright" unicode="&#xa9;" horiz-adv-x="1529" 
d="M793 258q-209 0 -349 126q-139 126 -139 314t136 314t345 127q152 0 270 -70t167 -188h-129q-100 152 -306 151q-156 0 -261 -95t-105 -235t108 -239q108 -98 261 -98q97 -1 167 35t142 118h129q-139 -260 -436 -260zM1415 698q0 268 -190 458q-191 190 -459 192
q-268 0 -458 -190t-189 -460q0 -268 189 -457q190 -189 458 -189t458 188q190 190 191 458zM1491 698q0 -299 -213 -511t-512 -212t-511 212t-212 511t212 512t511 213t512 -213t213 -512z" />
    <glyph glyph-name="ordfeminine" unicode="&#xaa;" horiz-adv-x="755" 
d="M694 653h-631v105h631v-105zM578 1214q0 84 -60 148t-141 63q-81 0 -143 -62t-62 -146t61 -149q61 -64 143 -64t142 63t60 147zM682 918h-98v92q-84 -106 -210 -106t-218 92t-92 220t90 219q92 91 221 91q63 0 121 -30t88 -75v92h98v-595z" />
    <glyph glyph-name="guillemotleft" unicode="&#xab;" horiz-adv-x="870" 
d="M788 270l-120 -67l-236 411l236 408l120 -66l-192 -342zM434 270l-121 -67l-231 411l231 408l121 -66l-192 -342z" />
    <glyph glyph-name="logicalnot" unicode="&#xac;" horiz-adv-x="1241" 
d="M1112 776v-452h-151v301h-832v151h983z" />
    <glyph glyph-name="uni00AD" unicode="&#xad;" horiz-adv-x="679" 
d="M618 477h-555v129h555v-129z" />
    <glyph glyph-name="registered" unicode="&#xae;" horiz-adv-x="1529" 
d="M965 842q0 100 -68 138t-221 38h-115v-746h-117v852h238q213 0 306 -70t93 -210q0 -225 -250 -262l256 -310h-149l-330 404q207 -2 282 32t75 134zM1415 698q0 268 -190 458q-191 190 -459 192q-268 0 -458 -190t-189 -460q0 -268 189 -457q190 -189 458 -189t458 188
q190 190 191 458zM1491 698q0 -299 -213 -511t-512 -212t-511 212t-212 511t212 512t511 213t512 -213t213 -512z" />
    <glyph glyph-name="macron" unicode="&#xaf;" horiz-adv-x="993" 
d="M842 1307h-690v131h690v-131z" />
    <glyph glyph-name="degree" unicode="&#xb0;" horiz-adv-x="819" 
d="M600 1092q0 82 -54 139t-134 57t-138 -57t-57 -139q0 -82 57 -140q56 -58 136 -57q80 -1 135 57t55 140zM717 1092q0 -130 -89 -222t-218 -92t-219 91q-89 91 -89 223t92 223q92 90 221 90q130 0 216 -91t86 -222z" />
    <glyph glyph-name="plusminus" unicode="&#xb1;" horiz-adv-x="1241" 
d="M1112 0h-983v152h983v-152zM1112 588h-416v-299h-151v299h-416v151h416v416h151v-416h416v-151z" />
    <glyph glyph-name="two.superior" unicode="&#xb2;" horiz-adv-x="679" 
d="M655 1241q0 -71 -40 -137t-136 -154l-272 -248h444v-112h-626v104l333 307q115 105 144 145q28 40 28 104t-55 116q-55 51 -135 51t-132 -55t-52 -158v-10h-123q2 160 86 248t221 88t226 -84t89 -205z" />
    <glyph glyph-name="three.superior" unicode="&#xb3;" horiz-adv-x="679" 
d="M653 874q0 -124 -93 -212t-223 -88t-216 85q-86 86 -94 240h125q6 -111 57 -162t128 -51t134 55t57 129q0 188 -266 189v110l43 -2q76 0 120 34t44 89t-37 91t-94 36t-91 -40t-34 -117h-125q2 122 71 196t179 74t183 -71t73 -173q0 -53 -18 -89t-66 -79q143 -88 143 -244
z" />
    <glyph glyph-name="acute" unicode="&#xb4;" horiz-adv-x="768" 
d="M694 1450l-395 -233l-70 114l396 238z" />
    <glyph glyph-name="uni00B5" unicode="&#xb5;" horiz-adv-x="1245" 
d="M1116 0h-151v174q-103 -201 -333 -201t-351 201v-567h-152v1513h152v-575q-1 -141 21 -210t87 -128q102 -96 249 -96q146 0 236 106t91 328v575h151v-1120z" />
    <glyph glyph-name="paragraph" unicode="&#xb6;" horiz-adv-x="1155" 
d="M1006 -272h-154v1648h-234v-1648h-153v999q-181 19 -285 125t-104 277t117 277t339 107h474v-1785z" />
    <glyph glyph-name="periodcentered" unicode="&#xb7;" horiz-adv-x="567" 
d="M414 512q0 -53 -38 -91t-91 -38t-91 38t-38 91t38 91t91 38t91 -38t38 -91z" />
    <glyph glyph-name="cedilla" unicode="&#xb8;" horiz-adv-x="663" 
d="M389 -88q85 0 143 -54t58 -146q0 -90 -62 -158t-152 -68q-168 0 -210 174l108 12q20 -68 91 -67q43 -1 71 29t27 77q0 47 -29 77t-80 30t-90 -39l-65 39l77 192h80l-34 -108q43 10 67 10z" />
    <glyph glyph-name="one.superior" unicode="&#xb9;" horiz-adv-x="679" 
d="M477 590h-123v811h-153v112h276v-923z" />
    <glyph glyph-name="ordmasculine" unicode="&#xba;" horiz-adv-x="755" 
d="M690 653h-624v105h624v-105zM582 1215q0 87 -58 149t-145 61q-85 0 -145 -61t-60 -148q0 -86 59 -148t143 -62t146 61q60 61 60 148zM690 1216q0 -126 -93 -218t-221 -93q-128 0 -219 92q-91 91 -91 219t93 219t220 91t219 -92t92 -218z" />
    <glyph glyph-name="guillemotright" unicode="&#xbb;" horiz-adv-x="870" 
d="M438 614l-235 -411l-121 67l192 344l-192 342l121 66zM788 614l-231 -411l-121 67l193 344l-193 342l121 66z" />
    <glyph glyph-name="onequarter" unicode="&#xbc;" horiz-adv-x="1701" 
d="M483 590h-123v811h-153v112h276v-923zM1243 1513l-700 -1513h-111l698 1513h113zM1436 274v461l-320 -461h320zM1645 162h-86v-162h-123v162h-473v102l462 660h134v-650h86v-112z" />
    <glyph glyph-name="onehalf" unicode="&#xbd;" horiz-adv-x="1701" 
d="M1667 651q0 -71 -40 -137t-136 -154l-272 -247h444v-113h-627v104l334 308q115 104 143 144q29 40 29 104t-55 116q-55 51 -135 51t-132 -55t-53 -158v-10h-123q2 160 86 248t222 88t226 -84q89 -84 89 -205zM473 590h-123v811h-153v112h276v-923zM1233 1513l-701 -1513
h-110l698 1513h113z" />
    <glyph glyph-name="threequarters" unicode="&#xbe;" horiz-adv-x="1701" 
d="M653 874q0 -124 -93 -212t-223 -88t-219 86q-89 87 -91 239h125q6 -113 57 -163t128 -50t134 55t57 129q0 188 -266 189v110l43 -2q76 0 120 34t44 89t-37 91t-94 36t-91 -40t-34 -117h-125q2 122 71 196t179 74t183 -71t73 -173q0 -53 -18 -89t-66 -79q143 -90 143 -244
zM1300 1513l-700 -1513h-111l699 1513h112zM1436 274v461l-320 -461h320zM1645 162h-86v-162h-123v162h-473v102l462 660h134v-650h86v-112z" />
    <glyph glyph-name="questiondown" unicode="&#xbf;" horiz-adv-x="1210" 
d="M1077 80q0 -240 -134 -370t-340 -130t-337 126t-131 319q0 98 42 178q41 80 149 176t154 173t48 173h144q-2 -125 -49 -216t-157 -195t-145 -160q-34 -57 -34 -134q0 -131 88 -217q89 -86 233 -86q144 -1 235 91t91 272h143zM676 862h-152v258h152v-258z" />
    <glyph glyph-name="Agrave" unicode="&#xc0;" horiz-adv-x="1515" 
d="M911 1704l-69 -115l-396 234l70 119zM1049 647l-291 694l-297 -694h588zM1493 0h-166l-219 510h-705l-221 -510h-159l649 1513h170z" />
    <glyph glyph-name="Aacute" unicode="&#xc1;" horiz-adv-x="1515" 
d="M1067 1823l-395 -234l-70 115l395 238zM1049 647l-291 694l-297 -694h588zM1493 0h-166l-219 510h-705l-221 -510h-159l649 1513h170z" />
    <glyph glyph-name="Acircumflex" unicode="&#xc2;" horiz-adv-x="1515" 
d="M1120 1616h-182l-176 151l-180 -151h-187l297 258h135zM1049 647l-291 694l-297 -694h588zM1493 0h-166l-219 510h-705l-221 -510h-159l649 1513h170z" />
    <glyph glyph-name="Atilde" unicode="&#xc3;" horiz-adv-x="1515" 
d="M654 1714q-32 0 -48 -7t-78 -58l-67 94q78 100 190 100q17 0 103 -32t116 -31q55 0 117 63l68 -94q-25 -41 -80 -71t-103 -30t-139 46q-47 20 -79 20zM1049 647l-291 694l-297 -694h588zM1493 0h-166l-219 510h-705l-221 -510h-159l649 1513h170z" />
    <glyph glyph-name="Adieresis" unicode="&#xc4;" horiz-adv-x="1515" 
d="M983 1616h-152v258h152v-258zM682 1616h-152v258h152v-258zM1049 647l-291 694l-297 -694h588zM1493 0h-166l-219 510h-705l-221 -510h-159l649 1513h170z" />
    <glyph glyph-name="Aring" unicode="&#xc5;" horiz-adv-x="1515" 
d="M872 1772q0 46 -34 80t-80 34q-47 0 -81 -34t-34 -82t34 -80t81 -33q47 0 81 34q33 34 33 81zM551 1771q0 87 60 147q61 60 147 60t146 -61t61 -146q-1 -85 -61 -145t-146 -61q-86 0 -147 60q-60 60 -60 146zM1049 647l-291 694l-297 -694h588zM1493 0h-166l-219 510
h-705l-221 -510h-159l649 1513h170z" />
    <glyph glyph-name="AE" unicode="&#xc6;" horiz-adv-x="2031" 
d="M1112 649v670l-459 -670h459zM1917 0h-805v512h-555l-354 -512h-180l1046 1513h848v-137h-653v-542h630v-138h-630v-559h653v-137z" />
    <glyph glyph-name="Ccedilla" unicode="&#xc7;" horiz-adv-x="1665" 
d="M942 -88q84 0 142 -54t58 -146t-62 -158q-62 -68 -152 -68q-170 0 -209 174l108 12q20 -68 91 -67q42 -1 70 29t28 77t-29 77t-80 30t-90 -39l-65 39l63 157q-313 25 -519 244t-206 546t223 551t561 224q236 0 422 -113t275 -307h-170q-178 281 -520 281
q-269 1 -453 -185t-184 -455t188 -459t451 -189q165 1 285 67t241 217h168q-225 -418 -680 -424l-23 -71q43 10 68 10z" />
    <glyph glyph-name="Egrave" unicode="&#xc8;" horiz-adv-x="1097" 
d="M725 1704l-70 -115l-395 234l70 119zM983 0h-827v1513h827v-137h-676v-542h654v-138h-654v-559h676v-137z" />
    <glyph glyph-name="Eacute" unicode="&#xc9;" horiz-adv-x="1097" 
d="M879 1823l-396 -234l-69 115l395 238zM983 0h-827v1513h827v-137h-676v-542h654v-138h-654v-559h676v-137z" />
    <glyph glyph-name="Ecircumflex" unicode="&#xca;" horiz-adv-x="1097" 
d="M932 1616h-182l-177 151l-180 -151h-186l297 258h135zM983 0h-827v1513h827v-137h-676v-542h654v-138h-654v-559h676v-137z" />
    <glyph glyph-name="Edieresis" unicode="&#xcb;" horiz-adv-x="1097" 
d="M797 1616h-152v258h152v-258zM496 1616h-152v258h152v-258zM983 0h-827v1513h827v-137h-676v-542h654v-138h-654v-559h676v-137z" />
    <glyph glyph-name="Igrave" unicode="&#xcc;" horiz-adv-x="462" 
d="M377 1704l-70 -115l-395 234l70 119zM307 0h-151v1513h151v-1513z" />
    <glyph glyph-name="Iacute" unicode="&#xcd;" horiz-adv-x="462" 
d="M551 1823l-395 -234l-70 115l395 238zM307 0h-151v1513h151v-1513z" />
    <glyph glyph-name="Icircumflex" unicode="&#xce;" horiz-adv-x="462" 
d="M594 1616h-182l-176 151l-181 -151h-186l297 258h135zM307 0h-151v1513h151v-1513z" />
    <glyph glyph-name="Idieresis" unicode="&#xcf;" horiz-adv-x="462" 
d="M459 1616h-152v258h152v-258zM158 1616h-152v258h152v-258zM307 0h-151v1513h151v-1513z" />
    <glyph glyph-name="Eth" unicode="&#xd0;" horiz-adv-x="1617" 
d="M1374 758q0 170 -71 306q-72 136 -203 214q-162 98 -488 98h-211v-528h420v-137h-420v-574h211q201 0 328 32t217 103q217 177 217 486zM1528 752q0 -342 -221 -547t-650 -205h-407v711h-197v137h197v665h356q207 1 339 -27t239 -91q168 -100 256 -265t88 -378z" />
    <glyph glyph-name="Ntilde" unicode="&#xd1;" horiz-adv-x="1515" 
d="M656 1714q-32 0 -48 -7t-78 -58l-67 94q78 100 190 100q17 0 103 -32t116 -31q55 0 117 63l68 -94q-25 -41 -80 -71t-103 -30t-139 46q-47 20 -79 20zM1360 0h-152l-901 1331v-1331h-151v1513h204l848 -1255v1255h152v-1513z" />
    <glyph glyph-name="Ograve" unicode="&#xd2;" horiz-adv-x="1779" 
d="M1047 1704l-70 -115l-395 234l69 119zM1536 756q0 264 -190 454t-454 190t-456 -188q-192 -190 -192 -454t189 -454t455 -191q266 0 458 189q190 190 190 454zM894 1540q328 0 562 -230t234 -553t-236 -553t-566 -230t-564 230q-234 232 -234 554t238 552t566 230z" />
    <glyph glyph-name="Oacute" unicode="&#xd3;" horiz-adv-x="1779" 
d="M1200 1823l-395 -234l-70 115l395 238zM1536 756q0 264 -190 454t-454 190t-456 -188q-192 -190 -192 -454t189 -454t455 -191q266 0 458 189q190 190 190 454zM894 1540q328 0 562 -230t234 -553t-236 -553t-566 -230t-564 230q-234 232 -234 554t238 552t566 230z" />
    <glyph glyph-name="Ocircumflex" unicode="&#xd4;" horiz-adv-x="1779" 
d="M1253 1616h-182l-176 151l-180 -151h-187l297 258h136zM1536 756q0 264 -190 454t-454 190t-456 -188q-192 -190 -192 -454t189 -454t455 -191q266 0 458 189q190 190 190 454zM894 1540q328 0 562 -230t234 -553t-236 -553t-566 -230t-564 230q-234 232 -234 554
t238 552t566 230z" />
    <glyph glyph-name="Otilde" unicode="&#xd5;" horiz-adv-x="1779" 
d="M789 1714q-32 0 -51 -9t-74 -56l-68 94q78 100 190 100q18 0 104 -32t116 -31q55 0 116 63l68 -94q-25 -41 -80 -71t-102 -30t-140 46q-47 20 -79 20zM1536 756q0 264 -190 454t-454 190t-456 -188q-192 -190 -192 -454t189 -454t455 -191q266 0 458 189q190 190 190 454
zM894 1540q328 0 562 -230t234 -553t-236 -553t-566 -230t-564 230q-234 232 -234 554t238 552t566 230z" />
    <glyph glyph-name="Odieresis" unicode="&#xd6;" horiz-adv-x="1779" 
d="M1118 1616h-151v258h151v-258zM817 1616h-151v258h151v-258zM1536 756q0 264 -190 454t-454 190t-456 -188q-192 -190 -192 -454t189 -454t455 -191q266 0 458 189q190 190 190 454zM894 1540q328 0 562 -230t234 -553t-236 -553t-566 -230t-564 230q-234 232 -234 554
t238 552t566 230z" />
    <glyph glyph-name="multiply" unicode="&#xd7;" horiz-adv-x="1241" 
d="M1022 217l-107 -106l-294 295l-295 -295l-107 106l295 295l-295 295l107 106l295 -295l294 295l107 -106l-295 -295z" />
    <glyph glyph-name="Oslash" unicode="&#xd8;" horiz-adv-x="1777" 
d="M1534 760q0 272 -203 469l-770 -1030q164 -86 332 -86q268 0 455 187q186 188 186 460zM881 1401q-269 1 -453 -189t-184 -463t205 -466l770 1030q-145 88 -338 88zM1688 774q0 -342 -230 -571t-563 -230q-229 0 -418 113l-192 -256l-115 84l190 254q-270 225 -270 590
q0 330 229 556t564 226q252 0 420 -115l192 256l111 -86l-189 -252q271 -227 271 -569z" />
    <glyph glyph-name="Ugrave" unicode="&#xd9;" 
d="M825 1704l-69 -115l-396 234l70 119zM1186 569q0 -299 -138 -447t-377 -148t-377 148t-138 447v944h151v-944q0 -457 365 -456q362 0 362 456v944h152v-944z" />
    <glyph glyph-name="Uacute" unicode="&#xda;" 
d="M981 1823l-395 -234l-70 115l395 238zM1186 569q0 -299 -138 -447t-377 -148t-377 148t-138 447v944h151v-944q0 -457 365 -456q362 0 362 456v944h152v-944z" />
    <glyph glyph-name="Ucircumflex" unicode="&#xdb;" 
d="M1034 1616h-182l-176 151l-180 -151h-187l297 258h135zM1186 569q0 -299 -138 -447t-377 -148t-377 148t-138 447v944h151v-944q0 -457 365 -456q362 0 362 456v944h152v-944z" />
    <glyph glyph-name="Udieresis" unicode="&#xdc;" 
d="M897 1616h-152v258h152v-258zM596 1616h-152v258h152v-258zM1186 569q0 -299 -138 -447t-377 -148t-377 148t-138 447v944h151v-944q0 -457 365 -456q362 0 362 456v944h152v-944z" />
    <glyph glyph-name="Yacute" unicode="&#xdd;" horiz-adv-x="1212" 
d="M913 1823l-395 -234l-69 115l395 238zM680 0h-152v506l-524 1007h168l430 -847l440 847h166l-528 -1007v-506z" />
    <glyph glyph-name="Thorn" unicode="&#xde;" horiz-adv-x="1212" 
d="M522 1104h-215v-627h281q224 1 320 71t96 234t-84 246q-61 57 -235 72q-60 4 -163 4zM1157 790q0 -232 -130 -340q-130 -110 -429 -110h-291v-340h-151v1513h137v-272h280q309 0 447 -109q137 -110 137 -342z" />
    <glyph glyph-name="germandbls" unicode="&#xdf;" horiz-adv-x="1134" 
d="M648 113q116 -1 194 83t78 215t-98 211t-271 80q-25 0 -92 -4v138h18q160 0 250 76t90 203q0 128 -78 207q-79 79 -207 79t-194 -98t-66 -318v-569h105q2 -133 79 -218q76 -85 192 -85zM1073 408q0 -186 -120 -310t-300 -125q-266 0 -381 250v-223h-151v985
q0 555 418 555q186 0 309 -122t123 -304q0 -213 -174 -317q133 -43 205 -143t71 -246z" />
    <glyph glyph-name="agrave" unicode="&#xe0;" horiz-adv-x="1398" 
d="M831 1331l-69 -114l-395 233l69 119zM1118 563q0 189 -127 317t-310 128t-312 -129t-129 -317t129 -318t314 -131q185 0 310 131t125 319zM1270 0h-152v197q-90 -121 -189 -172t-243 -52q-258 0 -429 167t-171 418t169 420t421 169q283 0 442 -225v198h152v-1120z" />
    <glyph glyph-name="aacute" unicode="&#xe1;" horiz-adv-x="1398" 
d="M985 1450l-395 -233l-70 114l395 238zM1118 563q0 189 -127 317t-310 128t-312 -129t-129 -317t129 -318t314 -131q185 0 310 131t125 319zM1270 0h-152v197q-90 -121 -189 -172t-243 -52q-258 0 -429 167t-171 418t169 420t421 169q283 0 442 -225v198h152v-1120z" />
    <glyph glyph-name="acircumflex" unicode="&#xe2;" horiz-adv-x="1398" 
d="M1038 1243h-182l-176 152l-180 -152h-187l297 258h135zM1118 563q0 189 -127 317t-310 128t-312 -129t-129 -317t129 -318t314 -131q185 0 310 131t125 319zM1270 0h-152v197q-90 -121 -189 -172t-243 -52q-258 0 -429 167t-171 418t169 420t421 169q283 0 442 -225v198
h152v-1120z" />
    <glyph glyph-name="atilde" unicode="&#xe3;" horiz-adv-x="1398" 
d="M790 1276q-48 0 -139 45q-47 20 -79 20t-48 -7t-78 -58l-67 94q78 100 190 100q17 0 103 -32t116 -31q55 0 117 63l68 -94q-25 -40 -80 -70t-103 -30zM1118 563q0 189 -127 317t-310 128t-312 -129t-129 -317t129 -318t314 -131q185 0 310 131t125 319zM1270 0h-152v197
q-90 -121 -189 -172t-243 -52q-258 0 -429 167t-171 418t169 420t421 169q283 0 442 -225v198h152v-1120z" />
    <glyph glyph-name="adieresis" unicode="&#xe4;" horiz-adv-x="1398" 
d="M901 1243h-151v258h151v-258zM600 1243h-151v258h151v-258zM1118 563q0 189 -127 317t-310 128t-312 -129t-129 -317t129 -318t314 -131q185 0 310 131t125 319zM1270 0h-152v197q-90 -121 -189 -172t-243 -52q-258 0 -429 167t-171 418t169 420t421 169q283 0 442 -225
v198h152v-1120z" />
    <glyph glyph-name="aring" unicode="&#xe5;" horiz-adv-x="1398" 
d="M791 1393q0 47 -34 81t-81 34t-81 -34t-34 -82t34 -81t81 -33t81 34t34 81zM676 1599q86 0 146 -61t61 -146q-1 -86 -61 -146t-146 -60t-147 60q-60 60 -60 146t60 147q61 60 147 60zM1118 563q0 189 -127 317t-310 128t-312 -129t-129 -317t129 -318t314 -131
q185 0 310 131t125 319zM1270 0h-152v197q-90 -121 -189 -172t-243 -52q-258 0 -429 167t-171 418t169 420t421 169q283 0 442 -225v198h152v-1120z" />
    <glyph glyph-name="ae" unicode="&#xe6;" horiz-adv-x="2369" 
d="M1126 564q0 192 -126 318t-316 126t-316 -128t-126 -318t127 -319q127 -130 313 -130t315 130q129 129 129 321zM2142 643q-31 166 -148 265q-118 100 -284 100t-285 -102t-143 -263h860zM2290 506h-1014q14 -168 141 -281t301 -112q129 0 235 68q105 69 152 184h158
q-59 -176 -209 -284t-336 -108q-266 0 -450 215v-188h-146v188q-94 -114 -199 -164t-245 -51q-252 0 -422 168t-170 415t168 419t422 172q285 0 446 -221v194h146v-194q176 221 434 221t423 -168t165 -473z" />
    <glyph glyph-name="ccedilla" unicode="&#xe7;" horiz-adv-x="1325" 
d="M758 -88q84 0 142 -54t58 -146t-62 -158q-62 -68 -152 -68q-170 0 -209 174l108 12q20 -68 90 -67q43 -1 71 29t28 77t-29 77t-80 30t-90 -39l-66 39l64 159q-237 23 -391 188t-154 403t174 409q174 170 426 170q188 0 339 -99t218 -268h-170q-133 227 -389 228
q-186 0 -315 -130t-129 -318t131 -317q131 -130 319 -130q119 0 207 50t176 167h172q-184 -350 -532 -357l-23 -71q43 10 68 10z" />
    <glyph glyph-name="egrave" unicode="&#xe8;" horiz-adv-x="1331" 
d="M823 1331l-69 -114l-396 233l70 119zM1100 647q-39 168 -155 264q-115 97 -277 97t-279 -100t-147 -261h858zM1251 510h-1013q8 -166 136 -282t300 -115q128 1 236 71t155 185h158q-55 -166 -208 -281t-337 -115q-248 0 -420 171t-172 418t169 416t418 169t413 -173
t165 -464z" />
    <glyph glyph-name="eacute" unicode="&#xe9;" horiz-adv-x="1331" 
d="M977 1450l-395 -233l-70 114l395 238zM1100 647q-39 168 -155 264q-115 97 -277 97t-279 -100t-147 -261h858zM1251 510h-1013q8 -166 136 -282t300 -115q128 1 236 71t155 185h158q-55 -166 -208 -281t-337 -115q-248 0 -420 171t-172 418t169 416t418 169t413 -173
t165 -464z" />
    <glyph glyph-name="ecircumflex" unicode="&#xea;" horiz-adv-x="1331" 
d="M1030 1243h-182l-176 152l-180 -152h-187l297 258h135zM1100 647q-39 168 -155 264q-115 97 -277 97t-279 -100t-147 -261h858zM1251 510h-1013q8 -166 136 -282t300 -115q128 1 236 71t155 185h158q-55 -166 -208 -281t-337 -115q-248 0 -420 171t-172 418t169 416
t418 169t413 -173t165 -464z" />
    <glyph glyph-name="edieresis" unicode="&#xeb;" horiz-adv-x="1331" 
d="M893 1243h-152v258h152v-258zM592 1243h-152v258h152v-258zM1100 647q-39 168 -155 264q-115 97 -277 97t-279 -100t-147 -261h858zM1251 510h-1013q8 -166 136 -282t300 -115q128 1 236 71t155 185h158q-55 -166 -208 -281t-337 -115q-248 0 -420 171t-172 418t169 416
t418 169t413 -173t165 -464z" />
    <glyph glyph-name="igrave" unicode="&#xec;" horiz-adv-x="409" 
d="M350 1331l-69 -114l-396 233l70 119zM281 0h-152v1120h152v-1120z" />
    <glyph glyph-name="iacute" unicode="&#xed;" horiz-adv-x="409" 
d="M524 1450l-395 -233l-70 114l396 238zM281 0h-152v1120h152v-1120z" />
    <glyph glyph-name="icircumflex" unicode="&#xee;" horiz-adv-x="409" 
d="M567 1243h-182l-176 152l-180 -152h-187l297 258h135zM281 0h-152v1120h152v-1120z" />
    <glyph glyph-name="idieresis" unicode="&#xef;" horiz-adv-x="409" 
d="M430 1243h-151v258h151v-258zM129 1243h-152v258h152v-258zM281 0h-152v1120h152v-1120z" />
    <glyph glyph-name="eth" unicode="&#xf0;" 
d="M1102 557q0 195 -122 323t-307 128t-309 -127t-124 -321t125 -320t313 -127q188 1 306 125t118 319zM1255 571q1 -264 -159 -431t-415 -167t-425 167t-170 417t161 416t400 166q84 0 197 -37q-129 131 -195 188l-178 -80l-74 95l162 71q-35 35 -67 64l-56 49l109 59
q84 -61 139 -112l195 86l79 -90l-182 -80q244 -216 362 -396t117 -385z" />
    <glyph glyph-name="ntilde" unicode="&#xf1;" horiz-adv-x="1249" 
d="M740 1276q-48 0 -140 45q-47 20 -79 20t-48 -7t-78 -58l-67 94q78 100 190 100q18 0 104 -32t115 -31q55 0 117 63l68 -94q-25 -40 -80 -70q-54 -30 -102 -30zM1120 0h-151v588q0 420 -346 420q-160 0 -251 -96t-91 -296v-616h-152v1120h152v-145q141 172 361 172
t349 -138t129 -421v-588z" />
    <glyph glyph-name="ograve" unicode="&#xf2;" 
d="M829 1331l-69 -114l-395 233l69 119zM240 560q0 -194 125 -320t312 -127q187 1 306 125t119 318t-122 323t-307 129t-309 -127t-124 -321zM675 1147q251 0 415 -167t165 -421t-161 -420t-415 -166t-423 168t-170 420t169 419t420 167z" />
    <glyph glyph-name="oacute" unicode="&#xf3;" 
d="M983 1450l-395 -233l-70 114l395 238zM240 560q0 -194 125 -320t312 -127q187 1 306 125t119 318t-122 323t-307 129t-309 -127t-124 -321zM675 1147q251 0 415 -167t165 -421t-161 -420t-415 -166t-423 168t-170 420t169 419t420 167z" />
    <glyph glyph-name="ocircumflex" unicode="&#xf4;" 
d="M1036 1243h-182l-176 152l-180 -152h-187l297 258h135zM240 560q0 -194 125 -320t312 -127q187 1 306 125t119 318t-122 323t-307 129t-309 -127t-124 -321zM675 1147q251 0 415 -167t165 -421t-161 -420t-415 -166t-423 168t-170 420t169 419t420 167z" />
    <glyph glyph-name="otilde" unicode="&#xf5;" 
d="M788 1276q-48 0 -139 45q-47 20 -79 20t-48 -7t-78 -58l-67 94q78 100 190 100q17 0 103 -32t116 -31q55 0 117 63l68 -94q-25 -40 -80 -70t-103 -30zM240 560q0 -194 125 -320t312 -127q187 1 306 125t119 318t-122 323t-307 129t-309 -127t-124 -321zM675 1147
q251 0 415 -167t165 -421t-161 -420t-415 -166t-423 168t-170 420t169 419t420 167z" />
    <glyph glyph-name="odieresis" unicode="&#xf6;" 
d="M899 1243h-151v258h151v-258zM598 1243h-152v258h152v-258zM240 560q0 -194 125 -320t312 -127q187 1 306 125t119 318t-122 323t-307 129t-309 -127t-124 -321zM675 1147q251 0 415 -167t165 -421t-161 -420t-415 -166t-423 168t-170 420t169 419t420 167z" />
    <glyph glyph-name="divide" unicode="&#xf7;" horiz-adv-x="1241" 
d="M750 133q0 -53 -38 -91t-91 -38t-92 38q-38 38 -37 91q0 53 37 91t91 38t92 -38t38 -91zM750 891q0 -53 -38 -91t-91 -38t-92 38q-38 38 -37 91q0 53 37 91t91 38t92 -38t38 -91zM1112 436h-983v152h983v-152z" />
    <glyph glyph-name="oslash" unicode="&#xf8;" horiz-adv-x="1337" 
d="M662 113q192 1 314 129t122 316t-101 314l-551 -710q109 -49 216 -49zM240 545q0 -156 100 -297l549 710q-98 49 -215 50q-184 0 -309 -134t-125 -329zM1251 568q-1 -255 -163 -425t-416 -170q-150 0 -307 84l-107 -137l-108 82l104 137q-92 105 -130 201t-38 217
q0 246 171 418t415 172q164 0 299 -84l116 154l109 -87l-115 -151q170 -156 170 -411z" />
    <glyph glyph-name="ugrave" unicode="&#xf9;" horiz-adv-x="1245" 
d="M778 1331l-69 -114l-396 233l70 119zM1116 0h-151v174q-109 -201 -361 -201q-475 0 -475 543v604h152v-604q0 -403 335 -403q162 0 255 106t94 326v575h151v-1120z" />
    <glyph glyph-name="uacute" unicode="&#xfa;" horiz-adv-x="1245" 
d="M932 1450l-395 -233l-70 114l395 238zM1116 0h-151v174q-109 -201 -361 -201q-475 0 -475 543v604h152v-604q0 -403 335 -403q162 0 255 106t94 326v575h151v-1120z" />
    <glyph glyph-name="ucircumflex" unicode="&#xfb;" horiz-adv-x="1245" 
d="M985 1243h-182l-176 152l-181 -152h-186l297 258h135zM1116 0h-151v174q-109 -201 -361 -201q-475 0 -475 543v604h152v-604q0 -403 335 -403q162 0 255 106t94 326v575h151v-1120z" />
    <glyph glyph-name="udieresis" unicode="&#xfc;" horiz-adv-x="1245" 
d="M848 1243h-152v258h152v-258zM547 1243h-152v258h152v-258zM1116 0h-151v174q-109 -201 -361 -201q-475 0 -475 543v604h152v-604q0 -403 335 -403q162 0 255 106t94 326v575h151v-1120z" />
    <glyph glyph-name="yacute" unicode="&#xfd;" horiz-adv-x="1097" 
d="M860 1450l-395 -233l-70 114l396 238zM1079 1120l-647 -1513h-162l183 430l-435 1083h166l355 -893l379 893h161z" />
    <glyph glyph-name="thorn" unicode="&#xfe;" horiz-adv-x="1396" 
d="M1157 560q0 190 -127 319t-314 129q-186 0 -316 -128t-130 -319t127 -319t317 -129q190 0 316 128q127 129 127 319zM1311 559q0 -248 -172 -417t-422 -169q-287 0 -436 220v-586h-152v1906h152v-585q145 219 440 219q250 0 420 -170t170 -418z" />
    <glyph glyph-name="ydieresis" unicode="&#xff;" horiz-adv-x="1097" 
d="M776 1243h-151v258h151v-258zM475 1243h-151v258h151v-258zM1079 1120l-647 -1513h-162l183 430l-435 1083h166l355 -893l379 893h161z" />
    <glyph glyph-name="Amacron" unicode="&#x100;" horiz-adv-x="1515" 
d="M1102 1679h-690v131h690v-131zM1049 647l-291 694l-297 -694h588zM1493 0h-166l-219 510h-705l-221 -510h-159l649 1513h170z" />
    <glyph glyph-name="amacron" unicode="&#x101;" horiz-adv-x="1398" 
d="M1020 1307h-690v131h690v-131zM1118 563q0 189 -127 317t-310 128t-312 -129t-129 -317t129 -318t314 -131q185 0 310 131t125 319zM1270 0h-152v197q-90 -121 -189 -172t-243 -52q-258 0 -429 167t-171 418t169 420t421 169q283 0 442 -225v198h152v-1120z" />
    <glyph glyph-name="Abreve" unicode="&#x102;" horiz-adv-x="1515" 
d="M758 1622q-266 0 -312 246h132q20 -127 180 -127t180 127h131q-25 -131 -102 -189q-78 -57 -209 -57zM1049 647l-291 694l-297 -694h588zM1493 0h-166l-219 510h-705l-221 -510h-159l649 1513h170z" />
    <glyph glyph-name="abreve" unicode="&#x103;" horiz-adv-x="1398" 
d="M674 1368q160 0 180 127h131q-25 -131 -103 -188t-208 -58q-266 0 -312 246h132q20 -127 180 -127zM1118 563q0 189 -127 317t-310 128t-312 -129t-129 -317t129 -318t314 -131q185 0 310 131t125 319zM1270 0h-152v197q-90 -121 -189 -172t-243 -52q-258 0 -429 167
t-171 418t169 420t421 169q283 0 442 -225v198h152v-1120z" />
    <glyph glyph-name="Aogonek" unicode="&#x104;" horiz-adv-x="1515" 
d="M1049 647l-291 694l-297 -694h588zM1169 -248q0 112 158 248l-219 510h-705l-221 -510h-159l649 1513h170l651 -1513q-172 -98 -172 -256q0 -43 28 -74q29 -30 71 -30t100 10v-154q-43 -8 -103 -8q-104 0 -176 76t-72 188z" />
    <glyph glyph-name="aogonek" unicode="&#x105;" horiz-adv-x="1398" 
d="M1118 563q0 189 -127 317t-310 128t-312 -129t-129 -317t129 -318t314 -131q185 0 310 131t125 319zM1194 -512q-104 0 -176 76t-72 180q0 135 172 256v197q-90 -121 -189 -172t-243 -52q-258 0 -429 167t-171 418t169 420t421 169q283 0 442 -225v198h152v-1120
q-172 -98 -172 -256q0 -43 28 -74q28 -30 70 -30q43 0 100 10v-154q-43 -8 -102 -8z" />
    <glyph glyph-name="Cacute" unicode="&#x106;" horiz-adv-x="1665" 
d="M1184 1823l-396 -234l-69 115l395 238zM885 -27q-339 -1 -567 223t-228 560t223 560t561 224q236 0 422 -113t275 -307h-170q-178 281 -520 281q-269 1 -453 -185t-184 -455t188 -459t451 -189q165 1 285 67t241 217h168q-229 -424 -692 -424z" />
    <glyph glyph-name="cacute" unicode="&#x107;" horiz-adv-x="1325" 
d="M995 1450l-395 -233l-70 114l396 238zM86 560q0 247 174 417t426 170q188 0 339 -99t218 -268h-170q-133 227 -389 228q-186 0 -315 -130t-129 -318t131 -317q131 -130 319 -130q119 0 207 50t176 167h172q-188 -356 -549 -357q-258 0 -434 170t-176 417z" />
    <glyph glyph-name="Ccircumflex" unicode="&#x108;" horiz-adv-x="1665" 
d="M1237 1616h-182l-176 151l-181 -151h-186l297 258h135zM885 -27q-339 -1 -567 223t-228 560t223 560t561 224q236 0 422 -113t275 -307h-170q-178 281 -520 281q-269 1 -453 -185t-184 -455t188 -459t451 -189q165 1 285 67t241 217h168q-229 -424 -692 -424z" />
    <glyph glyph-name="ccircumflex" unicode="&#x109;" horiz-adv-x="1325" 
d="M1049 1243h-183l-176 152l-180 -152h-186l297 258h135zM86 560q0 247 174 417t426 170q188 0 339 -99t218 -268h-170q-133 227 -389 228q-186 0 -315 -130t-129 -318t131 -317q131 -130 319 -130q119 0 207 50t176 167h172q-188 -356 -549 -357q-258 0 -434 170t-176 417
z" />
    <glyph glyph-name="Cdotaccent" unicode="&#x10a;" horiz-adv-x="1665" 
d="M950 1616h-151v258h151v-258zM885 -27q-339 -1 -567 223t-228 560t223 560t561 224q236 0 422 -113t275 -307h-170q-178 281 -520 281q-269 1 -453 -185t-184 -455t188 -459t451 -189q165 1 285 67t241 217h168q-229 -424 -692 -424z" />
    <glyph glyph-name="cdotaccent" unicode="&#x10b;" horiz-adv-x="1325" 
d="M762 1243h-152v258h152v-258zM86 560q0 247 174 417t426 170q188 0 339 -99t218 -268h-170q-133 227 -389 228q-186 0 -315 -130t-129 -318t131 -317q131 -130 319 -130q119 0 207 50t176 167h172q-188 -356 -549 -357q-258 0 -434 170t-176 417z" />
    <glyph glyph-name="Ccaron" unicode="&#x10c;" horiz-adv-x="1665" 
d="M1237 1874l-297 -258h-135l-293 258h182l176 -152l181 152h186zM885 -27q-339 -1 -567 223t-228 560t223 560t561 224q236 0 422 -113t275 -307h-170q-178 281 -520 281q-269 1 -453 -185t-184 -455t188 -459t451 -189q165 1 285 67t241 217h168q-229 -424 -692 -424z
" />
    <glyph glyph-name="ccaron" unicode="&#x10d;" horiz-adv-x="1325" 
d="M1049 1501l-297 -258h-136l-292 258h182l176 -151l180 151h187zM86 560q0 247 174 417t426 170q188 0 339 -99t218 -268h-170q-133 227 -389 228q-186 0 -315 -130t-129 -318t131 -317q131 -130 319 -130q119 0 207 50t176 167h172q-188 -356 -549 -357q-258 0 -434 170
t-176 417z" />
    <glyph glyph-name="Dcaron" unicode="&#x10e;" horiz-adv-x="1523" 
d="M973 1874l-297 -258h-135l-293 258h182l176 -152l180 152h187zM1280 758q0 170 -72 306t-202 214q-162 98 -488 98h-211v-1239h211q201 0 328 32t217 103q217 177 217 486zM1434 752q0 -342 -222 -547t-649 -205h-407v1513h356q207 1 339 -27t239 -91q344 -203 344 -643z
" />
    <glyph glyph-name="dcaron" unicode="&#x10f;" horiz-adv-x="1402" 
d="M1653 1513l-99 -352h-151l98 352h152zM1128 563q0 185 -132 315t-316 130t-312 -129t-128 -318t130 -319t316 -129q186 0 314 133t128 317zM1274 0h-152v203q-84 -121 -185 -175t-241 -55q-260 0 -435 168t-175 418t171 419t433 169t432 -205v571h152v-1513z" />
    <glyph glyph-name="Dcroat" unicode="&#x110;" horiz-adv-x="1617" 
d="M1374 758q0 170 -71 306q-72 136 -203 214q-162 98 -488 98h-211v-528h420v-137h-420v-574h211q201 0 328 32t217 103q217 177 217 486zM1528 752q0 -342 -221 -547t-650 -205h-407v711h-197v137h197v665h356q207 1 339 -27t239 -91q168 -100 256 -265t88 -378z" />
    <glyph glyph-name="dcroat" unicode="&#x111;" horiz-adv-x="1402" 
d="M1128 563q0 185 -132 315t-316 130t-312 -129t-128 -318t129 -319t316 -129q187 0 315 133t128 317zM1403 1233h-129v-1233h-152v203q-84 -121 -185 -175t-241 -55q-260 0 -435 168t-175 418t171 419t433 169t432 -205v291h-311v129h311v151h152v-151h129v-129z" />
    <glyph glyph-name="Emacron" unicode="&#x112;" horiz-adv-x="1097" 
d="M915 1679h-690v131h690v-131zM983 0h-827v1513h827v-137h-676v-542h654v-138h-654v-559h676v-137z" />
    <glyph glyph-name="emacron" unicode="&#x113;" horiz-adv-x="1331" 
d="M1012 1307h-690v131h690v-131zM1100 647q-39 168 -155 264q-115 97 -277 97t-279 -100t-147 -261h858zM1251 510h-1013q8 -166 136 -282t300 -115q128 1 236 71t155 185h158q-55 -166 -208 -281t-337 -115q-248 0 -420 171t-172 418t169 416t418 169t413 -173t165 -464z
" />
    <glyph glyph-name="Ebreve" unicode="&#x114;" horiz-adv-x="1097" 
d="M569 1622q-266 0 -311 246h131q20 -127 180 -127t181 127h131q-25 -130 -103 -188t-209 -58zM983 0h-827v1513h827v-137h-676v-542h654v-138h-654v-559h676v-137z" />
    <glyph glyph-name="ebreve" unicode="&#x115;" horiz-adv-x="1331" 
d="M666 1368q160 0 180 127h131q-25 -131 -103 -188t-208 -58q-266 0 -312 246h131q21 -127 181 -127zM1100 647q-39 168 -155 264q-115 97 -277 97t-279 -100t-147 -261h858zM1251 510h-1013q8 -166 136 -282t300 -115q128 1 236 71t155 185h158q-55 -166 -208 -281
t-337 -115q-248 0 -420 171t-172 418t169 416t418 169t413 -173t165 -464z" />
    <glyph glyph-name="Edotaccent" unicode="&#x116;" horiz-adv-x="1097" 
d="M645 1616h-151v258h151v-258zM983 0h-827v1513h827v-137h-676v-542h654v-138h-654v-559h676v-137z" />
    <glyph glyph-name="edotaccent" unicode="&#x117;" horiz-adv-x="1331" 
d="M743 1243h-151v258h151v-258zM1100 647q-39 168 -155 264q-115 97 -277 97t-279 -100t-147 -261h858zM1251 510h-1013q8 -166 136 -282t300 -115q128 1 236 71t155 185h158q-55 -166 -208 -281t-337 -115q-248 0 -420 171t-172 418t169 416t418 169t413 -173t165 -464z
" />
    <glyph glyph-name="Eogonek" unicode="&#x118;" horiz-adv-x="1097" 
d="M907 -512q-104 0 -176 76t-72 180q0 135 172 256h-675v1513h827v-137h-676v-542h654v-138h-654v-559h676v-137q-172 -98 -172 -256q0 -43 28 -74q29 -30 71 -30t100 10v-154q-43 -8 -103 -8z" />
    <glyph glyph-name="eogonek" unicode="&#x119;" horiz-adv-x="1331" 
d="M1100 647q-39 168 -155 264q-115 97 -277 97t-279 -100t-147 -261h858zM1251 510h-1013q8 -166 136 -282t300 -115q128 1 236 71t155 185h158q-33 -95 -102 -179t-163 -139q-250 -143 -249 -307q-1 -43 27 -74q28 -30 71 -30t100 10v-154q-43 -8 -102 -8q-104 0 -176 76
t-72 188t137 221h-16q-248 0 -420 171t-172 418t169 416t418 169t413 -173t165 -464z" />
    <glyph glyph-name="Ecaron" unicode="&#x11a;" horiz-adv-x="1097" 
d="M932 1874l-297 -258h-135l-293 258h182l176 -152l180 152h187zM983 0h-827v1513h827v-137h-676v-542h654v-138h-654v-559h676v-137z" />
    <glyph glyph-name="ecaron" unicode="&#x11b;" horiz-adv-x="1331" 
d="M1030 1501l-297 -258h-135l-293 258h182l177 -151l180 151h186zM1100 647q-39 168 -155 264q-115 97 -277 97t-279 -100t-147 -261h858zM1251 510h-1013q8 -166 136 -282t300 -115q128 1 236 71t155 185h158q-55 -166 -208 -281t-337 -115q-248 0 -420 171t-172 418
t169 416t418 169t413 -173t165 -464z" />
    <glyph glyph-name="Gcircumflex" unicode="&#x11c;" horiz-adv-x="1785" 
d="M1255 1616h-182l-176 151l-180 -151h-187l297 258h136zM901 -27q-335 -1 -573 227t-238 558t232 556t571 226q249 0 445 -119t272 -311h-170q-78 137 -218 214t-317 77q-281 -1 -471 -187t-190 -457t192 -458q193 -186 471 -186q219 0 395 132q175 132 218 316h-846v137
h1028q-18 -295 -242 -510t-559 -215z" />
    <glyph glyph-name="gcircumflex" unicode="&#x11d;" horiz-adv-x="1378" 
d="M1022 1243h-182l-176 152l-181 -152h-186l297 258h135zM1098 566q0 190 -125 316t-308 126t-305 -124t-120 -318q0 -194 122 -324t306 -129q184 -1 307 131t123 322zM1249 201q1 -164 -23 -263t-81 -178q-152 -201 -455 -200q-211 0 -356 104t-207 301h147
q84 -150 176 -208t236 -58q203 0 307 116t105 337v75q-129 -254 -428 -254q-246 0 -415 168t-169 418t164 419t422 169t426 -225v198h151v-919z" />
    <glyph glyph-name="Gbreve" unicode="&#x11e;" horiz-adv-x="1785" 
d="M893 1622q-266 0 -311 246h131q20 -127 180 -127t180 127h131q-25 -131 -102 -189q-78 -57 -209 -57zM901 -27q-335 -1 -573 227t-238 558t232 556t571 226q249 0 445 -119t272 -311h-170q-78 137 -218 214t-317 77q-281 -1 -471 -187t-190 -457t192 -458
q193 -186 471 -186q219 0 395 132q175 132 218 316h-846v137h1028q-18 -295 -242 -510t-559 -215z" />
    <glyph glyph-name="gbreve" unicode="&#x11f;" horiz-adv-x="1378" 
d="M657 1368q160 0 181 127h131q-25 -131 -103 -188t-209 -58q-266 0 -311 246h131q20 -127 180 -127zM1098 566q0 190 -125 316t-308 126t-305 -124t-120 -318q0 -194 122 -324t306 -129q184 -1 307 131t123 322zM1249 201q1 -164 -23 -263t-81 -178q-152 -201 -455 -200
q-211 0 -356 104t-207 301h147q84 -150 176 -208t236 -58q203 0 307 116t105 337v75q-129 -254 -428 -254q-246 0 -415 168t-169 418t164 419t422 169t426 -225v198h151v-919z" />
    <glyph glyph-name="Gdotaccent" unicode="&#x120;" horiz-adv-x="1785" 
d="M969 1616h-152v258h152v-258zM901 -27q-335 -1 -573 227t-238 558t232 556t571 226q249 0 445 -119t272 -311h-170q-78 137 -218 214t-317 77q-281 -1 -471 -187t-190 -457t192 -458q193 -186 471 -186q219 0 395 132q175 132 218 316h-846v137h1028q-18 -295 -242 -510
t-559 -215z" />
    <glyph glyph-name="gdotaccent" unicode="&#x121;" horiz-adv-x="1378" 
d="M735 1243h-151v258h151v-258zM1098 566q0 190 -125 316t-308 126t-305 -124t-120 -318q0 -194 122 -324t306 -129q184 -1 307 131t123 322zM1249 201q1 -164 -23 -263t-81 -178q-152 -201 -455 -200q-211 0 -356 104t-207 301h147q84 -150 176 -208t236 -58
q203 0 307 116t105 337v75q-129 -254 -428 -254q-246 0 -415 168t-169 418t164 419t422 169t426 -225v198h151v-919z" />
    <glyph glyph-name="Gcommaaccent" unicode="&#x122;" horiz-adv-x="1785" 
d="M991 -109l-98 -352h-152l99 352h151zM901 -27q-335 -1 -573 227t-238 558t232 556t571 226q249 0 445 -119t272 -311h-170q-78 137 -218 214t-317 77q-281 -1 -471 -187t-190 -457t192 -458q193 -186 471 -186q219 0 395 132q175 132 218 316h-846v137h1028
q-18 -295 -242 -510t-559 -215z" />
    <glyph glyph-name="gcommaaccent" unicode="&#x123;" horiz-adv-x="1378" 
d="M1098 566q0 190 -125 316t-308 126t-305 -124t-120 -318q0 -194 122 -324t306 -129q184 -1 307 131t123 322zM1249 201q1 -164 -23 -263t-81 -178q-152 -201 -455 -200q-211 0 -356 104t-207 301h147q84 -150 176 -208t236 -58q203 0 307 116t105 337v75
q-129 -254 -428 -254q-246 0 -415 168t-169 418t164 419t422 169t426 -225v198h151v-919zM784 1614l-98 -352h-151l98 352h151z" />
    <glyph glyph-name="Hcircumflex" unicode="&#x124;" horiz-adv-x="1398" 
d="M1063 1616h-182l-176 151l-181 -151h-186l297 258h135zM1243 0h-151v711h-785v-711h-151v1513h151v-665h785v665h151v-1513z" />
    <glyph glyph-name="hcircumflex" unicode="&#x125;" horiz-adv-x="1249" 
d="M987 1616h-182l-176 151l-180 -151h-187l297 258h135zM1120 0h-151v602q0 203 -93 304q-93 102 -250 102t-251 -98t-94 -296v-614h-152v1513h152v-538q119 172 350 172t360 -136t129 -409v-602z" />
    <glyph glyph-name="Hbar" unicode="&#x126;" horiz-adv-x="1398" 
d="M1092 848v309h-785v-309h785zM1380 1157h-137v-1157h-151v711h-785v-711h-151v1157h-131v131h131v225h151v-225h785v225h151v-225h137v-131z" />
    <glyph glyph-name="hbar" unicode="&#x127;" horiz-adv-x="1249" 
d="M1118 0h-151v602q0 188 -76 283q-96 123 -275 123t-276 -140q-61 -84 -61 -254v-614h-152v1260h-109v131h111v122h152v-122h202v-131h-202l-2 -285q119 172 365 172t378 -174q96 -129 96 -371v-602z" />
    <glyph glyph-name="Itilde" unicode="&#x128;" horiz-adv-x="462" 
d="M130 1714q-32 0 -52 -10t-74 -55l-67 94q78 100 190 100q18 0 103 -32t116 -31q55 0 117 63l67 -94q-26 -41 -80 -71t-102 -30t-139 46q-47 20 -79 20zM307 0h-151v1513h151v-1513z" />
    <glyph glyph-name="itilde" unicode="&#x129;" horiz-adv-x="409" 
d="M320 1276q-48 0 -140 45q-47 20 -79 20t-48 -7t-78 -58l-67 94q78 100 190 100q18 0 104 -32t115 -31q55 0 117 63l68 -94q-25 -40 -80 -70q-54 -30 -102 -30zM281 0h-152v1120h152v-1120z" />
    <glyph glyph-name="Imacron" unicode="&#x12a;" horiz-adv-x="462" 
d="M578 1679h-691v131h691v-131zM307 0h-151v1513h151v-1513z" />
    <glyph glyph-name="imacron" unicode="&#x12b;" horiz-adv-x="409" 
d="M549 1307h-690v131h690v-131zM281 0h-152v1120h152v-1120z" />
    <glyph glyph-name="Ibreve" unicode="&#x12c;" horiz-adv-x="462" 
d="M231 1622q-266 0 -311 246h131q20 -127 180 -127t181 127h131q-25 -130 -103 -188t-209 -58zM307 0h-151v1513h151v-1513z" />
    <glyph glyph-name="ibreve" unicode="&#x12d;" horiz-adv-x="409" 
d="M203 1368q160 0 180 127h131q-24 -131 -102 -188t-209 -58q-266 0 -312 246h132q20 -127 180 -127zM281 0h-152v1120h152v-1120z" />
    <glyph glyph-name="Iogonek" unicode="&#x12e;" horiz-adv-x="462" 
d="M231 -512q-104 0 -176 76t-71 180q0 135 172 256v1513h151v-1513q-172 -98 -172 -256q0 -43 28 -74q29 -30 71 -30t100 10v-154q-43 -8 -103 -8z" />
    <glyph glyph-name="iogonek" unicode="&#x12f;" horiz-adv-x="409" 
d="M281 1243h-152v258h152v-258zM205 -512q-104 0 -176 76t-72 180q0 135 172 256v1120h152v-1120q-172 -98 -172 -256q-1 -43 27 -74q28 -30 71 -30t100 10v-154q-43 -8 -102 -8z" />
    <glyph glyph-name="Idotaccent" unicode="&#x130;" horiz-adv-x="462" 
d="M307 1616h-151v258h151v-258zM307 0h-151v1513h151v-1513z" />
    <glyph glyph-name="dotlessi" unicode="&#x131;" horiz-adv-x="409" 
d="M281 0h-152v1120h152v-1120z" />
    <glyph glyph-name="Jcircumflex" unicode="&#x134;" horiz-adv-x="987" 
d="M1118 1616h-182l-176 151l-180 -151h-187l297 258h135zM831 473q0 -250 -103 -376q-104 -126 -292 -126q-188 1 -296 103t-117 284h149q8 -116 77 -182t181 -65q250 0 250 362v1040h151v-1040z" />
    <glyph glyph-name="jcircumflex" unicode="&#x135;" horiz-adv-x="415" 
d="M573 1243h-182l-176 152l-180 -152h-187l297 258h136zM287 78q0 -240 -93 -352t-286 -119v145q127 8 177 80t50 246v1042h152v-1042z" />
    <glyph glyph-name="Kcommaaccent" unicode="&#x136;" horiz-adv-x="1210" 
d="M756 -109l-99 -352h-151l98 352h152zM307 0h-151v1513h151v-870l701 870h190l-598 -737l598 -776h-190l-504 655l-197 -241v-414z" />
    <glyph glyph-name="kcommaaccent" unicode="&#x137;" horiz-adv-x="1028" 
d="M653 -109l-98 -352h-152l99 352h151zM281 0h-152v1513h152v-1073l522 680h186l-436 -563l465 -557h-189l-372 449l-176 -218v-231z" />
    <glyph glyph-name="Lacute" unicode="&#x139;" horiz-adv-x="946" 
d="M551 1823l-395 -234l-70 115l395 238zM934 0h-778v1513h151v-1376h627v-137z" />
    <glyph glyph-name="lacute" unicode="&#x13a;" horiz-adv-x="409" 
d="M524 1823l-395 -234l-70 115l396 238zM281 0h-152v1513h152v-1513z" />
    <glyph glyph-name="Lcommaaccent" unicode="&#x13b;" horiz-adv-x="946" 
d="M643 -109l-98 -352h-152l99 352h151zM934 0h-778v1513h151v-1376h627v-137z" />
    <glyph glyph-name="lcommaaccent" unicode="&#x13c;" horiz-adv-x="409" 
d="M303 -109l-98 -352h-152l99 352h151zM281 0h-152v1513h152v-1513z" />
    <glyph glyph-name="Lcaron" unicode="&#x13d;" horiz-adv-x="946" 
d="M686 1513l-98 -352h-152l99 352h151zM934 0h-778v1513h151v-1376h627v-137z" />
    <glyph glyph-name="lcaron" unicode="&#x13e;" horiz-adv-x="409" 
d="M659 1513l-98 -352h-151l98 352h151zM281 0h-152v1513h152v-1513z" />
    <glyph glyph-name="Ldot" unicode="&#x13f;" horiz-adv-x="946" 
d="M780 655h-151v258h151v-258zM934 0h-778v1513h151v-1376h627v-137z" />
    <glyph glyph-name="ldot" unicode="&#x140;" horiz-adv-x="561" 
d="M561 655h-151v258h151v-258zM281 0h-152v1513h152v-1513z" />
    <glyph glyph-name="Lslash" unicode="&#x141;" horiz-adv-x="1058" 
d="M1028 0h-778v621l-197 -162v170l197 164v720h151v-620l328 272v-172l-328 -270v-586h627v-137z" />
    <glyph glyph-name="lslash" unicode="&#x142;" horiz-adv-x="614" 
d="M385 0h-152v709l-159 -109v148l159 108v657h152v-589l168 112v-149l-168 -111v-776z" />
    <glyph glyph-name="Nacute" unicode="&#x143;" horiz-adv-x="1515" 
d="M1067 1823l-395 -234l-70 115l395 238zM1360 0h-152l-901 1331v-1331h-151v1513h204l848 -1255v1255h152v-1513z" />
    <glyph glyph-name="nacute" unicode="&#x144;" horiz-adv-x="1249" 
d="M934 1450l-395 -233l-70 114l395 238zM1120 0h-151v588q0 420 -346 420q-160 0 -251 -96t-91 -296v-616h-152v1120h152v-145q141 172 361 172t349 -138t129 -421v-588z" />
    <glyph glyph-name="Ncommaaccent" unicode="&#x145;" horiz-adv-x="1515" 
d="M856 -109l-98 -352h-152l99 352h151zM1360 0h-152l-901 1331v-1331h-151v1513h204l848 -1255v1255h152v-1513z" />
    <glyph glyph-name="ncommaaccent" unicode="&#x146;" horiz-adv-x="1249" 
d="M723 -109l-98 -352h-152l98 352h152zM1120 0h-151v588q0 420 -346 420q-160 0 -251 -96t-91 -296v-616h-152v1120h152v-145q141 172 361 172t349 -138t129 -421v-588z" />
    <glyph glyph-name="Ncaron" unicode="&#x147;" horiz-adv-x="1515" 
d="M1120 1874l-297 -258h-135l-293 258h183l176 -152l180 152h186zM1360 0h-152l-901 1331v-1331h-151v1513h204l848 -1255v1255h152v-1513z" />
    <glyph glyph-name="ncaron" unicode="&#x148;" horiz-adv-x="1249" 
d="M987 1501l-297 -258h-135l-293 258h182l177 -151l180 151h186zM1120 0h-151v588q0 420 -346 420q-160 0 -251 -96t-91 -296v-616h-152v1120h152v-145q141 172 361 172t349 -138t129 -421v-588z" />
    <glyph glyph-name="Eng" unicode="&#x14a;" horiz-adv-x="1515" 
d="M1360 -12q0 -250 -104 -376t-292 -126t-296 102t-117 285h149q8 -115 77 -181t181 -67q112 0 181 96q70 96 69 228v51l-901 1331v-1331h-151v1513h204l848 -1255v1255h152v-1525z" />
    <glyph glyph-name="eng" unicode="&#x14b;" horiz-adv-x="1249" 
d="M1120 78q0 -240 -93 -352t-286 -119v145q127 8 178 80q50 72 50 246v510q0 420 -346 420q-160 0 -251 -96t-91 -296v-616h-152v1120h152v-145q141 172 361 172t349 -138t129 -421v-510z" />
    <glyph glyph-name="Omacron" unicode="&#x14c;" horiz-adv-x="1779" 
d="M1237 1679h-690v131h690v-131zM1536 756q0 264 -190 454t-454 190t-456 -188q-192 -190 -192 -454t189 -454t455 -191q266 0 458 189q190 190 190 454zM894 1540q328 0 562 -230t234 -553t-236 -553t-566 -230t-564 230q-234 232 -234 554t238 552t566 230z" />
    <glyph glyph-name="omacron" unicode="&#x14d;" 
d="M1018 1307h-690v131h690v-131zM240 560q0 -194 125 -320t312 -127q187 1 306 125t119 318t-122 323t-307 129t-309 -127t-124 -321zM675 1147q251 0 415 -167t165 -421t-161 -420t-415 -166t-423 168t-170 420t169 419t420 167z" />
    <glyph glyph-name="Obreve" unicode="&#x14e;" horiz-adv-x="1779" 
d="M891 1622q-266 0 -311 246h131q20 -127 180 -127t180 127h131q-25 -131 -102 -189q-78 -57 -209 -57zM1536 756q0 264 -190 454t-454 190t-456 -188q-192 -190 -192 -454t189 -454t455 -191q266 0 458 189q190 190 190 454zM894 1540q328 0 562 -230t234 -553t-236 -553
t-566 -230t-564 230q-234 232 -234 554t238 552t566 230z" />
    <glyph glyph-name="obreve" unicode="&#x14f;" 
d="M672 1368q160 0 180 127h131q-25 -131 -103 -188t-208 -58q-266 0 -312 246h132q20 -127 180 -127zM240 560q0 -194 125 -320t312 -127q187 1 306 125t119 318t-122 323t-307 129t-309 -127t-124 -321zM675 1147q251 0 415 -167t165 -421t-161 -420t-415 -166t-423 168
t-170 420t169 419t420 167z" />
    <glyph glyph-name="Ohungarumlaut" unicode="&#x150;" horiz-adv-x="1779" 
d="M1450 1839l-356 -248l-72 97l350 251zM1049 1839l-357 -248l-71 97l350 251zM1536 756q0 264 -190 454t-454 190t-456 -188q-192 -190 -192 -454t189 -454t455 -191q266 0 458 189q190 190 190 454zM894 1540q328 0 562 -230t234 -553t-236 -553t-566 -230t-564 230
q-234 232 -234 554t238 552t566 230z" />
    <glyph glyph-name="ohungarumlaut" unicode="&#x151;" 
d="M1233 1446l-356 -248l-72 96l350 252zM831 1446l-356 -248l-72 96l351 252zM240 560q0 -194 125 -320t312 -127q187 1 306 125t119 318t-122 323t-307 129t-309 -127t-124 -321zM675 1147q251 0 415 -167t165 -421t-161 -420t-415 -166t-423 168t-170 420t169 419
t420 167z" />
    <glyph glyph-name="OE" unicode="&#x152;" horiz-adv-x="2445" 
d="M1528 761q0 280 -181 460t-459 180t-460 -182q-184 -182 -184 -458t186 -462t464 -186t456 184t178 464zM2331 0h-805v309q-195 -336 -615 -336q-354 -1 -587 223q-234 224 -234 561t226 560t569 223q213 0 380 -85t261 -243v301h805v-137h-654v-542h631v-138h-631v-559
h654v-137z" />
    <glyph glyph-name="oe" unicode="&#x153;" horiz-adv-x="2328" 
d="M1098 562q0 190 -123 318t-307 128t-306 -128t-122 -318t126 -320q126 -129 308 -129t303 129q121 130 121 320zM2103 645q-27 162 -147 262q-121 101 -282 101q-160 0 -274 -96t-155 -267h858zM2249 586q0 -8 -4 -78h-1000q10 -170 141 -283t302 -112q262 0 385 254h151
q-43 -160 -189 -277q-147 -117 -331 -117t-324 82q-139 82 -211 228q-92 -162 -210 -236t-281 -74q-250 0 -421 170t-171 418t167 417t411 169q326 0 505 -299q174 299 504 299q244 1 410 -161t166 -400z" />
    <glyph glyph-name="Racute" unicode="&#x154;" horiz-adv-x="1243" 
d="M932 1823l-395 -234l-70 115l395 238zM1182 1026q0 -202 -115 -320t-332 -141l424 -565h-188l-510 686q323 0 445 73t122 266t-120 272t-388 79h-213v-1376h-151v1513h374q346 1 499 -121t153 -366z" />
    <glyph glyph-name="racute" unicode="&#x155;" horiz-adv-x="616" 
d="M590 1450l-395 -233l-70 114l395 238zM281 653v-653h-152v1120h152v-159q45 92 120 136q76 44 197 50v-150q-317 -31 -317 -344z" />
    <glyph glyph-name="Rcommaaccent" unicode="&#x156;" horiz-adv-x="1243" 
d="M719 -109l-98 -352h-152l98 352h152zM1182 1026q0 -202 -115 -320t-332 -141l424 -565h-188l-510 686q323 0 445 73t122 266t-120 272t-388 79h-213v-1376h-151v1513h374q346 1 499 -121t153 -366z" />
    <glyph glyph-name="rcommaaccent" unicode="&#x157;" horiz-adv-x="616" 
d="M303 -109l-98 -352h-152l99 352h151zM281 653v-653h-152v1120h152v-159q45 92 120 136q76 44 197 50v-150q-317 -31 -317 -344z" />
    <glyph glyph-name="Rcaron" unicode="&#x158;" horiz-adv-x="1243" 
d="M985 1874l-297 -258h-135l-293 258h182l176 -152l181 152h186zM1182 1026q0 -202 -115 -320t-332 -141l424 -565h-188l-510 686q323 0 445 73t122 266t-120 272t-388 79h-213v-1376h-151v1513h374q346 1 499 -121t153 -366z" />
    <glyph glyph-name="rcaron" unicode="&#x159;" horiz-adv-x="616" 
d="M643 1501l-297 -258h-135l-293 258h182l176 -151l181 151h186zM281 653v-653h-152v1120h152v-159q45 92 120 136q76 44 197 50v-150q-317 -31 -317 -344z" />
    <glyph glyph-name="Sacute" unicode="&#x15a;" horiz-adv-x="1019" 
d="M823 1823l-395 -234l-70 115l396 238zM975 431q0 -202 -130 -330t-331 -128t-330 123t-139 328h162q16 -150 101 -230t214 -81q129 0 214 85t85 213q1 129 -71 195t-235 115t-216 75q-204 100 -205 337q0 175 119 291t303 116t303 -114t119 -296h-158q0 121 -77 196
t-191 75t-190 -75q-74 -76 -74 -190t71 -175q47 -41 234 -97t270 -119q152 -112 152 -314z" />
    <glyph glyph-name="sacute" unicode="&#x15b;" horiz-adv-x="794" 
d="M705 1450l-396 -233l-69 114l395 238zM739 322q0 -154 -95 -251t-252 -97t-256 96q-99 98 -99 260h149q0 -100 58 -158t147 -59q88 0 141 55q54 55 54 138t-44 124t-168 90q-124 50 -152 64t-60 47q-84 77 -84 207t90 220t227 89q137 0 227 -85t89 -218h-154
q0 78 -44 121t-116 43q-73 0 -119 -47t-47 -115q0 -96 103 -148q41 -20 211 -90q194 -81 194 -286z" />
    <glyph glyph-name="Scircumflex" unicode="&#x15c;" horiz-adv-x="1019" 
d="M877 1616h-183l-176 151l-180 -151h-186l297 258h135zM975 431q0 -202 -130 -330t-331 -128t-330 123t-139 328h162q16 -150 101 -230t214 -81q129 0 214 85t85 213q1 129 -71 195t-235 115t-216 75q-204 100 -205 337q0 175 119 291t303 116t303 -114t119 -296h-158
q0 121 -77 196t-191 75t-190 -75q-74 -76 -74 -190t71 -175q47 -41 234 -97t270 -119q152 -112 152 -314z" />
    <glyph glyph-name="scircumflex" unicode="&#x15d;" horiz-adv-x="794" 
d="M758 1243h-183l-176 152l-180 -152h-186l297 258h135zM739 322q0 -154 -95 -251t-252 -97t-256 96q-99 98 -99 260h149q0 -100 58 -158t147 -59q88 0 141 55q54 55 54 138t-44 124t-168 90q-124 50 -152 64t-60 47q-84 77 -84 207t90 220t227 89q137 0 227 -85t89 -218
h-154q0 78 -44 121t-116 43q-73 0 -119 -47t-47 -115q0 -96 103 -148q41 -20 211 -90q194 -81 194 -286z" />
    <glyph glyph-name="Scedilla" unicode="&#x15e;" horiz-adv-x="1019" 
d="M975 432q0 -200 -126 -328t-321 -131l-22 -71q43 10 67 10q85 0 143 -54t58 -146t-62 -158q-62 -68 -152 -68q-169 0 -210 174l109 12q20 -68 90 -67q43 -1 71 29t28 77t-30 77t-80 30t-89 -39l-66 39l66 159q-176 23 -286 142t-118 305h162q16 -150 101 -230t214 -81
q129 0 214 85t85 213q1 129 -71 195t-235 115t-216 75q-204 100 -205 337q0 175 119 291t303 116t303 -114t119 -296h-158q0 121 -77 196t-191 75t-190 -75q-74 -76 -74 -190t71 -175q47 -41 234 -97t270 -119q152 -113 152 -313z" />
    <glyph glyph-name="scedilla" unicode="&#x15f;" horiz-adv-x="794" 
d="M739 322q0 -150 -90 -246t-233 -103l-23 -71q43 10 68 10q84 0 142 -54q59 -54 59 -146t-62 -158q-62 -68 -152 -68q-170 0 -210 174l108 12q20 -68 90 -67q43 -1 71 29t28 77t-29 77t-80 30t-90 -39l-66 39l66 159q-137 19 -218 113t-81 240h149q0 -100 58 -158t147 -59
q88 0 141 55q54 55 54 138t-44 124t-168 90q-124 50 -152 64t-60 47q-84 77 -84 207t90 220t227 89q137 0 227 -85t89 -218h-154q0 78 -44 121t-116 43q-73 0 -119 -47t-47 -115q0 -96 103 -148q41 -20 211 -90q194 -81 194 -286z" />
    <glyph glyph-name="Scaron" unicode="&#x160;" horiz-adv-x="1019" 
d="M877 1874l-297 -258h-136l-292 258h182l176 -152l180 152h187zM975 431q0 -202 -130 -330t-331 -128t-330 123t-139 328h162q16 -150 101 -230t214 -81q129 0 214 85t85 213q1 129 -71 195t-235 115t-216 75q-204 100 -205 337q0 175 119 291t303 116t303 -114t119 -296
h-158q0 121 -77 196t-191 75t-190 -75q-74 -76 -74 -190t71 -175q47 -41 234 -97t270 -119q152 -112 152 -314z" />
    <glyph glyph-name="scaron" unicode="&#x161;" horiz-adv-x="794" 
d="M758 1501l-297 -258h-135l-293 258h182l176 -151l180 151h187zM739 322q0 -154 -95 -251t-252 -97t-256 96q-99 98 -99 260h149q0 -100 58 -158t147 -59q88 0 141 55q54 55 54 138t-44 124t-168 90q-124 50 -152 64t-60 47q-84 77 -84 207t90 220t227 89q137 0 227 -85
t89 -218h-154q0 78 -44 121t-116 43q-73 0 -119 -47t-47 -115q0 -96 103 -148q41 -20 211 -90q194 -81 194 -286z" />
    <glyph glyph-name="Tcedilla" unicode="&#x162;" horiz-adv-x="872" 
d="M858 1376h-346v-1376h-37l-31 -98q43 10 68 10q84 0 142 -54t58 -146t-62 -158q-62 -68 -152 -68q-170 0 -209 174l108 12q20 -68 90 -67q43 -1 71 29t28 77t-29 77t-80 30t-90 -39l-65 39l73 182h-35v1376h-346v137h844v-137z" />
    <glyph glyph-name="tcedilla" unicode="&#x163;" horiz-adv-x="694" 
d="M670 983h-252v-983h-25l-31 -98q43 10 68 10q84 0 142 -54t58 -146t-62 -158q-62 -68 -152 -68q-170 0 -209 174l108 12q20 -68 91 -67q42 -1 70 29t28 77t-29 77t-80 30t-90 -39l-65 39l73 182h-47v983h-241v137h241v393h152v-393h252v-137z" />
    <glyph glyph-name="Tcaron" unicode="&#x164;" horiz-adv-x="872" 
d="M799 1874l-297 -258h-135l-293 258h182l176 -152l180 152h187zM858 1376h-346v-1376h-152v1376h-346v137h844v-137z" />
    <glyph glyph-name="tcaron" unicode="&#x165;" horiz-adv-x="694" 
d="M733 1538l-98 -352h-152l99 352h151zM670 983h-252v-983h-152v983h-241v137h241v393h152v-393h252v-137z" />
    <glyph glyph-name="Utilde" unicode="&#x168;" 
d="M568 1714q-32 0 -48 -7t-78 -58l-67 94q78 100 190 100q17 0 103 -32t116 -31q55 0 117 63l68 -94q-25 -41 -80 -71t-103 -30t-139 46q-47 20 -79 20zM1186 569q0 -299 -138 -447t-377 -148t-377 148t-138 447v944h151v-944q0 -457 365 -456q362 0 362 456v944h152v-944z
" />
    <glyph glyph-name="utilde" unicode="&#x169;" horiz-adv-x="1245" 
d="M738 1276q-48 0 -140 45q-47 20 -79 20t-48 -7t-78 -58l-67 94q78 100 190 100q18 0 104 -32t115 -31q55 0 117 63l68 -94q-25 -40 -80 -70q-54 -30 -102 -30zM1116 0h-151v174q-109 -201 -361 -201q-475 0 -475 543v604h152v-604q0 -403 335 -403q162 0 255 106t94 326
v575h151v-1120z" />
    <glyph glyph-name="Umacron" unicode="&#x16a;" 
d="M1016 1679h-690v131h690v-131zM1186 569q0 -299 -138 -447t-377 -148t-377 148t-138 447v944h151v-944q0 -457 365 -456q362 0 362 456v944h152v-944z" />
    <glyph glyph-name="umacron" unicode="&#x16b;" horiz-adv-x="1245" 
d="M967 1307h-691v131h691v-131zM1116 0h-151v174q-109 -201 -361 -201q-475 0 -475 543v604h152v-604q0 -403 335 -403q162 0 255 106t94 326v575h151v-1120z" />
    <glyph glyph-name="Ubreve" unicode="&#x16c;" 
d="M672 1622q-266 0 -312 246h132q20 -127 180 -127t180 127h131q-25 -131 -102 -189q-78 -57 -209 -57zM1186 569q0 -299 -138 -447t-377 -148t-377 148t-138 447v944h151v-944q0 -457 365 -456q362 0 362 456v944h152v-944z" />
    <glyph glyph-name="ubreve" unicode="&#x16d;" horiz-adv-x="1245" 
d="M620 1368q160 0 181 127h131q-25 -131 -103 -188t-208 -58q-266 0 -312 246h131q20 -127 180 -127zM1116 0h-151v174q-109 -201 -361 -201q-475 0 -475 543v604h152v-604q0 -403 335 -403q162 0 255 106t94 326v575h151v-1120z" />
    <glyph glyph-name="Uring" unicode="&#x16e;" 
d="M786 1772q0 46 -34 80t-80 34q-47 0 -81 -34t-34 -82t34 -80t81 -33q47 0 81 34q33 34 33 81zM465 1771q0 87 60 147q61 60 147 60t146 -61t61 -146q-1 -85 -61 -145t-146 -61q-86 0 -147 60q-60 60 -60 146zM1186 569q0 -299 -138 -447t-377 -148t-377 148t-138 447v944
h151v-944q0 -457 365 -456q362 0 362 456v944h152v-944z" />
    <glyph glyph-name="uring" unicode="&#x16f;" horiz-adv-x="1245" 
d="M737 1393q0 47 -34 81q-35 34 -81 34t-80 -34t-34 -82t34 -81t81 -33t81 34t33 81zM829 1392q0 -86 -60 -146t-146 -60t-147 60q-60 60 -60 146t60 147q60 60 146 60t147 -61q60 -61 60 -146zM1116 0h-151v174q-109 -201 -361 -201q-475 0 -475 543v604h152v-604
q0 -403 335 -403q162 0 255 106t94 326v575h151v-1120z" />
    <glyph glyph-name="Uhungarumlaut" unicode="&#x170;" 
d="M1231 1839l-357 -248l-71 97l350 251zM829 1839l-356 -248l-72 97l351 251zM1186 569q0 -299 -138 -447t-377 -148t-377 148t-138 447v944h151v-944q0 -457 365 -456q362 0 362 456v944h152v-944z" />
    <glyph glyph-name="uhungarumlaut" unicode="&#x171;" horiz-adv-x="1245" 
d="M1182 1446l-357 -248l-71 96l350 252zM780 1446l-356 -248l-72 96l350 252zM1116 0h-151v174q-109 -201 -361 -201q-475 0 -475 543v604h152v-604q0 -403 335 -403q162 0 255 106t94 326v575h151v-1120z" />
    <glyph glyph-name="Uogonek" unicode="&#x172;" 
d="M1186 569q0 -416 -268 -544q-92 -43 -150 -117t-59 -164q-1 -43 27 -74q28 -30 71 -30t100 10v-154q-47 -8 -102 -8q-104 0 -176 76t-72 188t135 221h-22q-238 1 -376 149t-138 447v944h151v-944q0 -457 365 -456q362 0 362 456v944h152v-944z" />
    <glyph glyph-name="uogonek" unicode="&#x173;" horiz-adv-x="1245" 
d="M1040 -512q-104 0 -176 76t-71 180q0 135 172 256v174q-109 -201 -361 -201q-475 0 -475 543v604h152v-604q0 -403 335 -403q162 0 255 106t94 326v575h151v-1120q-172 -98 -172 -256q0 -43 28 -74q28 -30 70 -30t101 10v-154q-43 -8 -103 -8z" />
    <glyph glyph-name="Wcircumflex" unicode="&#x174;" horiz-adv-x="1966" 
d="M1346 1616h-183l-176 151l-180 -151h-186l297 258h135zM1946 1513l-435 -1513h-194l-336 1241l-332 -1241h-196l-433 1513h156l373 -1316l362 1316h144l362 -1316l373 1316h156z" />
    <glyph glyph-name="wcircumflex" unicode="&#x175;" horiz-adv-x="1701" 
d="M1212 1243h-182l-176 152l-180 -152h-187l297 258h136zM1688 1120l-435 -1120h-161l-244 743l-242 -743h-164l-428 1120h152l356 -938l264 801h125l265 -801l364 938h148z" />
    <glyph glyph-name="Ycircumflex" unicode="&#x176;" horiz-adv-x="1212" 
d="M967 1616h-183l-176 151l-180 -151h-186l297 258h135zM680 0h-152v506l-524 1007h168l430 -847l440 847h166l-528 -1007v-506z" />
    <glyph glyph-name="ycircumflex" unicode="&#x177;" horiz-adv-x="1097" 
d="M913 1243h-182l-176 152l-180 -152h-187l297 258h136zM1079 1120l-647 -1513h-162l183 430l-435 1083h166l355 -893l379 893h161z" />
    <glyph glyph-name="Ydieresis" unicode="&#x178;" horiz-adv-x="1212" 
d="M831 1616h-151v258h151v-258zM530 1616h-151v258h151v-258zM680 0h-152v506l-524 1007h168l430 -847l440 847h166l-528 -1007v-506z" />
    <glyph glyph-name="Zacute" unicode="&#x179;" horiz-adv-x="983" 
d="M813 1823l-395 -234l-70 115l395 238zM971 0h-936v137l743 1239h-721v137h891v-137l-741 -1239h764v-137z" />
    <glyph glyph-name="zacute" unicode="&#x17a;" horiz-adv-x="870" 
d="M735 1450l-395 -233l-70 114l396 238zM850 0h-830v137l619 846h-598v137h770v-129l-612 -854h651v-137z" />
    <glyph glyph-name="Zdotaccent" unicode="&#x17b;" horiz-adv-x="983" 
d="M580 1616h-152v258h152v-258zM971 0h-936v137l743 1239h-721v137h891v-137l-741 -1239h764v-137z" />
    <glyph glyph-name="zdotaccent" unicode="&#x17c;" horiz-adv-x="870" 
d="M502 1243h-152v258h152v-258zM850 0h-830v137l619 846h-598v137h770v-129l-612 -854h651v-137z" />
    <glyph glyph-name="Zcaron" unicode="&#x17d;" horiz-adv-x="983" 
d="M866 1874l-297 -258h-135l-293 258h183l176 -152l180 152h186zM971 0h-936v137l743 1239h-721v137h891v-137l-741 -1239h764v-137z" />
    <glyph glyph-name="zcaron" unicode="&#x17e;" horiz-adv-x="870" 
d="M788 1501l-296 -258h-136l-293 258h183l176 -151l180 151h186zM850 0h-830v137l619 846h-598v137h770v-129l-612 -854h651v-137z" />
    <glyph glyph-name="longs" unicode="&#x17f;" horiz-adv-x="643" 
d="M358 0h-151v983h-174v137h174q-6 393 430 393v-137q-156 -2 -218 -59t-61 -197v-1120z" />
    <glyph glyph-name="Ereversed" unicode="&#x18e;" horiz-adv-x="1097" 
d="M983 0h-827v137h675v559h-653v138h653v542h-675v137h827v-1513z" />
    <glyph glyph-name="florin" unicode="&#x192;" horiz-adv-x="1134" 
d="M1051 1538q-180 0 -240 -295l-8 -47h229l-24 -137h-230l-164 -883q-34 -176 -64 -253t-89 -130q-119 -106 -305 -106q-70 0 -119 14l24 131q63 -8 99 -8q141 0 207 75t106 289l164 871h-231l26 137h227l9 47q41 215 144 324t247 108q16 0 59 -6l-22 -135q-23 4 -45 4z
" />
    <glyph glyph-name="Ohorn" unicode="&#x1a0;" horiz-adv-x="1779" 
d="M1536 756q0 264 -190 454t-454 190t-456 -188q-192 -190 -192 -454t189 -454t455 -191q266 0 458 189q190 190 190 454zM1690 756q0 -322 -236 -552t-566 -230t-564 230q-234 232 -234 554t238 552t566 230t566 -237q92 84 92 210h131q0 -201 -135 -315
q142 -202 142 -442z" />
    <glyph glyph-name="ohorn" unicode="&#x1a1;" horiz-adv-x="1384" 
d="M240 560q0 -194 125 -320t312 -127q187 1 306 125t119 318t-122 323t-307 129t-309 -127t-124 -321zM1339 1120q0 -197 -133 -315q49 -119 49 -248q1 -252 -161 -418t-415 -166t-423 168t-170 420t169 419t419 167q143 0 263 -58t198 -161q74 78 73 192h131z" />
    <glyph glyph-name="Uhorn" unicode="&#x1af;" horiz-adv-x="1445" 
d="M1409 1513q0 -260 -223 -376v-568q0 -268 -107 -409q-69 -88 -177 -137t-232 -49t-233 48q-108 50 -175 138q-106 141 -106 409v944h151v-944q0 -207 70 -313q43 -66 122 -104t172 -39q93 0 172 39t122 104q70 106 69 313v944h152v-213q92 84 92 213h131z" />
    <glyph glyph-name="uhorn" unicode="&#x1b0;" horiz-adv-x="1384" 
d="M1346 1120q0 -264 -230 -379v-741h-151v174q-109 -201 -364 -201t-384 179q-88 121 -88 364v604h152v-604q0 -174 46 -252q89 -151 279 -151t291 139q68 100 68 293v575h151v-219q98 84 98 219h132z" />
    <glyph glyph-name="Acaron" unicode="&#x1cd;" horiz-adv-x="1515" 
d="M1120 1874l-297 -258h-135l-293 258h183l176 -152l180 152h186zM1049 647l-291 694l-297 -694h588zM1493 0h-166l-219 510h-705l-221 -510h-159l649 1513h170z" />
    <glyph glyph-name="acaron" unicode="&#x1ce;" horiz-adv-x="1398" 
d="M1038 1501l-297 -258h-135l-293 258h183l176 -151l180 151h186zM1118 563q0 189 -127 317t-310 128t-312 -129t-129 -317t129 -318t314 -131q185 0 310 131t125 319zM1270 0h-152v197q-90 -121 -189 -172t-243 -52q-258 0 -429 167t-171 418t169 420t421 169
q283 0 442 -225v198h152v-1120z" />
    <glyph glyph-name="Icaron" unicode="&#x1cf;" horiz-adv-x="462" 
d="M594 1874l-297 -258h-135l-293 258h182l176 -152l181 152h186zM307 0h-151v1513h151v-1513z" />
    <glyph glyph-name="icaron" unicode="&#x1d0;" horiz-adv-x="409" 
d="M567 1501l-297 -258h-135l-293 258h183l176 -151l180 151h186zM281 0h-152v1120h152v-1120z" />
    <glyph glyph-name="Ocaron" unicode="&#x1d1;" horiz-adv-x="1779" 
d="M1253 1874l-297 -258h-135l-293 258h183l176 -152l180 152h186zM1536 756q0 264 -190 454t-454 190t-456 -188q-192 -190 -192 -454t189 -454t455 -191q266 0 458 189q190 190 190 454zM894 1540q328 0 562 -230t234 -553t-236 -553t-566 -230t-564 230
q-234 232 -234 554t238 552t566 230z" />
    <glyph glyph-name="ocaron" unicode="&#x1d2;" 
d="M1036 1501l-297 -258h-135l-293 258h183l176 -151l180 151h186zM240 560q0 -194 125 -320t312 -127q187 1 306 125t119 318t-122 323t-307 129t-309 -127t-124 -321zM675 1147q251 0 415 -167t165 -421t-161 -420t-415 -166t-423 168t-170 420t169 419t420 167z" />
    <glyph glyph-name="Ucaron" unicode="&#x1d3;" 
d="M1034 1874l-297 -258h-135l-293 258h183l176 -152l180 152h186zM1186 569q0 -299 -138 -447t-377 -148t-377 148t-138 447v944h151v-944q0 -457 365 -456q362 0 362 456v944h152v-944z" />
    <glyph glyph-name="ucaron" unicode="&#x1d4;" horiz-adv-x="1245" 
d="M985 1501l-297 -258h-135l-293 258h182l176 -151l181 151h186zM1116 0h-151v174q-109 -201 -361 -201q-475 0 -475 543v604h152v-604q0 -403 335 -403q162 0 255 106t94 326v575h151v-1120z" />
    <glyph glyph-name="Udieresisacute" unicode="&#x1d7;" 
d="M981 2183l-395 -233l-70 114l395 238zM897 1616h-152v258h152v-258zM596 1616h-152v258h152v-258zM1186 569q0 -299 -138 -447t-377 -148t-377 148t-138 447v944h151v-944q0 -457 365 -456q362 0 362 456v944h152v-944z" />
    <glyph glyph-name="udieresisacute" unicode="&#x1d8;" horiz-adv-x="1245" 
d="M932 1843l-395 -233l-70 114l395 238zM848 1243h-152v258h152v-258zM547 1243h-152v258h152v-258zM1116 0h-151v174q-109 -201 -361 -201q-475 0 -475 543v604h152v-604q0 -403 335 -403q162 0 255 106t94 326v575h151v-1120z" />
    <glyph glyph-name="Udieresiscaron" unicode="&#x1d9;" 
d="M1034 2234l-297 -258h-135l-293 258h183l176 -151l180 151h186zM897 1616h-152v258h152v-258zM596 1616h-152v258h152v-258zM1186 569q0 -299 -138 -447t-377 -148t-377 148t-138 447v944h151v-944q0 -457 365 -456q362 0 362 456v944h152v-944z" />
    <glyph glyph-name="udieresiscaron" unicode="&#x1da;" horiz-adv-x="1245" 
d="M985 1894l-297 -258h-135l-293 258h182l176 -151l181 151h186zM848 1243h-152v258h152v-258zM547 1243h-152v258h152v-258zM1116 0h-151v174q-109 -201 -361 -201q-475 0 -475 543v604h152v-604q0 -403 335 -403q162 0 255 106t94 326v575h151v-1120z" />
    <glyph glyph-name="Udieresisgrave" unicode="&#x1db;" 
d="M825 2064l-69 -114l-396 233l70 119zM897 1616h-152v258h152v-258zM596 1616h-152v258h152v-258zM1186 569q0 -299 -138 -447t-377 -148t-377 148t-138 447v944h151v-944q0 -457 365 -456q362 0 362 456v944h152v-944z" />
    <glyph glyph-name="udieresisgrave" unicode="&#x1dc;" horiz-adv-x="1245" 
d="M778 1724l-69 -114l-396 233l70 119zM848 1243h-152v258h152v-258zM547 1243h-152v258h152v-258zM1116 0h-151v174q-109 -201 -361 -201q-475 0 -475 543v604h152v-604q0 -403 335 -403q162 0 255 106t94 326v575h151v-1120z" />
    <glyph glyph-name="eturned" unicode="&#x1dd;" horiz-adv-x="1331" 
d="M670 113q162 0 278 99t148 261h-858q38 -168 154 -264t278 -96zM1251 557q0 -246 -169 -415q-170 -169 -418 -169t-413 173t-165 464h1014q-8 166 -136 282t-300 116q-127 0 -236 -71t-156 -185h-157q55 166 208 280t336 115q250 0 421 -172t171 -418z" />
    <glyph glyph-name="Gcaron" unicode="&#x1e6;" horiz-adv-x="1785" 
d="M1255 1874l-297 -258h-135l-293 258h183l176 -152l180 152h186zM901 -27q-335 -1 -573 227t-238 558t232 556t571 226q249 0 445 -119t272 -311h-170q-78 137 -218 214t-317 77q-281 -1 -471 -187t-190 -457t192 -458q193 -186 471 -186q219 0 395 132q175 132 218 316
h-846v137h1028q-18 -295 -242 -510t-559 -215z" />
    <glyph glyph-name="gcaron" unicode="&#x1e7;" horiz-adv-x="1378" 
d="M1022 1501l-297 -258h-135l-293 258h182l176 -151l181 151h186zM1098 566q0 190 -125 316t-308 126t-305 -124t-120 -318q0 -194 122 -324t306 -129q184 -1 307 131t123 322zM1249 201q1 -164 -23 -263t-81 -178q-152 -201 -455 -200q-211 0 -356 104t-207 301h147
q84 -150 176 -208t236 -58q203 0 307 116t105 337v75q-129 -254 -428 -254q-246 0 -415 168t-169 418t164 419t422 169t426 -225v198h151v-919z" />
    <glyph glyph-name="Oogonek" unicode="&#x1ea;" horiz-adv-x="1779" 
d="M1536 756q0 264 -190 454t-454 190t-456 -188q-192 -190 -192 -454t189 -454t455 -191q266 0 458 189q190 190 190 454zM1690 756q0 -238 -136 -434t-354 -287q-262 -106 -262 -291q0 -43 28 -74q28 -30 70 -30t101 10v-154q-47 -8 -103 -8q-104 0 -176 76t-72 188
t136 221h-31q-334 -1 -567 231q-234 232 -234 554t238 552t566 230t562 -230t234 -554z" />
    <glyph glyph-name="oogonek" unicode="&#x1eb;" 
d="M240 560q0 -194 125 -320t312 -127q187 1 306 125t119 318t-122 323t-307 129t-309 -127t-124 -321zM1255 557q-1 -162 -71 -293t-193 -207q-78 -49 -125 -86t-89 -98t-42 -117t28 -86q29 -30 71 -30t100 10v-154q-47 -8 -103 -8q-104 0 -176 76q-71 76 -71 188t137 221
h-35q-260 0 -430 168t-170 420t169 419t420 167t415 -167t165 -423z" />
    <glyph glyph-name="jcaron" unicode="&#x1f0;" horiz-adv-x="415" 
d="M573 1501l-297 -258h-135l-293 258h183l176 -151l180 151h186zM287 78q0 -240 -93 -352t-286 -119v145q127 8 177 80t50 246v1042h152v-1042z" />
    <glyph glyph-name="Gacute" unicode="&#x1f4;" horiz-adv-x="1785" 
d="M1202 1823l-395 -234l-70 115l396 238zM901 -27q-335 -1 -573 227t-238 558t232 556t571 226q249 0 445 -119t272 -311h-170q-78 137 -218 214t-317 77q-281 -1 -471 -187t-190 -457t192 -458q193 -186 471 -186q219 0 395 132q175 132 218 316h-846v137h1028
q-18 -295 -242 -510t-559 -215z" />
    <glyph glyph-name="gacute" unicode="&#x1f5;" horiz-adv-x="1378" 
d="M969 1450l-396 -233l-69 114l395 238zM1098 566q0 190 -125 316t-308 126t-305 -124t-120 -318q0 -194 122 -324t306 -129q184 -1 307 131t123 322zM1249 201q1 -164 -23 -263t-81 -178q-152 -201 -455 -200q-211 0 -356 104t-207 301h147q84 -150 176 -208t236 -58
q203 0 307 116t105 337v75q-129 -254 -428 -254q-246 0 -415 168t-169 418t164 419t422 169t426 -225v198h151v-919z" />
    <glyph glyph-name="Aringacute" unicode="&#x1fa;" horiz-adv-x="1515" 
d="M872 1772q0 46 -34 80t-80 34q-47 0 -81 -34t-34 -82t34 -80t81 -33q47 0 81 34q33 34 33 81zM551 1771q0 87 60 147q61 60 147 60t146 -61t61 -146q-1 -85 -61 -145t-146 -61q-86 0 -147 60q-60 60 -60 146zM1067 2253l-395 -234l-70 115l395 238zM1049 647l-291 694
l-297 -694h588zM1493 0h-166l-219 510h-705l-221 -510h-159l649 1513h170z" />
    <glyph glyph-name="aringacute" unicode="&#x1fb;" horiz-adv-x="1398" 
d="M791 1378q0 47 -34 81t-81 34t-81 -34t-34 -82t34 -81q34 -32 81 -32t81 34t34 80zM883 1377q-1 -85 -61 -145t-146 -60t-146 60t-61 146q0 86 60 146q61 60 147 61t146 -61t61 -147zM985 1860l-395 -234l-70 115l395 237zM1118 563q0 189 -127 317t-310 128t-312 -129
t-129 -317t129 -318t314 -131q185 0 310 131t125 319zM1270 0h-152v197q-90 -121 -189 -172t-243 -52q-258 0 -429 167t-171 418t169 420t421 169q283 0 442 -225v198h152v-1120z" />
    <glyph glyph-name="AEacute" unicode="&#x1fc;" horiz-adv-x="2031" 
d="M1497 1823l-395 -234l-70 115l395 238zM1112 649v670l-459 -670h459zM1917 0h-805v512h-555l-354 -512h-180l1046 1513h848v-137h-653v-542h630v-138h-630v-559h653v-137z" />
    <glyph glyph-name="aeacute" unicode="&#x1fd;" horiz-adv-x="2369" 
d="M1495 1450l-395 -233l-70 114l395 238zM1126 564q0 192 -126 318t-316 126t-316 -128t-126 -318t127 -319q127 -130 313 -130t315 130q129 129 129 321zM2142 643q-31 166 -148 265q-118 100 -284 100t-285 -102t-143 -263h860zM2290 506h-1014q14 -168 141 -281
t301 -112q129 0 235 68q105 69 152 184h158q-59 -176 -209 -284t-336 -108q-266 0 -450 215v-188h-146v188q-94 -114 -199 -164t-245 -51q-252 0 -422 168t-170 415t168 419t422 172q285 0 446 -221v194h146v-194q176 221 434 221t423 -168t165 -473z" />
    <glyph glyph-name="Oslashacute" unicode="&#x1fe;" horiz-adv-x="1777" 
d="M1198 1823l-395 -234l-70 115l395 238zM1534 760q0 272 -203 469l-770 -1030q164 -86 332 -86q268 0 455 187q186 188 186 460zM881 1401q-269 1 -453 -189t-184 -463t205 -466l770 1030q-145 88 -338 88zM1688 774q0 -342 -230 -571t-563 -230q-229 0 -418 113
l-192 -256l-115 84l190 254q-270 225 -270 590q0 330 229 556t564 226q252 0 420 -115l192 256l111 -86l-189 -252q271 -227 271 -569z" />
    <glyph glyph-name="oslashacute" unicode="&#x1ff;" horiz-adv-x="1337" 
d="M979 1450l-395 -233l-70 114l395 238zM662 113q192 1 314 129t122 316t-101 314l-551 -710q109 -49 216 -49zM240 545q0 -156 100 -297l549 710q-98 49 -215 50q-184 0 -309 -134t-125 -329zM1251 568q-1 -255 -163 -425t-416 -170q-150 0 -307 84l-107 -137l-108 82
l104 137q-92 105 -130 201t-38 217q0 246 171 418t415 172q164 0 299 -84l116 154l109 -87l-115 -151q170 -156 170 -411z" />
    <glyph glyph-name="Adblgrave" unicode="&#x200;" horiz-adv-x="1515" 
d="M627 1688l-72 -97l-356 248l77 100zM1028 1688l-72 -97l-356 248l78 100zM1049 647l-291 694l-297 -694h588zM1493 0h-166l-219 510h-705l-221 -510h-159l649 1513h170z" />
    <glyph glyph-name="adblgrave" unicode="&#x201;" horiz-adv-x="1398" 
d="M545 1294l-72 -96l-356 248l78 100zM946 1294l-72 -96l-356 248l78 100zM1118 563q0 189 -127 317t-310 128t-312 -129t-129 -317t129 -318t314 -131q185 0 310 131t125 319zM1270 0h-152v197q-90 -121 -189 -172t-243 -52q-258 0 -429 167t-171 418t169 420t421 169
q283 0 442 -225v198h152v-1120z" />
    <glyph glyph-name="Edblgrave" unicode="&#x204;" horiz-adv-x="1097" 
d="M438 1688l-71 -97l-357 248l78 100zM840 1688l-72 -97l-356 248l77 100zM983 0h-827v1513h827v-137h-676v-542h654v-138h-654v-559h676v-137z" />
    <glyph glyph-name="edblgrave" unicode="&#x205;" horiz-adv-x="1331" 
d="M537 1294l-72 -96l-356 248l77 100zM938 1294l-72 -96l-356 248l78 100zM1100 647q-39 168 -155 264q-115 97 -277 97t-279 -100t-147 -261h858zM1251 510h-1013q8 -166 136 -282t300 -115q128 1 236 71t155 185h158q-55 -166 -208 -281t-337 -115q-248 0 -420 171
t-172 418t169 416t418 169t413 -173t165 -464z" />
    <glyph glyph-name="Idblgrave" unicode="&#x208;" horiz-adv-x="462" 
d="M100 1688l-71 -97l-357 248l78 100zM502 1688l-72 -97l-356 248l78 100zM307 0h-151v1513h151v-1513z" />
    <glyph glyph-name="idblgrave" unicode="&#x209;" horiz-adv-x="409" 
d="M74 1294l-72 -96l-356 248l78 100zM475 1294l-72 -96l-356 248l78 100zM281 0h-152v1120h152v-1120z" />
    <glyph glyph-name="Odblgrave" unicode="&#x20c;" horiz-adv-x="1779" 
d="M760 1688l-72 -97l-356 248l78 100zM1161 1688l-71 -97l-357 248l78 100zM1536 756q0 264 -190 454t-454 190t-456 -188q-192 -190 -192 -454t189 -454t455 -191q266 0 458 189q190 190 190 454zM894 1540q328 0 562 -230t234 -553t-236 -553t-566 -230t-564 230
q-234 232 -234 554t238 552t566 230z" />
    <glyph glyph-name="odblgrave" unicode="&#x20d;" 
d="M543 1294l-72 -96l-356 248l78 100zM944 1294l-72 -96l-356 248l78 100zM240 560q0 -194 125 -320t312 -127q187 1 306 125t119 318t-122 323t-307 129t-309 -127t-124 -321zM675 1147q251 0 415 -167t165 -421t-161 -420t-415 -166t-423 168t-170 420t169 419t420 167z
" />
    <glyph glyph-name="Rdblgrave" unicode="&#x210;" horiz-adv-x="1243" 
d="M492 1688l-72 -97l-357 248l78 100zM893 1688l-72 -97l-356 248l78 100zM1182 1026q0 -202 -115 -320t-332 -141l424 -565h-188l-510 686q323 0 445 73t122 266t-120 272t-388 79h-213v-1376h-151v1513h374q346 1 499 -121t153 -366z" />
    <glyph glyph-name="rdblgrave" unicode="&#x211;" horiz-adv-x="616" 
d="M150 1294l-72 -96l-357 248l78 100zM551 1294l-72 -96l-356 248l78 100zM281 653v-653h-152v1120h152v-159q45 92 120 136q76 44 197 50v-150q-317 -31 -317 -344z" />
    <glyph glyph-name="Udblgrave" unicode="&#x214;" 
d="M541 1688l-72 -97l-356 248l77 100zM942 1688l-72 -97l-356 248l78 100zM1186 569q0 -299 -138 -447t-377 -148t-377 148t-138 447v944h151v-944q0 -457 365 -456q362 0 362 456v944h152v-944z" />
    <glyph glyph-name="udblgrave" unicode="&#x215;" horiz-adv-x="1245" 
d="M492 1294l-72 -96l-357 248l78 100zM893 1294l-72 -96l-356 248l78 100zM1116 0h-151v174q-109 -201 -361 -201q-475 0 -475 543v604h152v-604q0 -403 335 -403q162 0 255 106t94 326v575h151v-1120z" />
    <glyph glyph-name="uni0218" unicode="&#x218;" horiz-adv-x="1019" 
d="M612 -109l-98 -352h-152l99 352h151zM975 431q0 -202 -130 -330t-331 -128t-330 123t-139 328h162q16 -150 101 -230t214 -81q129 0 214 85t85 213q1 129 -71 195t-235 115t-216 75q-204 100 -205 337q0 175 119 291t303 116t303 -114t119 -296h-158q0 121 -77 196
t-191 75t-190 -75q-74 -76 -74 -190t71 -175q47 -41 234 -97t270 -119q152 -112 152 -314z" />
    <glyph glyph-name="uni0219" unicode="&#x219;" horiz-adv-x="794" 
d="M494 -109l-99 -352h-151l98 352h152zM739 322q0 -154 -95 -251t-252 -97t-256 96q-99 98 -99 260h149q0 -100 58 -158t147 -59q88 0 141 55q54 55 54 138t-44 124t-168 90q-124 50 -152 64t-60 47q-84 77 -84 207t90 220t227 89q137 0 227 -85t89 -218h-154q0 78 -44 121
t-116 43q-73 0 -119 -47t-47 -115q0 -96 103 -148q41 -20 211 -90q194 -81 194 -286z" />
    <glyph glyph-name="uni021A" unicode="&#x21a;" horiz-adv-x="872" 
d="M535 -109l-99 -352h-151l98 352h152zM858 1376h-346v-1376h-152v1376h-346v137h844v-137z" />
    <glyph glyph-name="uni021B" unicode="&#x21b;" horiz-adv-x="694" 
d="M440 -109l-98 -352h-152l99 352h151zM670 983h-252v-983h-152v983h-241v137h241v393h152v-393h252v-137z" />
    <glyph glyph-name="uni0237" unicode="&#x237;" horiz-adv-x="415" 
d="M287 78q0 -240 -93 -352t-286 -119v145q127 8 177 80t50 246v1042h152v-1042z" />
    <glyph glyph-name="ereversed" unicode="&#x258;" horiz-adv-x="1331" 
d="M1096 647q-31 162 -148 261q-116 100 -278 100t-278 -96t-154 -265h858zM665 1147q249 0 417 -169t169 -416q0 -247 -171 -418t-421 -171q-185 0 -337 115t-207 281h157q47 -115 156 -186t236 -70q172 -1 300 115t136 282h-1014q0 291 165 464t414 173z" />
    <glyph glyph-name="schwa" unicode="&#x259;" horiz-adv-x="1331" 
d="M670 113q162 0 278 99t148 261h-858q38 -168 154 -264t278 -96zM1251 557q0 -246 -169 -415q-170 -169 -418 -169t-413 173t-165 464h1014q-8 166 -136 282t-300 116q-127 0 -236 -71t-156 -185h-157q55 166 208 280t336 115q250 0 421 -172t171 -418z" />
    <glyph glyph-name="ringhalfright" unicode="&#x2be;" horiz-adv-x="1062" 
d="M934 1059q0 -172 -121 -291t-295 -119q-133 0 -237 69t-150 187v2q-2 2 -2 4q0 16 16 17h115q6 0 14 -8q82 -143 244 -144q119 0 200 82t81 200t-83 200t-212 81q-129 0 -232 -137q-2 -6 -12 -6h-115q-16 0 -16 16q0 4 2 7q129 248 379 247q180 0 302 -118t122 -289z" />
    <glyph glyph-name="ringhalfleft" unicode="&#x2bf;" horiz-adv-x="1062" 
d="M934 903q0 -4 -2 -6q-129 -248 -379 -248q-180 0 -302 118t-122 290t121 291t295 118q133 0 237 -68t150 -188q0 -2 1 -12t-15 -10h-115q-6 0 -15 8q-82 143 -243 143q-119 0 -200 -82q-81 -81 -81 -199t83 -200t212 -82t232 137q4 6 12 7h115q16 -1 16 -17z" />
    <glyph glyph-name="circumflex" unicode="&#x2c6;" horiz-adv-x="1028" 
d="M877 1243h-183l-176 152l-180 -152h-186l297 258h135z" />
    <glyph glyph-name="caron" unicode="&#x2c7;" horiz-adv-x="1028" 
d="M877 1501l-297 -258h-136l-292 258h182l176 -151l180 151h187z" />
    <glyph glyph-name="breve" unicode="&#x2d8;" horiz-adv-x="927" 
d="M463 1368q160 0 180 127h131q-24 -131 -102 -188t-209 -58q-266 0 -311 246h131q20 -127 180 -127z" />
    <glyph glyph-name="dotaccent" unicode="&#x2d9;" horiz-adv-x="454" 
d="M303 1243h-151v258h151v-258z" />
    <glyph glyph-name="ring" unicode="&#x2da;" horiz-adv-x="679" 
d="M455 1393q0 47 -34 81t-81 34t-81 -34t-34 -82t34 -81t81 -33t81 34t34 81zM340 1599q86 0 146 -61t61 -146q-1 -86 -61 -146t-146 -60t-146 60t-60 146t60 147q60 60 146 60z" />
    <glyph glyph-name="ogonek" unicode="&#x2db;" horiz-adv-x="618" 
d="M375 -512q-104 0 -176 76t-72 180q0 135 172 256h152q-172 -98 -172 -256q-1 -43 27 -74q28 -30 71 -30t100 10v-154q-43 -8 -102 -8z" />
    <glyph glyph-name="tilde" unicode="&#x2dc;" horiz-adv-x="899" 
d="M566 1276q-48 0 -140 45q-47 20 -79 20t-48 -7t-78 -58l-67 94q78 100 190 100q18 0 103 -32t116 -31q55 0 117 63l68 -94q-25 -40 -80 -70q-54 -30 -102 -30z" />
    <glyph glyph-name="hungarumlaut" unicode="&#x2dd;" horiz-adv-x="1130" 
d="M1124 1446l-356 -248l-72 96l351 252zM723 1446l-356 -248l-72 96l350 252z" />
    <glyph glyph-name="uni0300" unicode="&#x300;" horiz-adv-x="0" 
d="M-545 1331l-69 -114l-396 233l70 119z" />
    <glyph glyph-name="uni0301" unicode="&#x301;" horiz-adv-x="0" 
d="M-389 1450l-395 -233l-70 114l395 238z" />
    <glyph glyph-name="uni0302" unicode="&#x302;" horiz-adv-x="0" 
d="M-336 1243h-182l-176 152l-180 -152h-187l297 258h135z" />
    <glyph glyph-name="uni0303" unicode="&#x303;" horiz-adv-x="0" 
d="M-584 1276q-48 0 -139 45q-47 20 -79 20t-48 -7t-78 -58l-67 94q78 100 190 100q17 0 103 -32t116 -31q55 0 117 63l68 -94q-25 -40 -80 -70t-103 -30z" />
    <glyph glyph-name="uni0304" unicode="&#x304;" horiz-adv-x="0" 
d="M-354 1307h-690v131h690v-131z" />
    <glyph glyph-name="uni0306" unicode="&#x306;" horiz-adv-x="0" 
d="M-700 1368q160 0 180 127h131q-25 -131 -103 -188t-208 -58q-266 0 -312 246h131q21 -127 181 -127z" />
    <glyph glyph-name="uni0307" unicode="&#x307;" horiz-adv-x="0" 
d="M-623 1243h-151v258h151v-258z" />
    <glyph glyph-name="uni0308" unicode="&#x308;" horiz-adv-x="0" 
d="M-473 1243h-152v258h152v-258zM-774 1243h-152v258h152v-258z" />
    <glyph glyph-name="uni0309" unicode="&#x309;" horiz-adv-x="0" 
d="M-492 1451q0 -73 -79 -130q-68 -43 -70 -113h-109q2 113 91 183q57 41 57 65t-26 42t-76 18t-78 -35l-17 -74h-106q6 211 211 211q88 0 145 -47t57 -120z" />
    <glyph glyph-name="uni030A" unicode="&#x30a;" horiz-adv-x="0" 
d="M-584 1393q0 47 -33 81q-34 34 -81 34t-81 -34t-34 -82t34 -81t81 -33t81 34q33 34 33 81zM-492 1392q0 -86 -60 -146t-146 -60t-147 60q-60 60 -60 146t60 147q61 60 147 60t146 -61t60 -146z" />
    <glyph glyph-name="uni030B" unicode="&#x30b;" horiz-adv-x="0" 
d="M-139 1446l-357 -248l-71 96l350 252zM-541 1446l-356 -248l-72 96l351 252z" />
    <glyph glyph-name="uni030C" unicode="&#x30c;" horiz-adv-x="0" 
d="M-336 1501l-297 -258h-135l-293 258h182l177 -151l180 151h186z" />
    <glyph glyph-name="uni030F" unicode="&#x30f;" horiz-adv-x="0" 
d="M-829 1294l-72 -96l-356 248l77 100zM-428 1294l-72 -96l-356 248l78 100z" />
    <glyph glyph-name="uni0311" unicode="&#x311;" horiz-adv-x="0" 
d="M-700 1376q-160 0 -181 -127h-131q25 131 103 189t209 57q266 0 311 -246h-131q-20 127 -180 127z" />
    <glyph glyph-name="uni0323" unicode="&#x323;" horiz-adv-x="0" 
d="M-623 -381h-151v258h151v-258z" />
    <glyph glyph-name="uni0326" unicode="&#x326;" horiz-adv-x="0" 
d="M-602 -109l-98 -352h-152l98 352h152z" />
    <glyph glyph-name="uni032E" unicode="&#x32e;" horiz-adv-x="0" 
d="M-698 -256q160 0 180 127h131q-25 -131 -103 -188t-208 -58q-266 0 -312 246h131q21 -127 181 -127z" />
    <glyph glyph-name="uni032F" unicode="&#x32f;" horiz-adv-x="0" 
d="M-698 -248q-160 0 -181 -127h-131q25 131 103 189t209 57q266 0 311 -246h-131q-20 127 -180 127z" />
    <glyph glyph-name="uni0330" unicode="&#x330;" horiz-adv-x="0" 
d="M-584 -348q-48 0 -139 45q-47 20 -79 20t-48 -7t-78 -58l-67 94q78 100 190 100q17 0 103 -32t116 -31q55 0 117 63l68 -94q-25 -40 -80 -70t-103 -30z" />
    <glyph glyph-name="uni0331" unicode="&#x331;" horiz-adv-x="0" 
d="M-354 -317h-690v131h690v-131z" />
    <glyph glyph-name="uni0332" unicode="&#x332;" horiz-adv-x="0" 
d="M-354 -317h-690v131h690v-131z" />
    <glyph glyph-name="Alpha" unicode="&#x391;" horiz-adv-x="1515" 
d="M1049 647l-291 694l-297 -694h588zM1493 0h-166l-219 510h-705l-221 -510h-159l649 1513h170z" />
    <glyph glyph-name="Beta" unicode="&#x392;" horiz-adv-x="1175" 
d="M874 1118q0 143 -80 201q-81 57 -305 57h-182v-514h185q214 0 298 56t84 200zM307 725v-588h207q238 1 342 65t105 220q0 156 -87 230q-87 73 -387 73h-180zM1114 434q0 -226 -136 -330t-448 -104h-374v1513h354q272 0 395 -97t123 -306t-168 -303q254 -103 254 -373z
" />
    <glyph glyph-name="Gamma" unicode="&#x393;" horiz-adv-x="993" 
d="M924 1376h-617v-1376h-151v1513h768v-137z" />
    <glyph glyph-name="Delta" unicode="&#x394;" horiz-adv-x="1320" 
d="M1079 154l-420 1017l-415 -1017h835zM1325 0h-1327l586 1393h151z" />
    <glyph glyph-name="Epsilon" unicode="&#x395;" horiz-adv-x="1097" 
d="M983 0h-827v1513h827v-137h-676v-542h654v-138h-654v-559h676v-137z" />
    <glyph glyph-name="Zeta" unicode="&#x396;" horiz-adv-x="983" 
d="M971 0h-936v137l743 1239h-721v137h891v-137l-741 -1239h764v-137z" />
    <glyph glyph-name="Eta" unicode="&#x397;" horiz-adv-x="1398" 
d="M1243 0h-151v711h-785v-711h-151v1513h151v-665h785v665h151v-1513z" />
    <glyph glyph-name="Theta" unicode="&#x398;" horiz-adv-x="1779" 
d="M1186 682h-592v152h592v-152zM1536 756q0 264 -190 454t-454 190t-456 -188q-192 -190 -192 -454t189 -454t455 -191q266 0 458 189q190 190 190 454zM894 1540q328 0 562 -230t234 -553t-236 -553t-566 -230t-564 230q-234 232 -234 554t238 552t566 230z" />
    <glyph glyph-name="Iota" unicode="&#x399;" horiz-adv-x="462" 
d="M307 0h-151v1513h151v-1513z" />
    <glyph glyph-name="Kappa" unicode="&#x39a;" horiz-adv-x="1210" 
d="M307 0h-151v1513h151v-870l701 870h190l-598 -737l598 -776h-190l-504 655l-197 -241v-414z" />
    <glyph glyph-name="Lambda" unicode="&#x39b;" horiz-adv-x="1515" 
d="M1493 0h-166l-569 1341l-576 -1341h-159l649 1513h170z" />
    <glyph glyph-name="Mu" unicode="&#x39c;" horiz-adv-x="1882" 
d="M1726 0h-151v1348l-569 -1348h-132l-567 1348v-1348h-151v1513h235l551 -1288l549 1288h235v-1513z" />
    <glyph glyph-name="Nu" unicode="&#x39d;" horiz-adv-x="1515" 
d="M1360 0h-152l-901 1331v-1331h-151v1513h204l848 -1255v1255h152v-1513z" />
    <glyph glyph-name="Xi" unicode="&#x39e;" horiz-adv-x="1398" 
d="M1323 0h-1247v152h1247v-152zM1171 682h-944v152h944v-152zM1323 1362h-1247v151h1247v-151z" />
    <glyph glyph-name="Omicron" unicode="&#x39f;" horiz-adv-x="1779" 
d="M1536 756q0 264 -190 454t-454 190t-456 -188q-192 -190 -192 -454t189 -454t455 -191q266 0 458 189q190 190 190 454zM894 1540q328 0 562 -230t234 -553t-236 -553t-566 -230t-564 230q-234 232 -234 554t238 552t566 230z" />
    <glyph glyph-name="Pi" unicode="&#x3a0;" horiz-adv-x="1302" 
d="M1247 0h-170v1241h-780v-1241h-170v1393h1120v-1393z" />
    <glyph glyph-name="Rho" unicode="&#x3a1;" horiz-adv-x="1212" 
d="M522 1376h-215v-626h281q224 0 320 70t96 235q0 164 -84 245q-64 61 -235 72q-60 4 -163 4zM573 1513q309 0 447 -109q138 -108 137 -340q0 -232 -130 -342t-429 -110h-291v-612h-151v1513h417z" />
    <glyph glyph-name="Sigma" unicode="&#x3a3;" horiz-adv-x="927" 
d="M907 0h-889l-2 139l349 570l-332 542v142h848v-152h-654l330 -532l-342 -557h692v-152z" />
    <glyph glyph-name="Tau" unicode="&#x3a4;" horiz-adv-x="872" 
d="M858 1376h-346v-1376h-152v1376h-346v137h844v-137z" />
    <glyph glyph-name="Upsilon" unicode="&#x3a5;" horiz-adv-x="1212" 
d="M680 0h-152v506l-524 1007h168l430 -847l440 847h166l-528 -1007v-506z" />
    <glyph glyph-name="Phi" unicode="&#x3a6;" horiz-adv-x="1656" 
d="M1376 757q0 144 -134 217t-337 83v-600q203 10 337 83t134 217zM281 757q0 -144 134 -217t339 -83l-2 600q-203 -10 -337 -83t-134 -217zM1528 757q0 -202 -180 -319t-445 -133l2 -305h-151v305q-264 16 -445 133q-180 117 -180 319q0 203 180 319t445 132v305h151v-305
q263 -16 443 -132t180 -319z" />
    <glyph glyph-name="Chi" unicode="&#x3a7;" horiz-adv-x="1247" 
d="M1231 0h-178l-428 647l-430 -647h-179l514 774l-485 739h178l402 -606l399 606h176l-485 -739z" />
    <glyph glyph-name="Psi" unicode="&#x3a8;" horiz-adv-x="1628" 
d="M1499 1120q0 -248 -176 -427t-434 -206l2 -487h-152v487q-258 27 -434 206t-176 427v393h152v-393q0 -186 132 -320t326 -159v872h152v-872q193 25 325 159t132 320v393h151v-393z" />
    <glyph glyph-name="Omega" unicode="&#x3a9;" horiz-adv-x="1632" 
d="M1462 152v-156h-475v160q176 51 294 199t120 355t-175 375t-410 168q-234 0 -408 -168t-172 -397q4 -188 123 -335q120 -146 294 -197v-160h-481v156h168q-117 74 -193 224t-77 312q-6 293 219 509t528 216q195 0 369 -97q174 -98 280 -264t101 -345q-4 -179 -77 -331
t-187 -224h159z" />
    <glyph glyph-name="alpha" unicode="&#x3b1;" horiz-adv-x="1458" 
d="M672 995q-168 0 -280 -136t-112 -314t114 -299t278 -121q137 0 206 124t105 294q-10 188 -90 320t-221 132zM1319 125v-152q-203 0 -285 260q-139 -260 -363 -260t-383 166t-159 407t156 421t387 180q129 0 228 -77t161 -208q43 154 96 258h172q-106 -199 -192 -592
q13 -249 50 -318q17 -34 51 -60t81 -25z" />
    <glyph glyph-name="beta" unicode="&#x3b2;" horiz-adv-x="991" 
d="M510 119q96 0 148 91t53 220t-105 219t-250 90v140q133 0 231 72q97 73 97 183t-46 185q-46 76 -136 76t-156 -82t-65 -193v-915q92 -86 229 -86zM862 426q0 -184 -97 -322t-255 -137q-121 0 -229 64v-31q0 -229 -52 -442h-155q55 231 55 442v1120q0 174 110 300t262 126
t243 -121t92 -286q0 -103 -58 -191t-151 -139q109 -61 172 -163t63 -220z" />
    <glyph glyph-name="gamma" unicode="&#x3b3;" horiz-adv-x="976" 
d="M625 -350h-152v350q0 311 -135 601t-371 519h217q328 -319 414 -809l342 809h164l-479 -1136v-334z" />
    <glyph glyph-name="delta" unicode="&#x3b4;" horiz-adv-x="1427" 
d="M283 560q0 -194 125 -320t312 -127q187 1 306 125t119 318t-122 323t-307 129t-309 -127t-124 -321zM1298 557q0 -252 -162 -418t-414 -166q-253 0 -423 168q-170 169 -170 411t146 404t370 187l-373 254l39 125h805v-138h-584q283 -164 535 -346q109 -80 170 -204
t61 -277z" />
    <glyph glyph-name="epsilon" unicode="&#x3b5;" horiz-adv-x="1169" 
d="M129 358q0 180 190 256q-163 78 -163 234t133 247t313 91q238 0 494 -115l-58 -125q-197 88 -436 88q-121 0 -208 -46t-87 -136t86 -126q45 -20 86 -32q74 -22 355 -22v-135q-288 -1 -352 -17t-111 -34q-92 -34 -90 -119q-1 -125 111 -202t263 -77q233 0 410 84l57 -123
q-236 -113 -458 -113t-378 122q-156 120 -157 300z" />
    <glyph glyph-name="zeta" unicode="&#x3b6;" horiz-adv-x="868" 
d="M739 1376h-53q-193 -141 -299 -357t-106 -489t79 -345q37 -34 97 -33h51q98 0 160 -86t63 -203v-213h-135v213q0 55 -24 96t-64 41h-51q-113 0 -190 85q-138 152 -138 476q0 229 91 441t255 374h-346v137h610v-137z" />
    <glyph glyph-name="eta" unicode="&#x3b7;" horiz-adv-x="1249" 
d="M1120 -410h-151v998q0 420 -346 420q-160 0 -251 -96t-91 -296v-616h-152v1120h152v-145q141 172 361 172t349 -138t129 -421v-998z" />
    <glyph glyph-name="theta" unicode="&#x3b8;" horiz-adv-x="1114" 
d="M557 125q80 0 136 44q96 75 126 291q13 84 15 197h-553q7 -383 140 -488q56 -44 136 -44zM834 809q-7 427 -134 532q-57 47 -143 47q-172 1 -227 -185q-45 -152 -49 -394h553zM898 1280q87 -229 87 -538t-93 -526q-48 -112 -134 -178t-201 -65q-115 0 -201 66
q-153 117 -204 418q-23 129 -23 281q0 313 87 542q46 120 133 190t208 70t208 -70t133 -190z" />
    <glyph glyph-name="iota" unicode="&#x3b9;" horiz-adv-x="665" 
d="M537 -35q-141 0 -210 141t-69 343v671h152v-671q0 -254 54 -306q28 -27 73 -26v-152z" />
    <glyph glyph-name="kappa" unicode="&#x3ba;" horiz-adv-x="1028" 
d="M281 0h-152v1120h152v-680l522 680h186l-436 -563l465 -557h-189l-372 449l-176 -218v-231z" />
    <glyph glyph-name="lambda" unicode="&#x3bb;" horiz-adv-x="1247" 
d="M332 1376v152q147 0 256 -110t162 -275l368 -1143h-160l-260 807l-401 -807h-168l504 1014l-27 84q-40 122 -108 200t-166 78z" />
    <glyph glyph-name="mu.greek" unicode="&#x3bc;" horiz-adv-x="1245" 
d="M1116 0h-151v188q-131 -203 -342 -200q-211 -2 -342 200v-538h-152v1470h152v-569q31 -184 115 -298t226 -114q144 0 228 114t115 298v569h151v-1120z" />
    <glyph glyph-name="nu" unicode="&#x3bd;" horiz-adv-x="1009" 
d="M881 731q1 -213 -103 -417t-291 -339l-116 43l-310 1102h158l264 -948q119 112 183 262t63 319q0 169 -27 367h152q27 -177 27 -389z" />
    <glyph glyph-name="xi" unicode="&#x3be;" horiz-adv-x="808" 
d="M348 838q-192 106 -192 322q0 114 80 216h-107v137h551v-137h-234q-63 -20 -101 -86t-38 -158t88 -158q88 -65 209 -65v-137q-133 0 -228 -92t-95 -221q0 -307 143 -307h45q94 0 148 -86t55 -203v-213h-135v213q0 137 -68 137h-45q-141 0 -218 135t-77 324q0 117 59 217
t160 162z" />
    <glyph glyph-name="omicron" unicode="&#x3bf;" 
d="M240 560q0 -194 125 -320t312 -127q187 1 306 125t119 318t-122 323t-307 129t-309 -127t-124 -321zM675 1147q251 0 415 -167t165 -421t-161 -420t-415 -166t-423 168t-170 420t169 419t420 167z" />
    <glyph glyph-name="pi" unicode="&#x3c0;" horiz-adv-x="1507" 
d="M1378 969h-274v-969h-152v969h-303v-969h-151v969h-27q-82 0 -136 -66t-54 -155h-152q0 152 99 262t243 110h907v-151z" />
    <glyph glyph-name="rho" unicode="&#x3c1;" horiz-adv-x="1241" 
d="M621 125q150 0 245 130t95 305q1 175 -95 305t-246 130t-244 -130q-95 -130 -95 -304v-266q53 -82 144 -126t196 -44zM1112 560q0 -239 -139 -413t-341 -174t-351 133v-456h-152v911q0 238 139 412q138 174 352 174t353 -174t139 -413z" />
    <glyph glyph-name="uni03C2" unicode="&#x3c2;" horiz-adv-x="1107" 
d="M971 -350h-135v213q0 59 -52 98t-118 39h-76q-203 0 -332 170t-129 403t129 403t332 171q141 0 250 -95t131 -237l-135 -22q-14 88 -84 145t-162 57q-141 0 -225 -125t-84 -297t84 -297t225 -124h76q125 0 215 -84t90 -205v-213z" />
    <glyph glyph-name="sigma" unicode="&#x3c3;" horiz-adv-x="1490" 
d="M283 560q0 -194 125 -320t312 -127q187 1 306 125t119 318t-122 323t-307 129t-309 -127t-124 -321zM1298 557q0 -252 -162 -418t-414 -166q-253 0 -423 168t-170 420t169 419t419 167q61 0 121 -12q240 16 557 86l32 -148q-168 -37 -342 -49q213 -170 213 -467z" />
    <glyph glyph-name="tau" unicode="&#x3c4;" horiz-adv-x="980" 
d="M852 -14q-182 0 -309 136t-127 327v520h-287v151h723v-151h-287l2 -520q0 -127 82 -219t203 -93v-151z" />
    <glyph glyph-name="upsilon" unicode="&#x3c5;" horiz-adv-x="1107" 
d="M979 512q0 -219 -128 -379t-323 -160q-166 0 -282 118t-117 282v747h152v-747q1 -102 73 -175t174 -73q131 0 215 116t84 271q0 307 -55 608h156q51 -295 51 -608z" />
    <glyph glyph-name="phi" unicode="&#x3c6;" horiz-adv-x="1441" 
d="M1161 561q0 261 -41 341q-18 38 -54 66t-78 28q-79 -1 -118 -51q-38 -49 -49 -100q-10 -50 -15 -81q-9 -56 -9 -166v-467q156 27 260 147t104 283zM1313 561q-1 -223 -149 -389t-367 -195v-327h-152v327q-219 29 -369 195t-149 389q0 168 77 320t214 252l88 -123
q-106 -78 -166 -197t-61 -267q0 -148 104 -268t262 -147v381q0 257 67 431q36 95 104 150q68 54 174 54t185 -90t109 -216t29 -280z" />
    <glyph glyph-name="chi" unicode="&#x3c7;" horiz-adv-x="1148" 
d="M1020 -350h-168l-279 563l-276 -563h-168l360 735l-360 735h168l278 -563l277 563h168l-361 -735z" />
    <glyph glyph-name="psi" unicode="&#x3c8;" horiz-adv-x="1441" 
d="M1313 373q-1 -171 -149 -275t-365 -123v-325h-152v325q-219 17 -367 121t-149 277v747h152v-747q0 -115 102 -174t260 -72l2 1386h152v-1386q158 11 260 71t102 175v747h152v-747z" />
    <glyph glyph-name="omega" unicode="&#x3c9;" horiz-adv-x="1472" 
d="M1343 627q1 -203 -29 -334t-110 -225t-203 -95q-186 0 -268 195q-86 -195 -262 -195q-123 1 -203 95t-109 225q-30 131 -30 334t57 493h140q-45 -228 -45 -500t19 -328q18 -56 38 -94q38 -72 133 -73q115 0 158 120q33 96 39 261q-6 80 -6 242h151v-109q0 -143 7 -197
q7 -55 19 -125t42 -117t58 -61q27 -14 67 -14q90 0 130 79t48 165q8 87 8 217q0 307 -45 534h139q57 -290 57 -493z" />
    <glyph glyph-name="uni03D1" unicode="&#x3d1;" horiz-adv-x="1183" 
d="M827 1120q0 131 -77 229q-78 97 -188 97t-187 -71q-76 -71 -76 -171q0 -134 163 -186q136 -43 365 -51v153zM1055 827h-76v-378q0 -195 -122 -335t-302 -140t-303 140t-123 335v299h152v-299q0 -131 77 -228q78 -96 196 -96t196 96t77 228v382q-371 13 -530 118
q-133 90 -133 252q0 161 115 271t285 109q170 0 292 -136q123 -136 123 -325v-155h76v-138z" />
    <glyph glyph-name="uni03D5" unicode="&#x3d5;" 
d="M240 562q0 -171 98 -292t258 -149v880q-158 -27 -257 -147t-99 -292zM1102 556q0 173 -100 296t-254 149v-884q158 23 256 145t98 294zM1255 558q0 -236 -142 -398t-365 -185v-325h-152v330q-227 29 -369 191q-141 163 -141 392t144 390t366 190v370h152v-370
q223 -25 365 -187t142 -398z" />
    <glyph glyph-name="uni03D6" unicode="&#x3d6;" horiz-adv-x="1472" 
d="M1343 589q1 -165 -29 -296t-110 -225t-203 -95q-186 0 -268 195q-86 -195 -262 -195q-123 1 -203 95t-109 225q-30 131 -30 334t57 493h140q-45 -228 -45 -500t19 -328q18 -56 38 -94q38 -72 133 -73q115 0 158 120q33 96 39 261q-6 80 -6 242h151v-109q0 -143 7 -197
q7 -55 19 -125t42 -117t58 -61q27 -14 67 -14q90 0 130 79t48 165q8 87 8 224q0 282 -81 494q-42 111 -123 175t-191 63q-229 0 -445 -74l-43 131q240 78 488 78q137 0 245 -75t171 -200q130 -252 130 -596z" />
    <glyph glyph-name="uni03F1" unicode="&#x3f1;" horiz-adv-x="1427" 
d="M283 560q0 -194 125 -320t312 -127q187 1 306 125t119 318t-122 323t-307 129t-309 -127t-124 -321zM718 1147q252 0 416 -167t164 -421t-162 -420t-407 -166q-190 0 -334 93q92 -162 248 -226q104 -41 259 -56t272 -91t116 -205h-135q0 80 -77 114t-249 52t-241 47
q-231 94 -345 333t-114 533q0 246 169 413t420 167z" />
    <glyph glyph-name="uni03F5" unicode="&#x3f5;" horiz-adv-x="1325" 
d="M86 560q0 247 174 417t426 170q172 0 312 -82t216 -225h-182q-131 168 -348 168q-170 0 -293 -108t-147 -271h639v-137h-639q24 -162 150 -271t296 -108q199 0 344 168h183q-184 -307 -521 -308q-258 0 -434 170t-176 417z" />
    <glyph glyph-name="baht" unicode="&#xe3f;" horiz-adv-x="1175" 
d="M874 1118q0 143 -80 201q-81 57 -305 57h-182v-514h185q214 0 298 56t84 200zM307 725v-588h207q238 1 342 65t105 220q0 156 -87 230q-87 73 -387 73h-180zM1114 434q0 -205 -110 -308t-357 -122v-174h-112v170h-379v1513h379v170h112v-176q199 -25 290 -119t91 -268
q0 -219 -168 -313q254 -103 254 -373z" />
    <glyph glyph-name="Ddotbelow" unicode="&#x1e0c;" horiz-adv-x="1523" 
d="M686 -381h-151v258h151v-258zM1280 758q0 170 -72 306t-202 214q-162 98 -488 98h-211v-1239h211q201 0 328 32t217 103q217 177 217 486zM1434 752q0 -342 -222 -547t-649 -205h-407v1513h356q207 1 339 -27t239 -91q344 -203 344 -643z" />
    <glyph glyph-name="ddotbelow" unicode="&#x1e0d;" horiz-adv-x="1402" 
d="M778 -381h-151v258h151v-258zM1128 563q0 185 -132 315t-316 130t-312 -129t-128 -318t130 -319t316 -129q186 0 314 133t128 317zM1274 0h-152v203q-84 -121 -185 -175t-241 -55q-260 0 -435 168t-175 418t171 419t433 169t432 -205v571h152v-1513z" />
    <glyph glyph-name="Dlinebelow" unicode="&#x1e0e;" horiz-adv-x="1523" 
d="M956 -317h-690v131h690v-131zM1280 758q0 170 -72 306t-202 214q-162 98 -488 98h-211v-1239h211q201 0 328 32t217 103q217 177 217 486zM1434 752q0 -342 -222 -547t-649 -205h-407v1513h356q207 1 339 -27t239 -91q344 -203 344 -643z" />
    <glyph glyph-name="dlinebelow" unicode="&#x1e0f;" horiz-adv-x="1402" 
d="M1047 -317h-691v131h691v-131zM1128 563q0 185 -132 315t-316 130t-312 -129t-128 -318t130 -319t316 -129q186 0 314 133t128 317zM1274 0h-152v203q-84 -121 -185 -175t-241 -55q-260 0 -435 168t-175 418t171 419t433 169t432 -205v571h152v-1513z" />
    <glyph glyph-name="Hdotbelow" unicode="&#x1e24;" horiz-adv-x="1398" 
d="M776 -381h-151v258h151v-258zM1243 0h-151v711h-785v-711h-151v1513h151v-665h785v665h151v-1513z" />
    <glyph glyph-name="hdotbelow" unicode="&#x1e25;" horiz-adv-x="1249" 
d="M700 -381h-151v258h151v-258zM1120 0h-151v602q0 203 -93 304q-93 102 -250 102t-251 -98t-94 -296v-614h-152v1513h152v-538q119 172 350 172t360 -136t129 -409v-602z" />
    <glyph glyph-name="Hdieresis" unicode="&#x1e26;" horiz-adv-x="1398" 
d="M926 1616h-152v258h152v-258zM625 1616h-152v258h152v-258zM1243 0h-151v711h-785v-711h-151v1513h151v-665h785v665h151v-1513z" />
    <glyph glyph-name="hdieresis" unicode="&#x1e27;" horiz-adv-x="1249" 
d="M852 1616h-152v258h152v-258zM551 1616h-152v258h152v-258zM1120 0h-151v602q0 203 -93 304q-93 102 -250 102t-251 -98t-94 -296v-614h-152v1513h152v-538q119 172 350 172t360 -136t129 -409v-602z" />
    <glyph glyph-name="Hbrevebelow" unicode="&#x1e2a;" horiz-adv-x="1398" 
d="M700 -256q160 0 181 127h131q-25 -131 -103 -188t-209 -58q-266 0 -311 246h131q20 -127 180 -127zM1243 0h-151v711h-785v-711h-151v1513h151v-665h785v665h151v-1513z" />
    <glyph glyph-name="hbrevebelow" unicode="&#x1e2b;" horiz-adv-x="1249" 
d="M624 -256q160 0 181 127h131q-24 -131 -102 -188t-209 -58q-266 0 -312 246h131q20 -127 180 -127zM1120 0h-151v602q0 203 -93 304q-93 102 -250 102t-251 -98t-94 -296v-614h-152v1513h152v-538q119 172 350 172t360 -136t129 -409v-602z" />
    <glyph glyph-name="Idieresisacute" unicode="&#x1e2e;" horiz-adv-x="462" 
d="M541 2183l-396 -233l-69 114l395 238zM457 1616h-152v258h152v-258zM156 1616h-152v258h152v-258zM307 0h-151v1513h151v-1513z" />
    <glyph glyph-name="idieresisacute" unicode="&#x1e2f;" horiz-adv-x="409" 
d="M514 1843l-395 -233l-70 114l395 238zM430 1243h-151v258h151v-258zM129 1243h-152v258h152v-258zM281 0h-152v1120h152v-1120z" />
    <glyph glyph-name="Ldotbelow" unicode="&#x1e36;" horiz-adv-x="946" 
d="M621 -381h-152v258h152v-258zM934 0h-778v1513h151v-1376h627v-137z" />
    <glyph glyph-name="ldotbelow" unicode="&#x1e37;" horiz-adv-x="409" 
d="M281 -381h-152v258h152v-258zM281 0h-152v1513h152v-1513z" />
    <glyph glyph-name="Ldotbelowmacron" unicode="&#x1e38;" horiz-adv-x="946" 
d="M578 1679h-691v131h691v-131zM621 -381h-152v258h152v-258zM934 0h-778v1513h151v-1376h627v-137z" />
    <glyph glyph-name="ldotbelowmacron" unicode="&#x1e39;" horiz-adv-x="409" 
d="M551 1679h-690v131h690v-131zM281 -381h-152v258h152v-258zM281 0h-152v1513h152v-1513z" />
    <glyph glyph-name="Mdotbelow" unicode="&#x1e42;" horiz-adv-x="1882" 
d="M1018 -381h-152v258h152v-258zM1726 0h-151v1348l-569 -1348h-132l-567 1348v-1348h-151v1513h235l551 -1288l549 1288h235v-1513z" />
    <glyph glyph-name="mdotbelow" unicode="&#x1e43;" horiz-adv-x="1921" 
d="M1036 -381h-151v258h151v-258zM1792 0h-152v649q0 360 -297 361q-141 0 -224 -89t-83 -272v-649h-151v653q0 179 -83 267t-222 88q-140 0 -220 -94t-79 -261v-653h-152v1120h152v-129q63 84 136 120t189 36q232 0 357 -215q137 217 389 217q200 0 320 -124t120 -359v-666
z" />
    <glyph glyph-name="Ndotaccent" unicode="&#x1e44;" horiz-adv-x="1515" 
d="M834 1616h-152v258h152v-258zM1360 0h-152l-901 1331v-1331h-151v1513h204l848 -1255v1255h152v-1513z" />
    <glyph glyph-name="ndotaccent" unicode="&#x1e45;" horiz-adv-x="1249" 
d="M700 1243h-151v258h151v-258zM1120 0h-151v588q0 420 -346 420q-160 0 -251 -96t-91 -296v-616h-152v1120h152v-145q141 172 361 172t349 -138t129 -421v-588z" />
    <glyph glyph-name="Ndotbelow" unicode="&#x1e46;" horiz-adv-x="1515" 
d="M834 -381h-152v258h152v-258zM1360 0h-152l-901 1331v-1331h-151v1513h204l848 -1255v1255h152v-1513z" />
    <glyph glyph-name="ndotbelow" unicode="&#x1e47;" horiz-adv-x="1249" 
d="M700 -381h-151v258h151v-258zM1120 0h-151v588q0 420 -346 420q-160 0 -251 -96t-91 -296v-616h-152v1120h152v-145q141 172 361 172t349 -138t129 -421v-588z" />
    <glyph glyph-name="Rdotaccent" unicode="&#x1e58;" horiz-adv-x="1243" 
d="M698 1616h-151v258h151v-258zM1182 1026q0 -202 -115 -320t-332 -141l424 -565h-188l-510 686q323 0 445 73t122 266t-120 272t-388 79h-213v-1376h-151v1513h374q346 1 499 -121t153 -366z" />
    <glyph glyph-name="rdotaccent" unicode="&#x1e59;" horiz-adv-x="616" 
d="M356 1243h-151v258h151v-258zM281 653v-653h-152v1120h152v-159q45 92 120 136q76 44 197 50v-150q-317 -31 -317 -344z" />
    <glyph glyph-name="Rdotbelow" unicode="&#x1e5a;" horiz-adv-x="1243" 
d="M698 -381h-151v258h151v-258zM1182 1026q0 -202 -115 -320t-332 -141l424 -565h-188l-510 686q323 0 445 73t122 266t-120 272t-388 79h-213v-1376h-151v1513h374q346 1 499 -121t153 -366z" />
    <glyph glyph-name="rdotbelow" unicode="&#x1e5b;" horiz-adv-x="616" 
d="M281 -381h-152v258h152v-258zM281 653v-653h-152v1120h152v-159q45 92 120 136q76 44 197 50v-150q-317 -31 -317 -344z" />
    <glyph glyph-name="Rdotbelowmacron" unicode="&#x1e5c;" horiz-adv-x="1243" 
d="M967 1679h-691v131h691v-131zM698 -381h-151v258h151v-258zM1182 1026q0 -202 -115 -320t-332 -141l424 -565h-188l-510 686q323 0 445 73t122 266t-120 272t-388 79h-213v-1376h-151v1513h374q346 1 499 -121t153 -366z" />
    <glyph glyph-name="rdotbelowmacron" unicode="&#x1e5d;" horiz-adv-x="616" 
d="M625 1333h-691v131h691v-131zM281 -381h-152v258h152v-258zM281 653v-653h-152v1120h152v-159q45 92 120 136q76 44 197 50v-150q-317 -31 -317 -344z" />
    <glyph glyph-name="Sdotbelow" unicode="&#x1e62;" horiz-adv-x="1019" 
d="M590 -381h-152v258h152v-258zM975 431q0 -202 -130 -330t-331 -128t-330 123t-139 328h162q16 -150 101 -230t214 -81q129 0 214 85t85 213q1 129 -71 195t-235 115t-216 75q-204 100 -205 337q0 175 119 291t303 116t303 -114t119 -296h-158q0 121 -77 196t-191 75
t-190 -75q-74 -76 -74 -190t71 -175q47 -41 234 -97t270 -119q152 -112 152 -314z" />
    <glyph glyph-name="sdotbelow" unicode="&#x1e63;" horiz-adv-x="794" 
d="M471 -381h-152v258h152v-258zM739 322q0 -154 -95 -251t-252 -97t-256 96q-99 98 -99 260h149q0 -100 58 -158t147 -59q88 0 141 55q54 55 54 138t-44 124t-168 90q-124 50 -152 64t-60 47q-84 77 -84 207t90 220t227 89q137 0 227 -85t89 -218h-154q0 78 -44 121
t-116 43q-73 0 -119 -47t-47 -115q0 -96 103 -148q41 -20 211 -90q194 -81 194 -286z" />
    <glyph glyph-name="Tdotbelow" unicode="&#x1e6c;" horiz-adv-x="872" 
d="M512 -381h-152v258h152v-258zM858 1376h-346v-1376h-152v1376h-346v137h844v-137z" />
    <glyph glyph-name="tdotbelow" unicode="&#x1e6d;" horiz-adv-x="694" 
d="M418 -381h-152v258h152v-258zM670 983h-252v-983h-152v983h-241v137h241v393h152v-393h252v-137z" />
    <glyph glyph-name="Tlinebelow" unicode="&#x1e6e;" horiz-adv-x="872" 
d="M782 -317h-690v131h690v-131zM858 1376h-346v-1376h-152v1376h-346v137h844v-137z" />
    <glyph glyph-name="tlinebelow" unicode="&#x1e6f;" horiz-adv-x="694" 
d="M688 -317h-690v131h690v-131zM670 983h-252v-983h-152v983h-241v137h241v393h152v-393h252v-137z" />
    <glyph glyph-name="Wgrave" unicode="&#x1e80;" horiz-adv-x="1966" 
d="M1139 1704l-70 -115l-395 234l69 119zM1946 1513l-435 -1513h-194l-336 1241l-332 -1241h-196l-433 1513h156l373 -1316l362 1316h144l362 -1316l373 1316h156z" />
    <glyph glyph-name="wgrave" unicode="&#x1e81;" horiz-adv-x="1701" 
d="M1004 1331l-70 -114l-395 233l69 119zM1688 1120l-435 -1120h-161l-244 743l-242 -743h-164l-428 1120h152l356 -938l264 801h125l265 -801l364 938h148z" />
    <glyph glyph-name="Wacute" unicode="&#x1e82;" horiz-adv-x="1966" 
d="M1292 1823l-395 -234l-70 115l396 238zM1946 1513l-435 -1513h-194l-336 1241l-332 -1241h-196l-433 1513h156l373 -1316l362 1316h144l362 -1316l373 1316h156z" />
    <glyph glyph-name="wacute" unicode="&#x1e83;" horiz-adv-x="1701" 
d="M1159 1450l-395 -233l-70 114l396 238zM1688 1120l-435 -1120h-161l-244 743l-242 -743h-164l-428 1120h152l356 -938l264 801h125l265 -801l364 938h148z" />
    <glyph glyph-name="Wdieresis" unicode="&#x1e84;" horiz-adv-x="1966" 
d="M1210 1616h-151v258h151v-258zM909 1616h-151v258h151v-258zM1946 1513l-435 -1513h-194l-336 1241l-332 -1241h-196l-433 1513h156l373 -1316l362 1316h144l362 -1316l373 1316h156z" />
    <glyph glyph-name="wdieresis" unicode="&#x1e85;" horiz-adv-x="1701" 
d="M1075 1243h-151v258h151v-258zM774 1243h-151v258h151v-258zM1688 1120l-435 -1120h-161l-244 743l-242 -743h-164l-428 1120h152l356 -938l264 801h125l265 -801l364 938h148z" />
    <glyph glyph-name="Zdotbelow" unicode="&#x1e92;" horiz-adv-x="983" 
d="M580 -381h-152v258h152v-258zM971 0h-936v137l743 1239h-721v137h891v-137l-741 -1239h764v-137z" />
    <glyph glyph-name="zdotbelow" unicode="&#x1e93;" horiz-adv-x="870" 
d="M502 -381h-152v258h152v-258zM850 0h-830v137l619 846h-598v137h770v-129l-612 -854h651v-137z" />
    <glyph glyph-name="tdieresis" unicode="&#x1e97;" horiz-adv-x="694" 
d="M569 1616h-151v258h151v-258zM268 1616h-151v258h151v-258zM670 983h-252v-983h-152v983h-241v137h241v393h152v-393h252v-137z" />
    <glyph glyph-name="Adotbelow" unicode="&#x1ea0;" horiz-adv-x="1515" 
d="M834 -381h-152v258h152v-258zM1049 647l-291 694l-297 -694h588zM1493 0h-166l-219 510h-705l-221 -510h-159l649 1513h170z" />
    <glyph glyph-name="adotbelow" unicode="&#x1ea1;" horiz-adv-x="1398" 
d="M752 -381h-152v258h152v-258zM1118 563q0 189 -127 317t-310 128t-312 -129t-129 -317t129 -318t314 -131q185 0 310 131t125 319zM1270 0h-152v197q-90 -121 -189 -172t-243 -52q-258 0 -429 167t-171 418t169 420t421 169q283 0 442 -225v198h152v-1120z" />
    <glyph glyph-name="Ahookabove" unicode="&#x1ea2;" horiz-adv-x="1515" 
d="M762 2011q88 0 146 -47t57 -120q0 -73 -80 -130q-68 -43 -70 -112h-108q2 113 90 182q57 42 57 66t-26 41t-76 17t-78 -34l-17 -74h-106q6 211 211 211zM1049 647l-291 694l-297 -694h588zM1493 0h-166l-219 510h-705l-221 -510h-159l649 1513h170z" />
    <glyph glyph-name="ahookabove" unicode="&#x1ea3;" horiz-adv-x="1398" 
d="M680 1618q88 0 146 -47t57 -120q0 -73 -80 -130q-68 -43 -70 -113h-108q2 113 90 183q57 41 57 65t-26 42t-76 18t-78 -35l-17 -74h-106q6 211 211 211zM1118 563q0 189 -127 317t-310 128t-312 -129t-129 -317t129 -318t314 -131q185 0 310 131t125 319zM1270 0h-152
v197q-90 -121 -189 -172t-243 -52q-258 0 -429 167t-171 418t169 420t421 169q283 0 442 -225v198h152v-1120z" />
    <glyph glyph-name="Acircumflexacute" unicode="&#x1ea4;" horiz-adv-x="1515" 
d="M1120 1616h-182l-176 151l-180 -151h-187l297 258h135zM1067 2148l-395 -233l-70 115l395 237zM1049 647l-291 694l-297 -694h588zM1493 0h-166l-219 510h-705l-221 -510h-159l649 1513h170z" />
    <glyph glyph-name="acircumflexacute" unicode="&#x1ea5;" horiz-adv-x="1398" 
d="M1038 1223h-182l-176 151l-180 -151h-187l297 258h135zM985 1755l-395 -233l-70 114l395 238zM1118 563q0 189 -127 317t-310 128t-312 -129t-129 -317t129 -318t314 -131q185 0 310 131t125 319zM1270 0h-152v197q-90 -121 -189 -172t-243 -52q-258 0 -429 167t-171 418
t169 420t421 169q283 0 442 -225v198h152v-1120z" />
    <glyph glyph-name="Acircumflexgrave" unicode="&#x1ea6;" horiz-adv-x="1515" 
d="M1120 1616h-182l-176 151l-180 -151h-187l297 258h135zM913 2030l-69 -115l-395 233l69 119zM1049 647l-291 694l-297 -694h588zM1493 0h-166l-219 510h-705l-221 -510h-159l649 1513h170z" />
    <glyph glyph-name="acircumflexgrave" unicode="&#x1ea7;" horiz-adv-x="1398" 
d="M1038 1223h-182l-176 151l-180 -151h-187l297 258h135zM831 1636l-69 -114l-395 233l69 119zM1118 563q0 189 -127 317t-310 128t-312 -129t-129 -317t129 -318t314 -131q185 0 310 131t125 319zM1270 0h-152v197q-90 -121 -189 -172t-243 -52q-258 0 -429 167t-171 418
t169 420t421 169q283 0 442 -225v198h152v-1120z" />
    <glyph glyph-name="Acircumflexhookabove" unicode="&#x1ea8;" horiz-adv-x="1515" 
d="M1120 1616h-182l-176 151l-180 -151h-187l297 258h135zM1120 2182q0 -73 -80 -130q-68 -43 -69 -113h-109q2 113 90 183q58 42 58 66t-26 41t-76 17t-79 -34l-16 -74h-106q6 211 211 211q88 0 145 -47t57 -120zM1049 647l-291 694l-297 -694h588zM1493 0h-166l-219 510
h-705l-221 -510h-159l649 1513h170z" />
    <glyph glyph-name="acircumflexhookabove" unicode="&#x1ea9;" horiz-adv-x="1398" 
d="M1038 1223h-182l-176 151l-180 -151h-187l297 258h135zM1038 1789q0 -73 -80 -130q-68 -43 -69 -113h-109q2 113 90 183q58 41 58 65t-26 42q-26 17 -76 17t-78 -34l-17 -74h-106q6 211 211 211q88 0 145 -47t57 -120zM1118 563q0 189 -127 317t-310 128t-312 -129
t-129 -317t129 -318t314 -131q185 0 310 131t125 319zM1270 0h-152v197q-90 -121 -189 -172t-243 -52q-258 0 -429 167t-171 418t169 420t421 169q283 0 442 -225v198h152v-1120z" />
    <glyph glyph-name="Acircumflextilde" unicode="&#x1eaa;" horiz-adv-x="1515" 
d="M1120 1616h-182l-176 151l-180 -151h-187l297 258h135zM874 1935q-48 0 -139 45q-82 35 -130 12q-20 -10 -75 -57l-67 95q78 100 190 100q17 0 103 -32t116 -32q55 0 117 64l68 -94q-25 -41 -80 -71t-103 -30zM1049 647l-291 694l-297 -694h588zM1493 0h-166l-219 510
h-705l-221 -510h-159l649 1513h170z" />
    <glyph glyph-name="acircumflextilde" unicode="&#x1eab;" horiz-adv-x="1398" 
d="M1038 1223h-182l-176 151l-180 -151h-187l297 258h135zM792 1542q-48 0 -139 45q-83 36 -130 11q-19 -9 -74 -56l-68 94q78 100 190 101q17 0 103 -32t117 -32q55 0 116 64l68 -95q-25 -40 -80 -70t-103 -30zM1118 563q0 189 -127 317t-310 128t-312 -129t-129 -317
t129 -318t314 -131q185 0 310 131t125 319zM1270 0h-152v197q-90 -121 -189 -172t-243 -52q-258 0 -429 167t-171 418t169 420t421 169q283 0 442 -225v198h152v-1120z" />
    <glyph glyph-name="Acircumflexdotbelow" unicode="&#x1eac;" horiz-adv-x="1515" 
d="M834 -381h-152v258h152v-258zM1120 1616h-182l-176 151l-180 -151h-187l297 258h135zM1049 647l-291 694l-297 -694h588zM1493 0h-166l-219 510h-705l-221 -510h-159l649 1513h170z" />
    <glyph glyph-name="acircumflexdotbelow" unicode="&#x1ead;" horiz-adv-x="1398" 
d="M752 -381h-152v258h152v-258zM1038 1243h-182l-176 152l-180 -152h-187l297 258h135zM1118 563q0 189 -127 317t-310 128t-312 -129t-129 -317t129 -318t314 -131q185 0 310 131t125 319zM1270 0h-152v197q-90 -121 -189 -172t-243 -52q-258 0 -429 167t-171 418t169 420
t421 169q283 0 442 -225v198h152v-1120z" />
    <glyph glyph-name="Abreveacute" unicode="&#x1eae;" horiz-adv-x="1515" 
d="M758 1622q-266 0 -312 246h132q20 -127 180 -127t180 127h131q-25 -131 -102 -189q-78 -57 -209 -57zM1106 2167l-395 -234l-70 115l395 238zM1049 647l-291 694l-297 -694h588zM1493 0h-166l-219 510h-705l-221 -510h-159l649 1513h170z" />
    <glyph glyph-name="abreveacute" unicode="&#x1eaf;" horiz-adv-x="1398" 
d="M678 1229q-266 0 -311 246h131q20 -127 180 -127t180 127h131q-25 -131 -102 -189q-78 -57 -209 -57zM1026 1774l-395 -234l-70 115l395 237zM1118 563q0 189 -127 317t-310 128t-312 -129t-129 -317t129 -318t314 -131q185 0 310 131t125 319zM1270 0h-152v197
q-90 -121 -189 -172t-243 -52q-258 0 -429 167t-171 418t169 420t421 169q283 0 442 -225v198h152v-1120z" />
    <glyph glyph-name="Abrevegrave" unicode="&#x1eb0;" horiz-adv-x="1515" 
d="M758 1622q-266 0 -312 246h132q20 -127 180 -127t180 127h131q-25 -131 -102 -189q-78 -57 -209 -57zM870 2048l-69 -115l-395 234l69 119zM1049 647l-291 694l-297 -694h588zM1493 0h-166l-219 510h-705l-221 -510h-159l649 1513h170z" />
    <glyph glyph-name="abrevegrave" unicode="&#x1eb1;" horiz-adv-x="1398" 
d="M678 1229q-266 0 -311 246h131q20 -127 180 -127t180 127h131q-25 -131 -102 -189q-78 -57 -209 -57zM791 1655l-70 -115l-395 234l69 118zM1118 563q0 189 -127 317t-310 128t-312 -129t-129 -317t129 -318t314 -131q185 0 310 131t125 319zM1270 0h-152v197
q-90 -121 -189 -172t-243 -52q-258 0 -429 167t-171 418t169 420t421 169q283 0 442 -225v198h152v-1120z" />
    <glyph glyph-name="Abrevehookabove" unicode="&#x1eb2;" horiz-adv-x="1515" 
d="M758 1622q-266 0 -312 246h132q20 -127 180 -127t180 127h131q-25 -131 -102 -189q-78 -57 -209 -57zM762 2251q88 0 146 -47t57 -120q0 -73 -80 -130q-68 -43 -70 -113h-108q2 113 90 182q57 41 57 66t-26 42t-76 17t-78 -34l-17 -74h-106q6 211 211 211zM1049 647
l-291 694l-297 -694h588zM1493 0h-166l-219 510h-705l-221 -510h-159l649 1513h170z" />
    <glyph glyph-name="abrevehookabove" unicode="&#x1eb3;" horiz-adv-x="1398" 
d="M678 1229q-266 0 -311 246h131q20 -127 180 -127t180 127h131q-25 -131 -102 -189q-78 -57 -209 -57zM682 1858q88 0 146 -47t57 -120q0 -73 -80 -130q-68 -43 -70 -113h-108q2 113 90 182q57 41 57 66t-25 42q-26 17 -76 17t-79 -35l-16 -73h-107q6 211 211 211z
M1118 563q0 189 -127 317t-310 128t-312 -129t-129 -317t129 -318t314 -131q185 0 310 131t125 319zM1270 0h-152v197q-90 -121 -189 -172t-243 -52q-258 0 -429 167t-171 418t169 420t421 169q283 0 442 -225v198h152v-1120z" />
    <glyph glyph-name="Abrevetilde" unicode="&#x1eb4;" horiz-adv-x="1515" 
d="M758 1622q-266 0 -312 246h132q20 -127 180 -127t180 127h131q-25 -131 -102 -189q-78 -57 -209 -57zM654 2019q-32 0 -48 -7t-78 -58l-67 94q78 100 190 100q17 0 103 -32t116 -31q55 0 117 63l68 -94q-25 -41 -80 -71q-55 -29 -103 -29t-139 45q-47 20 -79 20z
M1049 647l-291 694l-297 -694h588zM1493 0h-166l-219 510h-705l-221 -510h-159l649 1513h170z" />
    <glyph glyph-name="abrevetilde" unicode="&#x1eb5;" horiz-adv-x="1398" 
d="M678 1229q-266 0 -311 246h131q20 -127 180 -127t180 127h131q-25 -131 -102 -189q-78 -57 -209 -57zM574 1626q-32 0 -51 -9t-74 -56l-68 94q78 100 190 100q17 0 103 -32t117 -31q55 0 116 63l68 -94q-25 -41 -80 -71t-103 -30t-139 46q-47 20 -79 20zM1118 563
q0 189 -127 317t-310 128t-312 -129t-129 -317t129 -318t314 -131q185 0 310 131t125 319zM1270 0h-152v197q-90 -121 -189 -172t-243 -52q-258 0 -429 167t-171 418t169 420t421 169q283 0 442 -225v198h152v-1120z" />
    <glyph glyph-name="Abrevedotbelow" unicode="&#x1eb6;" horiz-adv-x="1515" 
d="M834 -381h-152v258h152v-258zM758 1622q-266 0 -312 246h132q20 -127 180 -127t180 127h131q-25 -131 -102 -189q-78 -57 -209 -57zM1049 647l-291 694l-297 -694h588zM1493 0h-166l-219 510h-705l-221 -510h-159l649 1513h170z" />
    <glyph glyph-name="abrevedotbelow" unicode="&#x1eb7;" horiz-adv-x="1398" 
d="M752 -381h-152v258h152v-258zM674 1368q160 0 180 127h131q-25 -131 -103 -188t-208 -58q-266 0 -312 246h132q20 -127 180 -127zM1118 563q0 189 -127 317t-310 128t-312 -129t-129 -317t129 -318t314 -131q185 0 310 131t125 319zM1270 0h-152v197q-90 -121 -189 -172
t-243 -52q-258 0 -429 167t-171 418t169 420t421 169q283 0 442 -225v198h152v-1120z" />
    <glyph glyph-name="Edotbelow" unicode="&#x1eb8;" horiz-adv-x="1097" 
d="M625 -381h-152v258h152v-258zM983 0h-827v1513h827v-137h-676v-542h654v-138h-654v-559h676v-137z" />
    <glyph glyph-name="edotbelow" unicode="&#x1eb9;" horiz-adv-x="1331" 
d="M743 -381h-151v258h151v-258zM1100 647q-39 168 -155 264q-115 97 -277 97t-279 -100t-147 -261h858zM1251 510h-1013q8 -166 136 -282t300 -115q128 1 236 71t155 185h158q-55 -166 -208 -281t-337 -115q-248 0 -420 171t-172 418t169 416t418 169t413 -173t165 -464z
" />
    <glyph glyph-name="Ehookabove" unicode="&#x1eba;" horiz-adv-x="1097" 
d="M573 2011q87 0 145 -47t58 -120t-80 -130q-68 -43 -69 -112h-109q2 113 90 182q58 42 58 66t-26 41t-76 17t-79 -34l-16 -74h-107q6 211 211 211zM983 0h-827v1513h827v-137h-676v-542h654v-138h-654v-559h676v-137z" />
    <glyph glyph-name="ehookabove" unicode="&#x1ebb;" horiz-adv-x="1331" 
d="M874 1451q0 -73 -79 -130q-68 -43 -70 -113h-109q2 113 91 183q57 41 57 65t-26 42t-76 18t-78 -35l-17 -74h-106q6 211 211 211q88 0 145 -47t57 -120zM1100 647q-39 168 -155 264q-115 97 -277 97t-279 -100t-147 -261h858zM1251 510h-1013q8 -166 136 -282t300 -115
q128 1 236 71t155 185h158q-55 -166 -208 -281t-337 -115q-248 0 -420 171t-172 418t169 416t418 169t413 -173t165 -464z" />
    <glyph glyph-name="Etilde" unicode="&#x1ebc;" horiz-adv-x="1097" 
d="M468 1714q-32 0 -52 -10t-74 -55l-68 94q78 100 191 100q18 0 103 -32t116 -31q55 0 117 63l67 -94q-25 -41 -80 -71t-102 -30t-139 46q-47 20 -79 20zM983 0h-827v1513h827v-137h-676v-542h654v-138h-654v-559h676v-137z" />
    <glyph glyph-name="etilde" unicode="&#x1ebd;" horiz-adv-x="1331" 
d="M782 1276q-48 0 -139 45q-47 20 -79 20t-48 -7t-78 -58l-67 94q78 100 190 100q17 0 103 -32t116 -31q55 0 117 63l68 -94q-25 -40 -80 -70t-103 -30zM1100 647q-39 168 -155 264q-115 97 -277 97t-279 -100t-147 -261h858zM1251 510h-1013q8 -166 136 -282t300 -115
q128 1 236 71t155 185h158q-55 -166 -208 -281t-337 -115q-248 0 -420 171t-172 418t169 416t418 169t413 -173t165 -464z" />
    <glyph glyph-name="Ecircumflexacute" unicode="&#x1ebe;" horiz-adv-x="1097" 
d="M932 1616h-182l-177 151l-180 -151h-186l297 258h135zM879 2148l-396 -233l-69 115l395 237zM983 0h-827v1513h827v-137h-676v-542h654v-138h-654v-559h676v-137z" />
    <glyph glyph-name="ecircumflexacute" unicode="&#x1ebf;" horiz-adv-x="1331" 
d="M1030 1223h-182l-176 151l-180 -151h-187l297 258h135zM977 1755l-395 -233l-70 114l395 238zM1100 647q-39 168 -155 264q-115 97 -277 97t-279 -100t-147 -261h858zM1251 510h-1013q8 -166 136 -282t300 -115q128 1 236 71t155 185h158q-55 -166 -208 -281t-337 -115
q-248 0 -420 171t-172 418t169 416t418 169t413 -173t165 -464z" />
    <glyph glyph-name="Ecircumflexgrave" unicode="&#x1ec0;" horiz-adv-x="1097" 
d="M932 1616h-182l-177 151l-180 -151h-186l297 258h135zM725 2030l-70 -115l-395 233l70 119zM983 0h-827v1513h827v-137h-676v-542h654v-138h-654v-559h676v-137z" />
    <glyph glyph-name="ecircumflexgrave" unicode="&#x1ec1;" horiz-adv-x="1331" 
d="M1030 1223h-182l-176 151l-180 -151h-187l297 258h135zM823 1636l-69 -114l-396 233l70 119zM1100 647q-39 168 -155 264q-115 97 -277 97t-279 -100t-147 -261h858zM1251 510h-1013q8 -166 136 -282t300 -115q128 1 236 71t155 185h158q-55 -166 -208 -281t-337 -115
q-248 0 -420 171t-172 418t169 416t418 169t413 -173t165 -464z" />
    <glyph glyph-name="Ecircumflexhookabove" unicode="&#x1ec2;" horiz-adv-x="1097" 
d="M932 1616h-182l-177 151l-180 -151h-186l297 258h135zM729 2349q87 0 145 -47t58 -120t-80 -130q-68 -43 -70 -113h-108q2 113 90 183q57 42 57 66t-25 41q-26 17 -76 17t-79 -34l-16 -74h-107q6 211 211 211zM983 0h-827v1513h827v-137h-676v-542h654v-138h-654v-559
h676v-137z" />
    <glyph glyph-name="ecircumflexhookabove" unicode="&#x1ec3;" horiz-adv-x="1331" 
d="M1030 1223h-182l-176 151l-180 -151h-187l297 258h135zM827 1956q87 0 145 -47t58 -120t-80 -130q-68 -43 -69 -113h-109q2 113 90 183q58 41 58 65t-26 42q-26 17 -76 17t-79 -34l-16 -74h-107q6 211 211 211zM1100 647q-39 168 -155 264q-115 97 -277 97t-279 -100
t-147 -261h858zM1251 510h-1013q8 -166 136 -282t300 -115q128 1 236 71t155 185h158q-55 -166 -208 -281t-337 -115q-248 0 -420 171t-172 418t169 416t418 169t413 -173t165 -464z" />
    <glyph glyph-name="Ecircumflextilde" unicode="&#x1ec4;" horiz-adv-x="1097" 
d="M932 1616h-182l-177 151l-180 -151h-186l297 258h135zM686 1935q-47 0 -139 45q-82 35 -120 17t-85 -62l-68 95q78 100 191 100q18 0 103 -32t116 -32q55 0 117 64l67 -94q-25 -41 -80 -71t-102 -30zM983 0h-827v1513h827v-137h-676v-542h654v-138h-654v-559h676v-137z
" />
    <glyph glyph-name="ecircumflextilde" unicode="&#x1ec5;" horiz-adv-x="1331" 
d="M1030 1223h-182l-176 151l-180 -151h-187l297 258h135zM784 1542q-48 0 -139 45q-83 36 -130 11q-12 -6 -75 -56l-67 94q78 100 190 101q17 0 103 -32t116 -32q55 0 117 64l68 -95q-25 -40 -80 -70t-103 -30zM1100 647q-39 168 -155 264q-115 97 -277 97t-279 -100
t-147 -261h858zM1251 510h-1013q8 -166 136 -282t300 -115q128 1 236 71t155 185h158q-55 -166 -208 -281t-337 -115q-248 0 -420 171t-172 418t169 416t418 169t413 -173t165 -464z" />
    <glyph glyph-name="Ecircumflexdotbelow" unicode="&#x1ec6;" horiz-adv-x="1097" 
d="M625 -381h-152v258h152v-258zM932 1616h-182l-177 151l-180 -151h-186l297 258h135zM983 0h-827v1513h827v-137h-676v-542h654v-138h-654v-559h676v-137z" />
    <glyph glyph-name="ecircumflexdotbelow" unicode="&#x1ec7;" horiz-adv-x="1331" 
d="M743 -381h-151v258h151v-258zM1030 1243h-182l-176 152l-180 -152h-187l297 258h135zM1100 647q-39 168 -155 264q-115 97 -277 97t-279 -100t-147 -261h858zM1251 510h-1013q8 -166 136 -282t300 -115q128 1 236 71t155 185h158q-55 -166 -208 -281t-337 -115
q-248 0 -420 171t-172 418t169 416t418 169t413 -173t165 -464z" />
    <glyph glyph-name="Ihookabove" unicode="&#x1ec8;" horiz-adv-x="462" 
d="M438 1844q0 -73 -80 -130q-68 -43 -69 -112h-109q2 113 90 182q58 42 58 66t-26 41t-76 17t-79 -34l-16 -74h-106q6 211 211 211q88 0 145 -47t57 -120zM307 0h-151v1513h151v-1513z" />
    <glyph glyph-name="ihookabove" unicode="&#x1ec9;" horiz-adv-x="409" 
d="M209 1618q87 0 145 -47t58 -120t-80 -130q-68 -43 -70 -113h-108q2 113 90 183q57 41 57 65t-26 42q-25 18 -75 18t-79 -35l-17 -74h-106q6 211 211 211zM281 0h-152v1120h152v-1120z" />
    <glyph glyph-name="Idotbelow" unicode="&#x1eca;" horiz-adv-x="462" 
d="M307 -381h-151v258h151v-258zM307 0h-151v1513h151v-1513z" />
    <glyph glyph-name="idotbelow" unicode="&#x1ecb;" horiz-adv-x="409" 
d="M281 -381h-152v258h152v-258zM281 1243h-152v258h152v-258zM281 0h-152v1120h152v-1120z" />
    <glyph glyph-name="Odotbelow" unicode="&#x1ecc;" horiz-adv-x="1779" 
d="M967 -381h-152v258h152v-258zM1536 756q0 264 -190 454t-454 190t-456 -188q-192 -190 -192 -454t189 -454t455 -191q266 0 458 189q190 190 190 454zM894 1540q328 0 562 -230t234 -553t-236 -553t-566 -230t-564 230q-234 232 -234 554t238 552t566 230z" />
    <glyph glyph-name="odotbelow" unicode="&#x1ecd;" 
d="M750 -381h-152v258h152v-258zM240 560q0 -194 125 -320t312 -127q187 1 306 125t119 318t-122 323t-307 129t-309 -127t-124 -321zM675 1147q251 0 415 -167t165 -421t-161 -420t-415 -166t-423 168t-170 420t169 419t420 167z" />
    <glyph glyph-name="Ohookabove" unicode="&#x1ece;" horiz-adv-x="1779" 
d="M895 2011q87 0 145 -47t58 -120t-80 -130q-68 -43 -70 -112h-108q2 113 90 182q57 42 57 66t-25 41q-26 17 -76 17t-79 -34l-16 -74h-107q6 211 211 211zM1536 756q0 264 -190 454t-454 190t-456 -188q-192 -190 -192 -454t189 -454t455 -191q266 0 458 189
q190 190 190 454zM894 1540q328 0 562 -230t234 -553t-236 -553t-566 -230t-564 230q-234 232 -234 554t238 552t566 230z" />
    <glyph glyph-name="ohookabove" unicode="&#x1ecf;" 
d="M678 1618q88 0 146 -47t57 -120q0 -73 -80 -130q-68 -43 -70 -113h-108q2 113 90 183q57 41 57 65t-26 42t-76 18t-78 -35l-17 -74h-106q6 211 211 211zM240 560q0 -194 125 -320t312 -127q187 1 306 125t119 318t-122 323t-307 129t-309 -127t-124 -321zM675 1147
q251 0 415 -167t165 -421t-161 -420t-415 -166t-423 168t-170 420t169 419t420 167z" />
    <glyph glyph-name="Ocircumflexacute" unicode="&#x1ed0;" horiz-adv-x="1779" 
d="M1253 1616h-182l-176 151l-180 -151h-187l297 258h136zM1200 2148l-395 -233l-70 115l395 237zM1536 756q0 264 -190 454t-454 190t-456 -188q-192 -190 -192 -454t189 -454t455 -191q266 0 458 189q190 190 190 454zM894 1540q328 0 562 -230t234 -553t-236 -553
t-566 -230t-564 230q-234 232 -234 554t238 552t566 230z" />
    <glyph glyph-name="ocircumflexacute" unicode="&#x1ed1;" 
d="M1036 1223h-182l-176 151l-180 -151h-187l297 258h135zM983 1755l-395 -233l-70 114l395 238zM240 560q0 -194 125 -320t312 -127q187 1 306 125t119 318t-122 323t-307 129t-309 -127t-124 -321zM675 1147q251 0 415 -167t165 -421t-161 -420t-415 -166t-423 168
t-170 420t169 419t420 167z" />
    <glyph glyph-name="Ocircumflexgrave" unicode="&#x1ed2;" horiz-adv-x="1779" 
d="M1253 1616h-182l-176 151l-180 -151h-187l297 258h136zM1047 2030l-70 -115l-395 233l69 119zM1536 756q0 264 -190 454t-454 190t-456 -188q-192 -190 -192 -454t189 -454t455 -191q266 0 458 189q190 190 190 454zM894 1540q328 0 562 -230t234 -553t-236 -553
t-566 -230t-564 230q-234 232 -234 554t238 552t566 230z" />
    <glyph glyph-name="ocircumflexgrave" unicode="&#x1ed3;" 
d="M1036 1223h-182l-176 151l-180 -151h-187l297 258h135zM829 1636l-69 -114l-395 233l69 119zM240 560q0 -194 125 -320t312 -127q187 1 306 125t119 318t-122 323t-307 129t-309 -127t-124 -321zM675 1147q251 0 415 -167t165 -421t-161 -420t-415 -166t-423 168
t-170 420t169 419t420 167z" />
    <glyph glyph-name="Ocircumflexhookabove" unicode="&#x1ed4;" horiz-adv-x="1779" 
d="M1253 1616h-182l-176 151l-180 -151h-187l297 258h136zM1253 2182q0 -73 -79 -130q-68 -43 -70 -113h-109q2 113 90 183q57 42 57 66t-25 41t-75 17t-79 -34l-17 -74h-106q6 211 211 211q88 0 145 -47t57 -120zM1536 756q0 264 -190 454t-454 190t-456 -188
q-192 -190 -192 -454t189 -454t455 -191q266 0 458 189q190 190 190 454zM894 1540q328 0 562 -230t234 -553t-236 -553t-566 -230t-564 230q-234 232 -234 554t238 552t566 230z" />
    <glyph glyph-name="ocircumflexhookabove" unicode="&#x1ed5;" 
d="M1036 1223h-182l-176 151l-180 -151h-187l297 258h135zM1036 1789q0 -73 -80 -130q-68 -43 -69 -113h-109q2 113 90 183q58 41 58 65t-26 42q-26 17 -76 17t-79 -34l-16 -74h-106q6 211 211 211q88 0 145 -47t57 -120zM240 560q0 -194 125 -320t312 -127q187 1 306 125
t119 318t-122 323t-307 129t-309 -127t-124 -321zM675 1147q251 0 415 -167t165 -421t-161 -420t-415 -166t-423 168t-170 420t169 419t420 167z" />
    <glyph glyph-name="Ocircumflextilde" unicode="&#x1ed6;" horiz-adv-x="1779" 
d="M1253 1616h-182l-176 151l-180 -151h-187l297 258h136zM1008 1935q-47 0 -140 45q-82 35 -130 12q-26 -12 -74 -57l-68 95q78 100 190 100q18 0 104 -32t116 -32q55 0 116 64l68 -94q-25 -41 -80 -71t-102 -30zM1536 756q0 264 -190 454t-454 190t-456 -188
q-192 -190 -192 -454t189 -454t455 -191q266 0 458 189q190 190 190 454zM894 1540q328 0 562 -230t234 -553t-236 -553t-566 -230t-564 230q-234 232 -234 554t238 552t566 230z" />
    <glyph glyph-name="ocircumflextilde" unicode="&#x1ed7;" 
d="M1036 1223h-182l-176 151l-180 -151h-187l297 258h135zM790 1542q-48 0 -139 45q-83 36 -130 11q-12 -6 -75 -56l-67 94q78 100 190 101q17 0 103 -32t116 -32q55 0 117 64l68 -95q-25 -40 -80 -70t-103 -30zM240 560q0 -194 125 -320t312 -127q187 1 306 125t119 318
t-122 323t-307 129t-309 -127t-124 -321zM675 1147q251 0 415 -167t165 -421t-161 -420t-415 -166t-423 168t-170 420t169 419t420 167z" />
    <glyph glyph-name="Ocircumflexdotbelow" unicode="&#x1ed8;" horiz-adv-x="1779" 
d="M967 -381h-152v258h152v-258zM1253 1616h-182l-176 151l-180 -151h-187l297 258h136zM1536 756q0 264 -190 454t-454 190t-456 -188q-192 -190 -192 -454t189 -454t455 -191q266 0 458 189q190 190 190 454zM894 1540q328 0 562 -230t234 -553t-236 -553t-566 -230
t-564 230q-234 232 -234 554t238 552t566 230z" />
    <glyph glyph-name="ocircumflexdotbelow" unicode="&#x1ed9;" 
d="M750 -381h-152v258h152v-258zM1036 1243h-182l-176 152l-180 -152h-187l297 258h135zM240 560q0 -194 125 -320t312 -127q187 1 306 125t119 318t-122 323t-307 129t-309 -127t-124 -321zM675 1147q251 0 415 -167t165 -421t-161 -420t-415 -166t-423 168t-170 420
t169 419t420 167z" />
    <glyph glyph-name="Ohornacute" unicode="&#x1eda;" horiz-adv-x="1779" 
d="M1200 1823l-395 -234l-70 115l395 238zM1536 756q0 264 -190 454t-454 190t-456 -188q-192 -190 -192 -454t189 -454t455 -191q266 0 458 189q190 190 190 454zM1690 756q0 -322 -236 -552t-566 -230t-564 230q-234 232 -234 554t238 552t566 230t566 -237q92 84 92 210
h131q0 -201 -135 -315q142 -202 142 -442z" />
    <glyph glyph-name="ohornacute" unicode="&#x1edb;" horiz-adv-x="1384" 
d="M983 1450l-395 -233l-70 114l395 238zM240 560q0 -194 125 -320t312 -127q187 1 306 125t119 318t-122 323t-307 129t-309 -127t-124 -321zM1339 1120q0 -197 -133 -315q49 -119 49 -248q1 -252 -161 -418t-415 -166t-423 168t-170 420t169 419t419 167q143 0 263 -58
t198 -161q74 78 73 192h131z" />
    <glyph glyph-name="Ohorngrave" unicode="&#x1edc;" horiz-adv-x="1779" 
d="M1047 1704l-70 -115l-395 234l69 119zM1536 756q0 264 -190 454t-454 190t-456 -188q-192 -190 -192 -454t189 -454t455 -191q266 0 458 189q190 190 190 454zM1690 756q0 -322 -236 -552t-566 -230t-564 230q-234 232 -234 554t238 552t566 230t566 -237q92 84 92 210
h131q0 -201 -135 -315q142 -202 142 -442z" />
    <glyph glyph-name="ohorngrave" unicode="&#x1edd;" horiz-adv-x="1384" 
d="M829 1331l-69 -114l-395 233l69 119zM240 560q0 -194 125 -320t312 -127q187 1 306 125t119 318t-122 323t-307 129t-309 -127t-124 -321zM1339 1120q0 -197 -133 -315q49 -119 49 -248q1 -252 -161 -418t-415 -166t-423 168t-170 420t169 419t419 167q143 0 263 -58
t198 -161q74 78 73 192h131z" />
    <glyph glyph-name="Ohornhookabove" unicode="&#x1ede;" horiz-adv-x="1779" 
d="M895 2011q87 0 145 -47t58 -120t-80 -130q-68 -43 -70 -112h-108q2 113 90 182q57 42 57 66t-25 41q-26 17 -76 17t-79 -34l-16 -74h-107q6 211 211 211zM1536 756q0 264 -190 454t-454 190t-456 -188q-192 -190 -192 -454t189 -454t455 -191q266 0 458 189
q190 190 190 454zM1690 756q0 -322 -236 -552t-566 -230t-564 230q-234 232 -234 554t238 552t566 230t566 -237q92 84 92 210h131q0 -201 -135 -315q142 -202 142 -442z" />
    <glyph glyph-name="ohornhookabove" unicode="&#x1edf;" horiz-adv-x="1384" 
d="M678 1618q88 0 146 -47t57 -120q0 -73 -80 -130q-68 -43 -70 -113h-108q2 113 90 183q57 41 57 65t-26 42t-76 18t-78 -35l-17 -74h-106q6 211 211 211zM240 560q0 -194 125 -320t312 -127q187 1 306 125t119 318t-122 323t-307 129t-309 -127t-124 -321zM1339 1120
q0 -197 -133 -315q49 -119 49 -248q1 -252 -161 -418t-415 -166t-423 168t-170 420t169 419t419 167q143 0 263 -58t198 -161q74 78 73 192h131z" />
    <glyph glyph-name="Ohorntilde" unicode="&#x1ee0;" horiz-adv-x="1779" 
d="M789 1714q-32 0 -51 -9t-74 -56l-68 94q78 100 190 100q18 0 104 -32t116 -31q55 0 116 63l68 -94q-25 -41 -80 -71t-102 -30t-140 46q-47 20 -79 20zM1536 756q0 264 -190 454t-454 190t-456 -188q-192 -190 -192 -454t189 -454t455 -191q266 0 458 189q190 190 190 454
zM1690 756q0 -322 -236 -552t-566 -230t-564 230q-234 232 -234 554t238 552t566 230t566 -237q92 84 92 210h131q0 -201 -135 -315q142 -202 142 -442z" />
    <glyph glyph-name="ohorntilde" unicode="&#x1ee1;" horiz-adv-x="1384" 
d="M788 1276q-48 0 -139 45q-47 20 -79 20t-48 -7t-78 -58l-67 94q78 100 190 100q17 0 103 -32t116 -31q55 0 117 63l68 -94q-25 -40 -80 -70t-103 -30zM240 560q0 -194 125 -320t312 -127q187 1 306 125t119 318t-122 323t-307 129t-309 -127t-124 -321zM1339 1120
q0 -197 -133 -315q49 -119 49 -248q1 -252 -161 -418t-415 -166t-423 168t-170 420t169 419t419 167q143 0 263 -58t198 -161q74 78 73 192h131z" />
    <glyph glyph-name="Ohorndotbelow" unicode="&#x1ee2;" horiz-adv-x="1779" 
d="M967 -381h-152v258h152v-258zM1536 756q0 264 -190 454t-454 190t-456 -188q-192 -190 -192 -454t189 -454t455 -191q266 0 458 189q190 190 190 454zM1690 756q0 -322 -236 -552t-566 -230t-564 230q-234 232 -234 554t238 552t566 230t566 -237q92 84 92 210h131
q0 -201 -135 -315q142 -202 142 -442z" />
    <glyph glyph-name="ohorndotbelow" unicode="&#x1ee3;" horiz-adv-x="1384" 
d="M750 -381h-152v258h152v-258zM240 560q0 -194 125 -320t312 -127q187 1 306 125t119 318t-122 323t-307 129t-309 -127t-124 -321zM1339 1120q0 -197 -133 -315q49 -119 49 -248q1 -252 -161 -418t-415 -166t-423 168t-170 420t169 419t419 167q143 0 263 -58t198 -161
q74 78 73 192h131z" />
    <glyph glyph-name="Udotbelow" unicode="&#x1ee4;" 
d="M748 -381h-152v258h152v-258zM1186 569q0 -299 -138 -447t-377 -148t-377 148t-138 447v944h151v-944q0 -457 365 -456q362 0 362 456v944h152v-944z" />
    <glyph glyph-name="udotbelow" unicode="&#x1ee5;" horiz-adv-x="1245" 
d="M698 -381h-151v258h151v-258zM1116 0h-151v174q-109 -201 -361 -201q-475 0 -475 543v604h152v-604q0 -403 335 -403q162 0 255 106t94 326v575h151v-1120z" />
    <glyph glyph-name="Uhookabove" unicode="&#x1ee6;" 
d="M676 2011q88 0 146 -47t57 -120q0 -73 -80 -130q-68 -43 -70 -112h-108q2 113 90 182q57 42 57 66t-26 41t-76 17t-78 -34l-17 -74h-106q6 211 211 211zM1186 569q0 -299 -138 -447t-377 -148t-377 148t-138 447v944h151v-944q0 -457 365 -456q362 0 362 456v944h152
v-944z" />
    <glyph glyph-name="uhookabove" unicode="&#x1ee7;" horiz-adv-x="1245" 
d="M829 1451q0 -73 -79 -130q-68 -43 -70 -113h-109q2 113 91 183q57 41 57 65t-26 42q-25 18 -75 18t-79 -35l-17 -74h-106q6 211 211 211q88 0 145 -47t57 -120zM1116 0h-151v174q-109 -201 -361 -201q-475 0 -475 543v604h152v-604q0 -403 335 -403q162 0 255 106t94 326
v575h151v-1120z" />
    <glyph glyph-name="Uhornacute" unicode="&#x1ee8;" horiz-adv-x="1445" 
d="M981 1823l-395 -234l-70 115l395 238zM1409 1513q0 -260 -223 -376v-568q0 -268 -107 -409q-69 -88 -177 -137t-232 -49t-233 48q-108 50 -175 138q-106 141 -106 409v944h151v-944q0 -207 70 -313q43 -66 122 -104t172 -39q93 0 172 39t122 104q70 106 69 313v944h152
v-213q92 84 92 213h131z" />
    <glyph glyph-name="uhornacute" unicode="&#x1ee9;" horiz-adv-x="1384" 
d="M932 1450l-395 -233l-70 114l395 238zM1346 1120q0 -264 -230 -379v-741h-151v174q-109 -201 -364 -201t-384 179q-88 121 -88 364v604h152v-604q0 -174 46 -252q89 -151 279 -151t291 139q68 100 68 293v575h151v-219q98 84 98 219h132z" />
    <glyph glyph-name="Uhorngrave" unicode="&#x1eea;" horiz-adv-x="1445" 
d="M825 1704l-69 -115l-396 234l70 119zM1409 1513q0 -260 -223 -376v-568q0 -268 -107 -409q-69 -88 -177 -137t-232 -49t-233 48q-108 50 -175 138q-106 141 -106 409v944h151v-944q0 -207 70 -313q43 -66 122 -104t172 -39q93 0 172 39t122 104q70 106 69 313v944h152
v-213q92 84 92 213h131z" />
    <glyph glyph-name="uhorngrave" unicode="&#x1eeb;" horiz-adv-x="1384" 
d="M778 1331l-69 -114l-396 233l70 119zM1346 1120q0 -264 -230 -379v-741h-151v174q-109 -201 -364 -201t-384 179q-88 121 -88 364v604h152v-604q0 -174 46 -252q89 -151 279 -151t291 139q68 100 68 293v575h151v-219q98 84 98 219h132z" />
    <glyph glyph-name="Uhornhookabove" unicode="&#x1eec;" horiz-adv-x="1445" 
d="M676 2011q88 0 146 -47t57 -120q0 -73 -80 -130q-68 -43 -70 -112h-108q2 113 90 182q57 42 57 66t-26 41t-76 17t-78 -34l-17 -74h-106q6 211 211 211zM1409 1513q0 -260 -223 -376v-568q0 -268 -107 -409q-69 -88 -177 -137t-232 -49t-233 48q-108 50 -175 138
q-106 141 -106 409v944h151v-944q0 -207 70 -313q43 -66 122 -104t172 -39q93 0 172 39t122 104q70 106 69 313v944h152v-213q92 84 92 213h131z" />
    <glyph glyph-name="uhornhookabove" unicode="&#x1eed;" horiz-adv-x="1384" 
d="M829 1451q0 -73 -79 -130q-68 -43 -70 -113h-109q2 113 91 183q57 41 57 65t-26 42q-25 18 -75 18t-79 -35l-17 -74h-106q6 211 211 211q88 0 145 -47t57 -120zM1346 1120q0 -264 -230 -379v-741h-151v174q-109 -201 -364 -201t-384 179q-88 121 -88 364v604h152v-604
q0 -174 46 -252q89 -151 279 -151t291 139q68 100 68 293v575h151v-219q98 84 98 219h132z" />
    <glyph glyph-name="Uhorntilde" unicode="&#x1eee;" horiz-adv-x="1445" 
d="M568 1714q-32 0 -48 -7t-78 -58l-67 94q78 100 190 100q17 0 103 -32t116 -31q55 0 117 63l68 -94q-25 -41 -80 -71t-103 -30t-139 46q-47 20 -79 20zM1409 1513q0 -260 -223 -376v-568q0 -268 -107 -409q-69 -88 -177 -137t-232 -49t-233 48q-108 50 -175 138
q-106 141 -106 409v944h151v-944q0 -207 70 -313q43 -66 122 -104t172 -39q93 0 172 39t122 104q70 106 69 313v944h152v-213q92 84 92 213h131z" />
    <glyph glyph-name="uhorntilde" unicode="&#x1eef;" horiz-adv-x="1384" 
d="M738 1276q-48 0 -140 45q-47 20 -79 20t-48 -7t-78 -58l-67 94q78 100 190 100q18 0 104 -32t115 -31q55 0 117 63l68 -94q-25 -40 -80 -70q-54 -30 -102 -30zM1346 1120q0 -264 -230 -379v-741h-151v174q-109 -201 -364 -201t-384 179q-88 121 -88 364v604h152v-604
q0 -174 46 -252q89 -151 279 -151t291 139q68 100 68 293v575h151v-219q98 84 98 219h132z" />
    <glyph glyph-name="Uhorndotbelow" unicode="&#x1ef0;" horiz-adv-x="1445" 
d="M748 -381h-152v258h152v-258zM1409 1513q0 -260 -223 -376v-568q0 -268 -107 -409q-69 -88 -177 -137t-232 -49t-233 48q-108 50 -175 138q-106 141 -106 409v944h151v-944q0 -207 70 -313q43 -66 122 -104t172 -39q93 0 172 39t122 104q70 106 69 313v944h152v-213
q92 84 92 213h131z" />
    <glyph glyph-name="uhorndotbelow" unicode="&#x1ef1;" horiz-adv-x="1384" 
d="M698 -381h-151v258h151v-258zM1346 1120q0 -264 -230 -379v-741h-151v174q-109 -201 -364 -201t-384 179q-88 121 -88 364v604h152v-604q0 -174 46 -252q89 -151 279 -151t291 139q68 100 68 293v575h151v-219q98 84 98 219h132z" />
    <glyph glyph-name="Ygrave" unicode="&#x1ef2;" horiz-adv-x="1212" 
d="M760 1704l-70 -115l-395 234l70 119zM680 0h-152v506l-524 1007h168l430 -847l440 847h166l-528 -1007v-506z" />
    <glyph glyph-name="ygrave" unicode="&#x1ef3;" horiz-adv-x="1097" 
d="M707 1331l-70 -114l-395 233l69 119zM1079 1120l-647 -1513h-162l183 430l-435 1083h166l355 -893l379 893h161z" />
    <glyph glyph-name="Ydotbelow" unicode="&#x1ef4;" horiz-adv-x="1212" 
d="M680 -381h-152v258h152v-258zM680 0h-152v506l-524 1007h168l430 -847l440 847h166l-528 -1007v-506z" />
    <glyph glyph-name="ydotbelow" unicode="&#x1ef5;" horiz-adv-x="1097" 
d="M899 -381h-151v258h151v-258zM1079 1120l-647 -1513h-162l183 430l-435 1083h166l355 -893l379 893h161z" />
    <glyph glyph-name="Yhookabove" unicode="&#x1ef6;" horiz-adv-x="1212" 
d="M608 2011q88 0 146 -47t57 -120q0 -73 -80 -130q-68 -43 -69 -112h-109q2 113 90 182q57 42 57 66t-25 41q-26 17 -76 17t-79 -34l-16 -74h-107q6 211 211 211zM680 0h-152v506l-524 1007h168l430 -847l440 847h166l-528 -1007v-506z" />
    <glyph glyph-name="yhookabove" unicode="&#x1ef7;" horiz-adv-x="1097" 
d="M555 1618q87 0 145 -47t58 -120t-80 -130q-68 -43 -70 -113h-108q2 113 90 183q57 41 57 65t-25 42q-26 18 -76 18t-79 -35l-16 -74h-107q6 211 211 211zM1079 1120l-647 -1513h-162l183 430l-435 1083h166l355 -893l379 893h161z" />
    <glyph glyph-name="Ytilde" unicode="&#x1ef8;" horiz-adv-x="1212" 
d="M503 1714q-32 0 -52 -10t-74 -55l-68 94q78 100 191 100q18 0 103 -32t116 -31q55 0 117 63l67 -94q-25 -41 -80 -71t-102 -30t-139 46q-47 20 -79 20zM680 0h-152v506l-524 1007h168l430 -847l440 847h166l-528 -1007v-506z" />
    <glyph glyph-name="ytilde" unicode="&#x1ef9;" horiz-adv-x="1097" 
d="M666 1276q-47 0 -140 45q-47 20 -79 20t-51 -9t-74 -56l-68 94q78 100 190 100q18 0 104 -32t116 -31q55 0 116 63l68 -94q-25 -40 -80 -70t-102 -30zM1079 1120l-647 -1513h-162l183 430l-435 1083h166l355 -893l379 893h161z" />
    <glyph glyph-name="uni2010" unicode="&#x2010;" horiz-adv-x="679" 
d="M618 477h-555v129h555v-129z" />
    <glyph glyph-name="uni2011" unicode="&#x2011;" horiz-adv-x="679" 
d="M618 477h-555v129h555v-129z" />
    <glyph glyph-name="endash" unicode="&#x2013;" horiz-adv-x="1024" 
d="M1024 477h-1024v129h1024v-129z" />
    <glyph glyph-name="emdash" unicode="&#x2014;" horiz-adv-x="2048" 
d="M2048 477h-2048v129h2048v-129z" />
    <glyph glyph-name="dblverticalbar" unicode="&#x2016;" horiz-adv-x="1241" 
d="M848 -256h-152v1769h152v-1769zM545 -256h-152v1769h152v-1769z" />
    <glyph glyph-name="quoteleft" unicode="&#x2018;" horiz-adv-x="718" 
d="M532 1120h-151l-180 393h151z" />
    <glyph glyph-name="quoteright" unicode="&#x2019;" horiz-adv-x="718" 
d="M518 1513l-180 -393h-152l181 393h151z" />
    <glyph glyph-name="quotesinglbase" unicode="&#x201a;" horiz-adv-x="724" 
d="M514 258l-180 -395h-152l180 395h152z" />
    <glyph glyph-name="quotedblleft" unicode="&#x201c;" horiz-adv-x="1028" 
d="M528 1120h-151l-180 393h151zM831 1120h-151l-180 393h151z" />
    <glyph glyph-name="quotedblright" unicode="&#x201d;" horiz-adv-x="991" 
d="M805 1513l-180 -393h-152l180 393h152zM510 1513l-180 -393h-152l180 393h152z" />
    <glyph glyph-name="quotedblbase" unicode="&#x201e;" horiz-adv-x="1028" 
d="M815 258l-180 -395h-152l181 395h151zM514 258l-180 -395h-152l180 395h152z" />
    <glyph glyph-name="dagger" unicode="&#x2020;" horiz-adv-x="1132" 
d="M1012 963h-375v-1235h-152v1235h-364v135h364v415h152v-415h375v-135z" />
    <glyph glyph-name="daggerdbl" unicode="&#x2021;" horiz-adv-x="1132" 
d="M1012 678h-373v-950h-152v950h-366v143h366v189h-366v143h366v360h152v-360h373v-143h-373v-189h373v-143z" />
    <glyph glyph-name="bullet" unicode="&#x2022;" horiz-adv-x="1241" 
d="M999 622q-1 -159 -111 -270q-110 -110 -268 -110t-268 112t-110 268q0 158 110 268t269 110q158 0 268 -110q110 -109 110 -268z" />
    <glyph glyph-name="ellipsis" unicode="&#x2026;" horiz-adv-x="2048" 
d="M1782 0h-152v258h152v-258zM1100 0h-152v258h152v-258zM418 0h-152v258h152v-258z" />
    <glyph glyph-name="perthousand" unicode="&#x2030;" horiz-adv-x="2404" 
d="M606 1173q0 93 -64 159t-157 67q-92 0 -158 -66q-65 -67 -65 -159t66 -159t156 -67q91 0 157 66q65 66 65 159zM386 1534q148 0 254 -106t105 -256q0 -148 -105 -253q-106 -105 -254 -105t-254 104q-106 106 -105 257q0 151 105 255q106 104 254 104zM2218 332
q0 92 -65 158t-157 67t-156 -65t-64 -159t66 -159t155 -66t155 66t66 158zM2357 332q0 -148 -105 -253q-106 -105 -254 -105t-254 104q-106 106 -106 256t106 254t254 104t254 -106q105 -106 105 -254zM1401 332q0 92 -65 158q-64 66 -156 67t-157 -65t-65 -159t66 -159
t156 -66t156 66t65 158zM1540 332q0 -148 -105 -253t-253 -105t-254 104q-106 106 -106 256t104 254q106 104 254 104t255 -106q105 -106 105 -254zM1204 1513l-684 -1513h-147l680 1513h151z" />
    <glyph glyph-name="permyriad" unicode="&#x2031;" horiz-adv-x="3221" 
d="M3035 332q-1 92 -65 158t-156 67t-157 -65t-65 -159t66 -159t156 -66t156 66q65 66 65 158zM3174 332q0 -148 -105 -253t-253 -105t-254 104q-106 106 -106 256t105 254t253 104t255 -106q105 -106 105 -254zM606 1173q0 93 -64 159t-157 67q-92 0 -158 -66
q-65 -67 -65 -159t66 -159t156 -67q91 0 157 66q65 66 65 159zM386 1534q148 0 254 -106t105 -256q0 -148 -105 -253q-106 -105 -254 -105t-254 104q-106 106 -105 257q0 151 105 255q106 104 254 104zM2218 332q0 92 -65 158t-157 67t-156 -65t-64 -159t66 -159t155 -66
t155 66t66 158zM2357 332q0 -148 -105 -253q-106 -105 -254 -105t-254 104q-106 106 -106 256t106 254t254 104t254 -106q105 -106 105 -254zM1401 332q0 92 -65 158q-64 66 -156 67t-157 -65t-65 -159t66 -159t156 -66t156 66t65 158zM1540 332q0 -148 -105 -253t-253 -105
t-254 104q-106 106 -106 256t104 254q106 104 254 104t255 -106q105 -106 105 -254zM1204 1513l-684 -1513h-147l680 1513h151z" />
    <glyph glyph-name="guilsinglleft" unicode="&#x2039;" horiz-adv-x="514" 
d="M432 270l-121 -67l-229 411l229 408l121 -66l-190 -342z" />
    <glyph glyph-name="guilsinglright" unicode="&#x203a;" horiz-adv-x="514" 
d="M432 614l-229 -411l-121 67l190 344l-190 342l121 66z" />
    <glyph glyph-name="referencemark" unicode="&#x203b;" horiz-adv-x="1241" 
d="M1178 512q0 -53 -38 -91t-91 -38t-92 38q-38 38 -37 91q0 53 37 91t91 38t92 -38t38 -91zM322 512q0 -53 -38 -91t-91 -38t-92 38q-38 38 -38 91t38 91q37 38 91 38t92 -38t38 -91zM750 84q0 -53 -38 -91t-91 -38t-92 38q-38 38 -37 91q0 53 37 91t91 38t92 -38t38 -91z
M750 940q0 -53 -38 -91t-91 -38t-92 38q-38 38 -37 91q0 53 37 91t91 38t92 -38t38 -91zM1022 217l-107 -106l-294 295l-295 -295l-107 106l295 295l-295 295l107 106l295 -295l294 295l107 -106l-295 -295z" />
    <glyph glyph-name="interrobang" unicode="&#x203d;" horiz-adv-x="1210" 
d="M924 1118q0 94 -66 174t-172 103v-647q30 31 100 96q70 64 104 122t34 152zM686 0h-151v258h151v-258zM1075 1096q0 -98 -42 -178t-142 -170q-99 -90 -147 -157t-58 -142v-54h-151v1000q-233 -41 -259 -355h-143q6 217 115 344t287 150v184h151v-184q174 -23 282 -143
q107 -121 107 -295z" />
    <glyph glyph-name="uni203F" unicode="&#x203f;" horiz-adv-x="1044" 
d="M979 -172q0 -98 -116 -160t-341 -61q-225 0 -341 61t-115 160h139q-1 -54 69 -68t248 -14t248 13t70 69h139z" />
    <glyph glyph-name="uni2040" unicode="&#x2040;" horiz-adv-x="1044" 
d="M979 1292h-139q0 54 -70 68t-248 14t-248 -13t-69 -69h-139q0 98 115 160q116 61 341 61q225 1 341 -61t116 -160z" />
    <glyph glyph-name="fraction" unicode="&#x2044;" horiz-adv-x="339" 
d="M575 1513l-700 -1513h-111l701 1513h110z" />
    <glyph glyph-name="quillbracketleft" unicode="&#x2045;" horiz-adv-x="737" 
d="M608 -258q-195 0 -337 85t-142 236v312q0 77 47 145t123 109q-76 39 -123 105t-47 147v311q0 152 142 236t337 85v-139q-137 0 -232 -44t-95 -138v-311q0 -95 95 -139t232 -44v-139q-137 0 -232 -44t-95 -140v-312q0 -94 95 -138t232 -44v-139z" />
    <glyph glyph-name="quillbracketright" unicode="&#x2046;" horiz-adv-x="737" 
d="M608 63q0 -153 -142 -237t-337 -84v139q137 0 232 44t96 138v312q1 96 -95 140t-233 44v139q137 0 232 43t96 140v311q1 94 -95 138t-233 44v139q195 0 337 -85t142 -236v-311q0 -78 -47 -146t-123 -108q76 -39 123 -106t47 -146v-312z" />
    <glyph glyph-name="discount" unicode="&#x2052;" horiz-adv-x="1134" 
d="M1063 1513l-832 -1513h-159l831 1513h160zM1087 231q0 -69 -47 -115q-48 -46 -114 -46t-114 47t-48 115t48 114q48 47 115 47t113 -47t47 -115zM371 1282q0 -68 -48 -115t-115 -47t-114 47t-47 115t47 115t114 47t115 -47t48 -115z" />
    <glyph glyph-name="uni2054" unicode="&#x2054;" horiz-adv-x="1044" 
d="M979 -393h-139q0 55 -70 68t-248 13t-248 -12q-70 -14 -69 -69h-139q0 98 115 160q116 61 341 61t341 -62t116 -159z" />
    <glyph glyph-name="colonmonetary" unicode="&#x20a1;" horiz-adv-x="1665" 
d="M244 762q0 -238 150 -418q151 -180 376 -221v1270q-230 -39 -378 -216t-148 -415zM895 -170h-125v152q-297 39 -488 254q-192 215 -192 521t190 524t490 253v149h125v-143q229 -4 409 -117t267 -303h-170q-176 274 -506 281v-1288q161 3 277 69t237 215h168
q-225 -418 -682 -424v-143z" />
    <glyph glyph-name="lira" unicode="&#x20a4;" horiz-adv-x="1134" 
d="M1212 436q0 -200 -130 -318t-377 -118h-584v137h285q86 95 86 223t-66 215h-389v138h256l-100 133h-156v137h113q-4 20 -5 66q1 215 137 353t343 138t347 -120t163 -312h-142q-31 139 -127 217t-240 78t-236 -98t-93 -254q0 -47 4 -68h635v-137h-580l138 -133h442v-138
h-344q51 -102 51 -202t-59 -236h116q184 0 273 85q88 85 88 227q0 39 -12 100h147q16 -64 16 -113z" />
    <glyph glyph-name="naira" unicode="&#x20a6;" horiz-adv-x="1515" 
d="M307 1092h162l-162 239v-239zM1208 573h-213l213 -315v315zM1208 713v239h-469l162 -239h307zM307 952v-239h418l-162 239h-256zM1436 573h-76v-573h-152l-389 573h-512v-573h-151v573h-76v140h76v239h-76v140h76v421h204l285 -421h563v421h152v-421h76v-140h-76v-239h76
v-140z" />
    <glyph glyph-name="won" unicode="&#x20a9;" horiz-adv-x="1966" 
d="M1022 1092l-41 149l-41 -149h82zM1124 713l-65 239h-156l-63 -239h284zM1524 573h-211l104 -376zM1630 952h-422l68 -239h287zM653 573h-211l107 -376zM758 952h-422l67 -239h287zM1946 573h-271l-164 -573h-194l-156 573h-358l-154 -573h-196l-164 573h-269v140h230
l-70 239h-160v140h121l-121 421h156l119 -421h500l116 421h144l116 -421h500l119 421h156l-121 -421h121v-140h-162l-68 -239h230v-140z" />
    <glyph glyph-name="dong" unicode="&#x20ab;" horiz-adv-x="1378" 
d="M1014 706q0 158 -113 268t-269 110t-266 -110q-108 -110 -108 -270t111 -271q111 -109 269 -109t268 112q108 112 108 270zM1247 -139h-1118v139h1118v-139zM1247 1276h-108v-1049h-129v172q-72 -102 -158 -148t-205 -46q-221 0 -369 142t-149 355q0 212 145 356
q146 144 368 144t368 -174v248h-265v108h265v129h129v-129h108v-108z" />
    <glyph glyph-name="Euro" unicode="&#x20ac;" horiz-adv-x="1134" 
d="M725 1405q-181 -1 -281 -105t-153 -360h719l-52 -121h-679q-6 -102 -3 -141h621l-49 -121h-561q29 -217 139 -334t287 -117q119 0 191 37t194 150v-166q-82 -82 -171 -118t-212 -36q-242 1 -386 143t-196 441h-196l49 121h139q-2 29 -2 50t4 91h-193l50 121h153
q59 330 201 465t385 135q137 0 237 -52t214 -202l-64 -141q-100 147 -183 203t-202 57z" />
    <glyph glyph-name="peso" unicode="&#x20b1;" horiz-adv-x="1212" 
d="M522 1376h-215v-626h281q224 0 320 70t96 235q0 164 -84 245q-64 61 -235 72q-60 4 -163 4zM573 1513q309 0 447 -109q138 -108 137 -340q0 -232 -130 -342t-429 -110h-291v-182h299v-113h-299v-317h-151v317h-76v113h76v1083h417z" />
    <glyph glyph-name="centigrade" unicode="&#x2103;" horiz-adv-x="2590" 
d="M600 1092q0 82 -54 139t-134 57t-138 -57t-57 -139q0 -82 57 -140q56 -58 136 -57q80 -1 135 57t55 140zM1640 -27q-340 -1 -567 223t-227 560t223 560t561 224q236 0 422 -113t275 -307h-170q-178 281 -521 281q-270 1 -453 -185t-183 -455t188 -459t450 -189
q164 1 285 67t242 217h168q-229 -424 -693 -424zM717 1092q0 -130 -89 -222t-218 -92t-219 91q-89 91 -89 223t92 223q92 90 221 90q130 0 216 -91t86 -222z" />
    <glyph glyph-name="l.script" unicode="&#x2113;" horiz-adv-x="952" 
d="M647 1262q0 53 -33 94t-75 41q-81 0 -113 -120t-36 -260q-5 -139 -5 -284v-115q262 269 262 644zM821 373q0 -162 -79 -281t-210 -119q-130 1 -196 99t-88 272q-23 -14 -62 -33l-57 123q59 31 109 62l-5 237v113q-1 149 13 268q14 120 38 201t49 112t53 57q50 48 150 48
t174 -80t74 -190q0 -242 -103 -457t-290 -365q23 -315 141 -315q74 0 114 74t40 174h135z" />
    <glyph glyph-name="numero" unicode="&#x2116;" horiz-adv-x="2330" 
d="M2099 758q-1 106 -71 178t-172 72t-175 -74q-71 -74 -71 -177t72 -178t172 -75q101 0 174 74q71 74 71 180zM2228 0h-749v125h749v-125zM2228 756q0 -152 -110 -262t-266 -109q-154 0 -264 110t-110 262t112 262q112 109 264 109t264 -110q110 -110 110 -262zM1360 0
h-152l-901 1331v-1331h-151v1513h204l848 -1255v1255h152v-1513z" />
    <glyph glyph-name="published" unicode="&#x2117;" horiz-adv-x="1529" 
d="M721 1018h-115v-307h154q127 -1 181 33t54 118t-41 118q-41 33 -140 37q-30 1 -93 1zM752 1124q192 0 276 -64t84 -196q0 -133 -80 -196t-266 -64h-160v-332h-117v852h263zM1415 698q0 268 -190 458q-191 190 -459 192q-268 0 -458 -190t-189 -460q0 -268 189 -457
q190 -189 458 -189t458 188q190 190 191 458zM1491 698q0 -299 -213 -511t-512 -212t-511 212t-212 511t212 512t511 213t512 -213t213 -512z" />
    <glyph glyph-name="weierstrass" unicode="&#x2118;" horiz-adv-x="1538" 
d="M506 -256q0 90 -119 293q-152 -276 -151 -293q0 -51 26 -89t84 -38q56 0 108 35t52 92zM1409 573q0 -340 -164 -510q-88 -90 -211 -90q-90 -1 -167 51t-124 134l105 59q53 -92 186 -92q223 0 223 448q0 160 -55 272q-55 111 -162 111t-277 -270q-144 -226 -292 -496
q141 -238 141 -446q0 -100 -83 -167t-183 -67t-159 70q-58 70 -58 164q0 131 166 440q-162 268 -162 448q1 180 103 335q102 154 270 235l53 -110q-129 -62 -202 -188t-73 -263t97 -303q309 562 493 703q86 67 160 67q172 0 274 -159t101 -376z" />
    <glyph glyph-name="recipe" unicode="&#x211e;" horiz-adv-x="1243" 
d="M1028 1025q0 193 -120 272t-388 79h-213v-1376h-151v1513h374q346 1 499 -121t153 -366q0 -202 -115 -320t-332 -141l183 -243l231 172l65 -91l-229 -170l174 -233h-188l-107 143l-162 -118l-67 90l162 118l-336 453q323 0 445 73t122 266z" />
    <glyph glyph-name="servicemark" unicode="&#x2120;" horiz-adv-x="2131" 
d="M2003 651h-127v697l-354 -697h-103l-350 697v-697h-129v862h178l355 -692l354 692h176v-862zM770 903q0 -119 -89 -193t-230 -75q-141 0 -231 77q-89 77 -91 203h133q8 -82 60 -127t135 -45q82 0 133 42q51 43 51 107t-44 97t-178 67t-179 72q-76 56 -76 160t81 172
t212 68t214 -72t74 -184h-131q8 66 -40 106t-120 41q-72 0 -117 -37q-46 -37 -46 -88t32 -79q31 -27 157 -59t184 -66q106 -68 106 -187z" />
    <glyph glyph-name="trademark" unicode="&#x2122;" horiz-adv-x="2048" 
d="M1919 651h-127v697l-354 -697h-103l-350 697v-697h-129v862h178l355 -692l354 692h176v-862zM713 1513v-106h-228v-756h-127v756h-229v106h584z" />
    <glyph glyph-name="ohm" unicode="&#x2126;" horiz-adv-x="1632" 
d="M1462 152v-156h-475v160q176 51 294 199t120 355t-175 375t-410 168q-234 0 -408 -168t-172 -397q4 -188 123 -335q120 -146 294 -197v-160h-481v156h168q-117 74 -193 224t-77 312q-6 293 219 509t528 216q195 0 369 -97q174 -98 280 -264t101 -345q-4 -179 -77 -331
t-187 -224h159z" />
    <glyph glyph-name="uni2127" unicode="&#x2127;" horiz-adv-x="1632" 
d="M817 102q-195 0 -369 98t-279 263q-105 166 -101 345t76 331q73 152 188 225h-160v156h475v-160q-176 -52 -294 -200t-120 -355q-3 -207 175 -375t410 -168t408 168q175 168 173 397q-4 189 -124 335t-294 198v160h481v-156h-168q117 -74 193 -224t78 -313
q6 -293 -219 -509t-529 -216z" />
    <glyph glyph-name="estimated" unicode="&#x212e;" horiz-adv-x="1771" 
d="M1366 721v377q0 8 -6 14q-90 100 -214 156t-259 55q-285 0 -475 -211q-6 -6 -6 -14v-377q0 -20 20 -21h920q20 1 20 21zM1642 682v-20l-1236 -21v-377q0 -8 6 -14q190 -211 475 -211q141 0 268 59t217 166h113q-106 -124 -264 -194t-334 -70q-309 0 -534 197
q-224 197 -224 485t224 484q225 196 533 196t532 -196t224 -484z" />
    <glyph glyph-name="uni2190" unicode="&#x2190;" horiz-adv-x="2048" 
d="M1790 436h-1360l246 -340l-123 -90l-367 506l367 506l123 -90l-248 -340h1362v-152z" />
    <glyph glyph-name="uni2191" unicode="&#x2191;" horiz-adv-x="1525" 
d="M840 -254h-152v1360l-340 -246l-90 123l506 367l506 -367l-90 -123l-340 248v-1362z" />
    <glyph glyph-name="uni2192" unicode="&#x2192;" horiz-adv-x="2048" 
d="M258 436v152h1360l-246 340l123 90l367 -506l-367 -506l-123 90l248 340h-1362z" />
    <glyph glyph-name="uni2193" unicode="&#x2193;" horiz-adv-x="1525" 
d="M688 1278h152v-1360l340 246l90 -123l-506 -367l-506 367l90 123l340 -248v1362z" />
    <glyph glyph-name="partialdiff" unicode="&#x2202;" horiz-adv-x="1011" 
d="M459 727q-123 0 -203 -105q-80 -106 -80 -236t65 -216t165 -86q186 0 294 162t131 407q-178 74 -372 74zM987 758q1 -205 -67 -383t-203 -292t-303 -114t-279 120t-111 297t127 315q125 139 313 139t372 -66q-4 270 -116 463t-314 193q-96 0 -281 -66l-49 143
q104 37 330 37q176 0 311 -114t203 -290q68 -177 67 -382z" />
    <glyph glyph-name="summation" unicode="&#x2211;" horiz-adv-x="1460" 
d="M1268 -252h-1073v152l292 745l-292 744v151h1073v-151h-912l293 -744l-293 -745h912v-152z" />
    <glyph glyph-name="minus" unicode="&#x2212;" horiz-adv-x="1241" 
d="M1112 436h-983v152h983v-152z" />
    <glyph glyph-name="minusplus" unicode="&#x2213;" horiz-adv-x="1241" 
d="M1112 872h-983v152h983v-152zM1112 285h-416v-416h-151v416h-416v151h416v299h151v-299h416v-151z" />
    <glyph glyph-name="fraction.alt" unicode="&#x2215;" horiz-adv-x="0" 
d="M406 1513l-701 -1513h-111l701 1513h111z" />
    <glyph glyph-name="asterisk.math" unicode="&#x2217;" horiz-adv-x="985" 
d="M856 446h-250l135 -217l-116 -65l-129 223l-131 -223l-119 67l141 215h-258v119h258l-137 228l119 67l131 -221l127 221l116 -67l-141 -228h254v-119z" />
    <glyph glyph-name="radical" unicode="&#x221a;" horiz-adv-x="1124" 
d="M1055 1860l-312 -1932l-495 1016l-195 -96l-33 72l299 145l400 -807l260 1612z" />
    <glyph glyph-name="infinity" unicode="&#x221e;" horiz-adv-x="1572" 
d="M1118 1065q166 1 262 -111t95 -289q1 -177 -95 -288t-262 -111q-110 0 -200 60t-136 153q-45 -96 -128 -154t-191 -59q-168 0 -273 112q-104 112 -104 287t104 287t273 113q109 0 191 -58t128 -155q46 94 136 154t200 59zM225 662q0 -108 69 -177q69 -68 177 -67
q61 0 123 60t92 120l31 61q-31 79 -80 134q-95 108 -166 108q-109 1 -177 -65t-69 -174zM1339 658q0 108 -68 176q-69 68 -177 67q-64 0 -126 -60t-94 -120l-30 -62q11 -27 41 -76q31 -49 59 -81t68 -58q41 -27 82 -26q109 0 177 66t68 174z" />
    <glyph glyph-name="anglearc" unicode="&#x2222;" horiz-adv-x="1241" 
d="M803 512q0 98 -33 197l-395 -197l395 -197q33 99 33 197zM954 512q0 -139 -49 -266l166 -82l-70 -135l-163 82q-63 -106 -168 -189l-95 121q76 59 127 135l-532 266v136l532 266q-51 76 -127 135l95 121q104 -82 168 -189l163 82l70 -135l-166 -82q49 -127 49 -266z" />
    <glyph glyph-name="approxequal" unicode="&#x2248;" horiz-adv-x="1241" 
d="M860 555q-68 0 -201 53l-112 45q-109 43 -163 43t-90 -37q-38 -37 -104 -147l-86 96q74 134 141 190t138 56t172 -39l133 -55q113 -47 164 -47q96 0 195 168l90 -97q-53 -104 -131 -166t-146 -63zM384 328q-54 0 -90 -37q-38 -37 -104 -148l-86 97q74 133 141 189t138 56
t172 -39l133 -55q113 -47 164 -47q96 0 195 168l90 -96q-53 -104 -131 -166t-146 -64q-68 0 -201 54l-112 45q-109 43 -163 43z" />
    <glyph glyph-name="notequal" unicode="&#x2260;" horiz-adv-x="1241" 
d="M1112 248h-541l-194 -379l-133 70l155 309h-270v151h348l117 226h-465v151h541l194 379l133 -70l-155 -309h270v-151h-348l-117 -226h465v-151z" />
    <glyph glyph-name="lessequal" unicode="&#x2264;" horiz-adv-x="1241" 
d="M983 -76h-725v152h725v-152zM983 137l-774 649v115l774 649v-196l-606 -510l606 -510v-197z" />
    <glyph glyph-name="greaterequal" unicode="&#x2265;" horiz-adv-x="1241" 
d="M983 -76h-725v152h725v-152zM1032 786l-774 -649v197l606 510l-606 510v196l774 -649v-115z" />
    <glyph glyph-name="star" unicode="&#x22c6;" horiz-adv-x="1134" 
d="M1085 651l-395 -149l234 -357l-90 -65l-267 332l-266 -332l-90 65l233 357l-395 149l33 107l410 -113l20 424h111l20 -424l410 113z" />
    <glyph glyph-name="diameter" unicode="&#x2300;" horiz-adv-x="1241" 
d="M621 825q-129 0 -221 -92t-93 -221q0 -88 45 -162l430 430q-74 45 -161 45zM934 512q0 88 -45 162l-430 -430q74 -45 162 -45q129 0 221 92t92 221zM1085 512q0 -193 -136 -329t-328 -136q-147 0 -271 86l-129 -129l-108 109l129 129q-86 123 -86 270q0 193 136 329
t329 136q147 0 270 -86l129 129l108 -109l-129 -129q86 -123 86 -270z" />
    <glyph glyph-name="angleleft" unicode="&#x2329;" horiz-adv-x="1079" 
d="M952 -256h-188l-635 885l635 884h188l-635 -884z" />
    <glyph glyph-name="angleright" unicode="&#x232a;" horiz-adv-x="1079" 
d="M952 629l-635 -885h-188l635 885l-635 884h188z" />
    <glyph glyph-name="blanksymbol" unicode="&#x2422;" horiz-adv-x="1396" 
d="M716 113q186 -1 314 129q127 130 127 320t-126 318t-314 128q-187 0 -317 -128t-130 -314t130 -320q130 -133 316 -133zM1311 559q0 -250 -169 -418t-423 -168q-137 -1 -252 57t-186 163v-193h-152v1081l-70 -28v135l70 29v296h152v-235l417 172v-135l-417 -172v-215
q150 219 440 219q250 0 420 -169t170 -419z" />
    <glyph glyph-name="uni2423" unicode="&#x2423;" horiz-adv-x="1024" 
d="M895 -197h-766v689h139v-549h488v549h139v-689z" />
    <glyph glyph-name="lozenge" unicode="&#x25ca;" horiz-adv-x="1011" 
d="M823 766l-321 633l-336 -629l326 -651zM954 766l-403 -766h-123l-391 772l401 744h129z" />
    <glyph glyph-name="openbullet" unicode="&#x25e6;" horiz-adv-x="1241" 
d="M848 621q0 95 -67 161t-161 66t-160 -67q-67 -67 -67 -161t67 -160q67 -67 161 -67q95 0 161 67t66 161zM999 621q-1 -158 -111 -269q-110 -110 -268 -110t-268 110q-111 110 -110 269q0 159 110 269t269 110q158 0 268 -111q110 -110 110 -268z" />
    <glyph glyph-name="uni266A" unicode="&#x266a;" horiz-adv-x="1361" 
d="M1356 512h-139q0 82 -42 171t-82 140t-126 149t-136 169l3 -916q0 -113 -102 -183t-240 -69q-137 0 -239 70q-101 71 -101 183t101 182t227 70t214 -48v1083h140q0 -82 42 -171t82 -140t146 -173t179 -249t73 -268z" />
    <glyph glyph-name="married" unicode="&#x26ad;" horiz-adv-x="1134" 
d="M1348 512q0 168 -121 289t-281 121t-280 -105q92 -141 92 -305t-92 -305q118 -103 280 -103t282 120t120 288zM379 512q0 166 90 305q-121 105 -281 105t-279 -120q-120 -120 -120 -289t120 -289q121 -120 281 -120t279 103q-90 139 -90 305zM606 512q0 88 -39 172
q-37 -80 -37 -172t37 -172q39 84 39 172zM1499 512q0 -231 -165 -395t-388 -164t-379 139q-157 -139 -379 -139t-387 164q-164 164 -163 395q0 231 163 396q165 165 387 165t379 -141q158 141 380 141t387 -165t165 -396z" />
    <glyph glyph-name="divorced" unicode="&#x26ae;" horiz-adv-x="1134" 
d="M1176 104q130 0 200 121t70 288t-71 288t-199 121t-205 -122q-76 -122 -76 -287t76 -287t205 -122zM240 513q0 165 -76 287t-205 122t-200 -121t-71 -288t72 -288q70 -121 199 -121t205 122t76 287zM643 -608h-151v2240h151v-2240zM1597 512q-1 -225 -117 -392t-304 -167
t-305 167q-116 167 -115 392q0 225 115 393q117 168 305 168t304 -168t117 -393zM379 512q0 -225 -116 -392t-304 -167t-305 167t-117 392t117 393t305 168t304 -168t116 -393z" />
    <glyph glyph-name="dblbracketleft" unicode="&#x27e6;" horiz-adv-x="864" 
d="M432 -117v1491h-151v-1491h151zM735 -256h-606v1769h606v-139h-151v-1491h151v-139z" />
    <glyph glyph-name="dblbracketright" unicode="&#x27e7;" horiz-adv-x="864" 
d="M584 -117v1491h-152v-1491h152zM735 -256h-606v139h152v1491h-152v139h606v-1769z" />
    <glyph glyph-name="lessequal.slant" unicode="&#x2a7d;" horiz-adv-x="1241" 
d="M983 -385l-725 608v199l725 -608v-199zM983 137l-774 649v115l774 649v-196l-606 -510l606 -510v-197z" />
    <glyph glyph-name="greaterequal.slant" unicode="&#x2a7e;" horiz-adv-x="1241" 
d="M934 223l-725 -608v199l725 608v-199zM983 786l-774 -649v197l606 510l-606 510v196l774 -649v-115z" />
    <glyph glyph-name="abreveacute.sc" unicode="&#xe000;" horiz-adv-x="1292" 
d="M647 1229q-266 0 -311 246h131q20 -127 180 -127t180 127h131q-25 -131 -102 -189q-78 -57 -209 -57zM995 1774l-395 -234l-70 115l396 237zM846 502l-201 434l-203 -434h404zM1251 0h-168l-172 365h-534l-174 -365h-162l528 1120h152z" />
    <glyph glyph-name="abrevedotbelow.sc" unicode="&#xe001;" horiz-adv-x="1292" 
d="M723 -381h-152v258h152v-258zM643 1368q160 0 180 127h131q-24 -131 -102 -188t-209 -58q-266 0 -311 246h131q20 -127 180 -127zM846 502l-201 434l-203 -434h404zM1251 0h-168l-172 365h-534l-174 -365h-162l528 1120h152z" />
    <glyph glyph-name="abrevegrave.sc" unicode="&#xe002;" horiz-adv-x="1292" 
d="M647 1229q-266 0 -311 246h131q20 -127 180 -127t180 127h131q-25 -131 -102 -189q-78 -57 -209 -57zM760 1655l-70 -115l-395 234l70 118zM846 502l-201 434l-203 -434h404zM1251 0h-168l-172 365h-534l-174 -365h-162l528 1120h152z" />
    <glyph glyph-name="abrevehookabove.sc" unicode="&#xe003;" horiz-adv-x="1292" 
d="M647 1229q-266 0 -311 246h131q20 -127 180 -127t180 127h131q-25 -131 -102 -189q-78 -57 -209 -57zM651 1858q87 0 145 -47t58 -120t-80 -130q-68 -43 -69 -113h-109q2 113 90 182q57 41 57 66t-25 42q-26 17 -76 17t-79 -35l-16 -73h-107q6 211 211 211zM846 502
l-201 434l-203 -434h404zM1251 0h-168l-172 365h-534l-174 -365h-162l528 1120h152z" />
    <glyph glyph-name="abrevetilde.sc" unicode="&#xe004;" horiz-adv-x="1292" 
d="M647 1229q-266 0 -311 246h131q20 -127 180 -127t180 127h131q-25 -131 -102 -189q-78 -57 -209 -57zM544 1626q-32 0 -52 -10t-74 -55l-68 94q78 100 191 100q18 0 103 -32t116 -31q55 0 117 63l67 -94q-25 -41 -80 -71t-102 -30t-139 46q-47 20 -79 20zM846 502
l-201 434l-203 -434h404zM1251 0h-168l-172 365h-534l-174 -365h-162l528 1120h152z" />
    <glyph glyph-name="acaron.sc" unicode="&#xe005;" horiz-adv-x="1292" 
d="M1008 1501l-297 -258h-136l-292 258h182l176 -151l180 151h187zM846 502l-201 434l-203 -434h404zM1251 0h-168l-172 365h-534l-174 -365h-162l528 1120h152z" />
    <glyph glyph-name="acircumflexacute.sc" unicode="&#xe006;" horiz-adv-x="1292" 
d="M1008 1223h-183l-176 151l-180 -151h-186l297 258h135zM954 1755l-395 -233l-70 114l396 238zM846 502l-201 434l-203 -434h404zM1251 0h-168l-172 365h-534l-174 -365h-162l528 1120h152z" />
    <glyph glyph-name="acircumflexdotbelow.sc" unicode="&#xe007;" horiz-adv-x="1292" 
d="M723 -381h-152v258h152v-258zM1008 1243h-183l-176 152l-180 -152h-186l297 258h135zM846 502l-201 434l-203 -434h404zM1251 0h-168l-172 365h-534l-174 -365h-162l528 1120h152z" />
    <glyph glyph-name="acircumflexgrave.sc" unicode="&#xe008;" horiz-adv-x="1292" 
d="M1008 1223h-183l-176 151l-180 -151h-186l297 258h135zM801 1636l-70 -114l-395 233l70 119zM846 502l-201 434l-203 -434h404zM1251 0h-168l-172 365h-534l-174 -365h-162l528 1120h152z" />
    <glyph glyph-name="acircumflexhookabove.sc" unicode="&#xe009;" horiz-adv-x="1292" 
d="M1008 1223h-183l-176 151l-180 -151h-186l297 258h135zM805 1956q87 0 145 -47t58 -120t-80 -130q-68 -43 -70 -113h-108q2 113 90 183q57 41 57 65t-26 42q-25 17 -75 17t-79 -34l-17 -74h-106q6 211 211 211zM846 502l-201 434l-203 -434h404zM1251 0h-168l-172 365
h-534l-174 -365h-162l528 1120h152z" />
    <glyph glyph-name="acircumflextilde.sc" unicode="&#xe00a;" horiz-adv-x="1292" 
d="M1008 1223h-183l-176 151l-180 -151h-186l297 258h135zM762 1542q-47 0 -139 45q-83 36 -130 11q-22 -10 -75 -56l-68 94q78 100 191 101q18 0 103 -32t116 -32q55 0 117 64l67 -95q-25 -40 -80 -70t-102 -30zM846 502l-201 434l-203 -434h404zM1251 0h-168l-172 365
h-534l-174 -365h-162l528 1120h152z" />
    <glyph glyph-name="adblgrave.sc" unicode="&#xe00b;" horiz-adv-x="1292" 
d="M514 1294l-72 -96l-356 248l78 100zM915 1294l-71 -96l-357 248l78 100zM846 502l-201 434l-203 -434h404zM1251 0h-168l-172 365h-534l-174 -365h-162l528 1120h152z" />
    <glyph glyph-name="adotbelow.sc" unicode="&#xe00c;" horiz-adv-x="1292" 
d="M723 -381h-152v258h152v-258zM846 502l-201 434l-203 -434h404zM1251 0h-168l-172 365h-534l-174 -365h-162l528 1120h152z" />
    <glyph glyph-name="ahookabove.sc" unicode="&#xe00d;" horiz-adv-x="1292" 
d="M649 1618q87 0 145 -47t58 -120t-80 -130q-68 -43 -70 -113h-108q2 113 90 183q57 41 57 65t-25 42q-26 18 -76 18t-79 -35l-16 -74h-107q6 211 211 211zM846 502l-201 434l-203 -434h404zM1251 0h-168l-172 365h-534l-174 -365h-162l528 1120h152z" />
    <glyph glyph-name="aogonekacute.sc" unicode="&#xe00f;" horiz-adv-x="1292" 
d="M956 1450l-395 -233l-69 114l395 238zM846 502l-201 434l-203 -434h404zM1176 -512q-102 0 -176 76q-72 76 -72 166t51 158t104 112l-172 365h-534l-174 -365h-162l528 1120h152l530 -1120q-172 -98 -172 -256q0 -41 29 -73q29 -31 72 -31t98 10v-154q-43 -8 -102 -8z
" />
    <glyph glyph-name="aringacute.sc" unicode="&#xe010;" horiz-adv-x="1292" 
d="M760 1378q0 47 -34 81t-81 34t-81 -34t-34 -82t34 -81q34 -32 81 -32t81 34t34 80zM852 1377q0 -85 -60 -145t-146 -60t-147 60t-61 146t60 146t147 61q86 0 147 -61q60 -62 60 -147zM954 1860l-395 -234l-70 115l396 237zM846 502l-201 434l-203 -434h404zM1251 0h-168
l-172 365h-534l-174 -365h-162l528 1120h152z" />
    <glyph glyph-name="dcroat.sc" unicode="&#xe011;" horiz-adv-x="1347" 
d="M1114 561q0 115 -54 207t-153 145q-125 70 -375 70h-149v-338h330v-137h-330v-369h149q289 0 418 94q164 119 164 328zM1268 557q0 -253 -178 -405t-523 -152h-336v508h-155v137h155v475h295q305 0 461 -86q281 -151 281 -477z" />
    <glyph glyph-name="ddotbelow.sc" unicode="&#xe012;" horiz-adv-x="1273" 
d="M606 -381h-151v258h151v-258zM1040 561q0 115 -54 207t-152 145q-125 70 -375 70h-150v-844h150q289 0 418 94q163 119 163 328zM1192 557q0 -253 -177 -405t-521 -152h-336v1120h295q305 0 460 -86q279 -149 279 -477z" />
    <glyph glyph-name="dlinebelow.sc" unicode="&#xe013;" horiz-adv-x="1273" 
d="M877 -317h-691v131h691v-131zM1040 561q0 115 -54 207t-152 145q-125 70 -375 70h-150v-844h150q289 0 418 94q163 119 163 328zM1192 557q0 -253 -177 -405t-521 -152h-336v1120h295q305 0 460 -86q279 -149 279 -477z" />
    <glyph glyph-name="dotlessi.sc" unicode="&#xe014;" horiz-adv-x="464" 
d="M309 0h-151v1120h151v-1120z" />
    <glyph glyph-name="dotlessj.sc" unicode="&#xe015;" horiz-adv-x="876" 
d="M721 358q0 -188 -86 -283t-245 -95t-248 85t-91 232h152q-2 -82 49 -129t137 -47q180 0 180 237v762h152v-762z" />
    <glyph glyph-name="ecircumflexacute.sc" unicode="&#xe016;" horiz-adv-x="933" 
d="M860 1223h-182l-176 151l-180 -151h-187l297 258h135zM807 1755l-395 -233l-70 114l395 238zM840 1120v-137h-531v-348h512v-137h-512v-359h531v-139h-682v1120h682z" />
    <glyph glyph-name="ecircumflexdotbelow.sc" unicode="&#xe017;" horiz-adv-x="933" 
d="M543 -381h-152v258h152v-258zM860 1243h-182l-176 152l-180 -152h-187l297 258h135zM840 1120v-137h-531v-348h512v-137h-512v-359h531v-139h-682v1120h682z" />
    <glyph glyph-name="ecircumflexgrave.sc" unicode="&#xe018;" horiz-adv-x="933" 
d="M860 1223h-182l-176 151l-180 -151h-187l297 258h135zM653 1636l-69 -114l-396 233l70 119zM840 1120v-137h-531v-348h512v-137h-512v-359h531v-139h-682v1120h682z" />
    <glyph glyph-name="ecircumflexhookabove.sc" unicode="&#xe019;" horiz-adv-x="933" 
d="M860 1223h-182l-176 151l-180 -151h-187l297 258h135zM657 1956q87 0 145 -47t58 -120t-80 -130q-68 -43 -69 -113h-109q2 113 90 183q58 41 58 65t-26 42q-26 17 -76 17t-79 -34l-16 -74h-107q6 211 211 211zM840 1120v-137h-531v-348h512v-137h-512v-359h531v-139h-682
v1120h682z" />
    <glyph glyph-name="ecircumflextilde.sc" unicode="&#xe01a;" horiz-adv-x="933" 
d="M860 1223h-182l-176 151l-180 -151h-187l297 258h135zM614 1542q-48 0 -139 45q-83 36 -130 11q-12 -6 -75 -56l-67 94q78 100 190 101q17 0 103 -32t116 -32q55 0 117 64l68 -95q-25 -40 -80 -70t-103 -30zM840 1120v-137h-531v-348h512v-137h-512v-359h531v-139h-682
v1120h682z" />
    <glyph glyph-name="edblgrave.sc" unicode="&#xe01b;" horiz-adv-x="933" 
d="M367 1294l-72 -96l-356 248l77 100zM768 1294l-72 -96l-356 248l78 100zM840 1120v-137h-531v-348h512v-137h-512v-359h531v-139h-682v1120h682z" />
    <glyph glyph-name="edotbelow.sc" unicode="&#xe01c;" horiz-adv-x="933" 
d="M543 -381h-152v258h152v-258zM840 1120v-137h-531v-348h512v-137h-512v-359h531v-139h-682v1120h682z" />
    <glyph glyph-name="ehookabove.sc" unicode="&#xe01d;" horiz-adv-x="933" 
d="M502 1618q88 0 146 -47t57 -120q0 -73 -80 -130q-68 -43 -70 -113h-109q2 113 91 183q57 41 57 65t-26 42t-76 18t-78 -35l-17 -74h-106q6 211 211 211zM840 1120v-137h-531v-348h512v-137h-512v-359h531v-139h-682v1120h682z" />
    <glyph glyph-name="eogonekacute.sc" unicode="&#xe01e;" horiz-adv-x="933" 
d="M776 1450l-395 -233l-70 114l396 238zM764 -512q-104 0 -176 76t-72 180q0 135 172 256h-530v1120h682v-137h-531v-348h512v-137h-512v-359h531v-139q-172 -98 -172 -256q0 -43 28 -74q28 -30 70 -30q43 0 100 10v-154q-47 -8 -102 -8z" />
    <glyph glyph-name="ereversed.sc" unicode="&#xe01f;" horiz-adv-x="933" 
d="M840 0h-682v139h530v359h-514v137h514v348h-530v137h682v-1120z" />
    <glyph glyph-name="etilde.sc" unicode="&#xe020;" horiz-adv-x="933" 
d="M612 1276q-48 0 -139 45q-47 20 -79 20t-48 -7t-78 -58l-67 94q78 100 190 100q17 0 103 -32t116 -31q55 0 117 63l68 -94q-25 -40 -80 -70t-103 -30zM840 1120v-137h-531v-348h512v-137h-512v-359h531v-139h-682v1120h682z" />
    <glyph glyph-name="eturned.sc" unicode="&#xe021;" horiz-adv-x="933" 
d="M840 1120v-1120h-682v139h530v346h-514v140h514v358h-530v137h682z" />
    <glyph glyph-name="gacute.sc" unicode="&#xe022;" horiz-adv-x="1447" 
d="M1036 1450l-395 -233l-70 114l396 238zM82 562q0 244 186 411q186 168 459 168q209 1 373 -97t217 -251h-168q-57 98 -167 152t-245 54q-213 0 -358 -126t-145 -312t146 -313q148 -127 359 -127q156 0 285 81t172 199h-657v138h841q-4 -223 -186 -391t-457 -166
q-275 0 -465 168t-190 412z" />
    <glyph glyph-name="gcaron.sc" unicode="&#xe023;" horiz-adv-x="1447" 
d="M1090 1501l-297 -258h-136l-292 258h182l176 -151l180 151h187zM82 562q0 244 186 411q186 168 459 168q209 1 373 -97t217 -251h-168q-57 98 -167 152t-245 54q-213 0 -358 -126t-145 -312t146 -313q148 -127 359 -127q156 0 285 81t172 199h-657v138h841
q-4 -223 -186 -391t-457 -166q-275 0 -465 168t-190 412z" />
    <glyph glyph-name="germandbls.sc" unicode="&#xe024;" horiz-adv-x="1931" 
d="M1802 332q0 -154 -106 -252t-274 -98t-275 100q-106 100 -107 262h158q8 -106 72 -164t158 -59q96 0 158 54t62 138t-52 126q-54 42 -180 77t-168 53q-44 18 -79 52q-90 77 -90 209q-1 132 97 222t254 89q156 0 253 -93q98 -93 91 -241h-158q8 86 -48 139t-142 53
t-140 -47q-53 -47 -53 -117q0 -69 37 -103q36 -34 188 -76t217 -85q127 -85 127 -239zM893 330q-1 -154 -107 -250q-106 -98 -274 -98t-274 99t-109 263h158q8 -106 71 -164q64 -58 160 -59q96 0 159 54q62 54 62 138t-53 126t-179 77t-169 53t-80 52q-90 77 -90 209t97 222
t253 89q156 0 254 -93t90 -241h-155q9 86 -49 139t-143 53t-139 -47q-54 -46 -54 -114t36 -104t188 -77q151 -41 218 -86q129 -87 129 -241z" />
    <glyph glyph-name="h_uni0303.sc" unicode="&#xe025;" horiz-adv-x="1200" 
d="M717 1255q-47 0 -139 45q-81 34 -131 12q-26 -12 -74 -57l-68 95q78 100 191 100q18 0 103 -32t116 -32q55 0 116 64l68 -94q-25 -41 -80 -71t-102 -30zM1042 0h-151v508h-582v-508h-151v1120h151v-475h582v475h151v-1120z" />
    <glyph glyph-name="hbrevebelow.sc" unicode="&#xe026;" horiz-adv-x="1200" 
d="M600 -256q160 0 180 127h131q-25 -131 -103 -188t-208 -58q-266 0 -311 246h131q20 -127 180 -127zM1042 0h-151v508h-582v-508h-151v1120h151v-475h582v475h151v-1120z" />
    <glyph glyph-name="hdieresis.sc" unicode="&#xe027;" horiz-adv-x="1200" 
d="M827 1223h-151v258h151v-258zM526 1223h-151v258h151v-258zM1042 0h-151v508h-582v-508h-151v1120h151v-475h582v475h151v-1120z" />
    <glyph glyph-name="icaron.sc" unicode="&#xe028;" horiz-adv-x="464" 
d="M596 1501l-297 -258h-135l-293 258h182l176 -151l181 151h186zM309 0h-151v1120h151v-1120z" />
    <glyph glyph-name="idblgrave.sc" unicode="&#xe029;" horiz-adv-x="464" 
d="M102 1294l-71 -96l-357 248l78 100zM504 1294l-72 -96l-356 248l78 100zM309 0h-151v1120h151v-1120z" />
    <glyph glyph-name="idieresisacute.sc" unicode="&#xe02a;" horiz-adv-x="464" 
d="M543 1843l-396 -233l-69 114l395 238zM459 1243h-152v258h152v-258zM158 1243h-152v258h152v-258zM309 0h-151v1120h151v-1120z" />
    <glyph glyph-name="idotbelow.sc" unicode="&#xe02c;" horiz-adv-x="464" 
d="M309 -381h-151v258h151v-258zM309 0h-151v1120h151v-1120z" />
    <glyph glyph-name="ihookabove.sc" unicode="&#xe02d;" horiz-adv-x="464" 
d="M440 1451q0 -73 -80 -130q-68 -43 -69 -113h-109q2 113 90 183q58 41 58 65t-26 42t-76 18t-78 -35l-17 -74h-106q6 211 211 211q88 0 145 -47t57 -120zM309 0h-151v1120h151v-1120z" />
    <glyph glyph-name="imacron.alt.sc" unicode="&#xe02e;" horiz-adv-x="464" 
d="M414 1307h-359v131h359v-131zM309 0h-151v1120h151v-1120z" />
    <glyph glyph-name="iogonekacute.sc" unicode="&#xe02f;" horiz-adv-x="464" 
d="M553 1450l-395 -233l-70 114l395 238zM233 -512q-104 0 -176 76q-71 76 -71 165t51 160q53 70 121 111v1120h151v-1120q-172 -98 -172 -256q0 -43 28 -74q29 -30 71 -30t100 10v-154q-47 -8 -103 -8z" />
    <glyph glyph-name="jacute.sc" unicode="&#xe030;" horiz-adv-x="876" 
d="M965 1450l-396 -233l-69 114l395 238zM721 358q0 -188 -86 -283t-245 -95t-248 85t-91 232h152q-2 -82 49 -129t137 -47q180 0 180 237v762h152v-762z" />
    <glyph glyph-name="l_uni0303.sc" unicode="&#xe031;" horiz-adv-x="815" 
d="M348 1276q-48 0 -139 45q-47 20 -79 20t-52 -10t-74 -55l-67 94q78 100 190 100q18 0 103 -32t116 -31q55 0 117 63l67 -94q-26 -40 -80 -70t-102 -30zM801 0h-643v1120h151v-981h492v-139z" />
    <glyph glyph-name="lslash.sc" unicode="&#xe032;" horiz-adv-x="903" 
d="M874 0h-643v428l-155 -117v170l155 117v522h152v-426l256 195v-172l-256 -193v-385h491v-139z" />
    <glyph glyph-name="ocaron.sc" unicode="&#xe033;" horiz-adv-x="1449" 
d="M1087 1501l-296 -258h-136l-293 258h183l176 -151l180 151h186zM1217 559q1 180 -145 310t-346 130t-346 -129t-146 -310t144 -310t346 -129t348 129t145 309zM82 562q0 238 190 408t454 171q264 0 454 -171t190 -409q0 -239 -189 -409t-457 -170t-455 171t-187 409z" />
    <glyph glyph-name="ocircumflexacute.sc" unicode="&#xe034;" horiz-adv-x="1449" 
d="M1087 1223h-182l-176 151l-180 -151h-187l297 258h136zM1034 1755l-395 -233l-70 114l396 238zM1217 559q1 180 -145 310t-346 130t-346 -129t-146 -310t144 -310t346 -129t348 129t145 309zM82 562q0 238 190 408t454 171q264 0 454 -171t190 -409q0 -239 -189 -409
t-457 -170t-455 171t-187 409z" />
    <glyph glyph-name="ocircumflexdotbelow.sc" unicode="&#xe035;" horiz-adv-x="1449" 
d="M801 -362h-152v258h152v-258zM1087 1243h-182l-176 152l-180 -152h-187l297 258h136zM1217 559q1 180 -145 310t-346 130t-346 -129t-146 -310t144 -310t346 -129t348 129t145 309zM82 562q0 238 190 408t454 171q264 0 454 -171t190 -409q0 -239 -189 -409t-457 -170
t-455 171t-187 409z" />
    <glyph glyph-name="ocircumflexgrave.sc" unicode="&#xe036;" horiz-adv-x="1449" 
d="M1087 1223h-182l-176 151l-180 -151h-187l297 258h136zM881 1636l-70 -114l-395 233l69 119zM1217 559q1 180 -145 310t-346 130t-346 -129t-146 -310t144 -310t346 -129t348 129t145 309zM82 562q0 238 190 408t454 171q264 0 454 -171t190 -409q0 -239 -189 -409
t-457 -170t-455 171t-187 409z" />
    <glyph glyph-name="ocircumflexhookabove.sc" unicode="&#xe037;" horiz-adv-x="1449" 
d="M1087 1223h-182l-176 151l-180 -151h-187l297 258h136zM1087 1789q0 -73 -79 -130q-68 -43 -70 -113h-109q2 113 91 183q57 41 57 65t-26 42q-25 17 -75 17t-79 -34l-17 -74h-106q6 211 211 211q88 0 145 -47t57 -120zM1217 559q1 180 -145 310t-346 130t-346 -129
t-146 -310t144 -310t346 -129t348 129t145 309zM82 562q0 238 190 408t454 171q264 0 454 -171t190 -409q0 -239 -189 -409t-457 -170t-455 171t-187 409z" />
    <glyph glyph-name="ocircumflextilde.sc" unicode="&#xe038;" horiz-adv-x="1449" 
d="M1087 1223h-182l-176 151l-180 -151h-187l297 258h136zM842 1542q-47 0 -140 45q-82 35 -130 11q-19 -9 -74 -56l-68 94q78 100 191 101q18 0 103 -32t116 -32q55 0 116 64l68 -95q-25 -40 -80 -70t-102 -30zM1217 559q1 180 -145 310t-346 130t-346 -129t-146 -310
t144 -310t346 -129t348 129t145 309zM82 562q0 238 190 408t454 171q264 0 454 -171t190 -409q0 -239 -189 -409t-457 -170t-455 171t-187 409z" />
    <glyph glyph-name="odblgrave.sc" unicode="&#xe039;" horiz-adv-x="1449" 
d="M594 1294l-72 -96l-356 248l78 100zM995 1294l-71 -96l-357 248l78 100zM1217 559q1 180 -145 310t-346 130t-346 -129t-146 -310t144 -310t346 -129t348 129t145 309zM82 562q0 238 190 408t454 171q264 0 454 -171t190 -409q0 -239 -189 -409t-457 -170t-455 171
t-187 409z" />
    <glyph glyph-name="odotbelow.sc" unicode="&#xe03a;" horiz-adv-x="1449" 
d="M801 -381h-152v258h152v-258zM1217 559q1 180 -145 310t-346 130t-346 -129t-146 -310t144 -310t346 -129t348 129t145 309zM82 562q0 238 190 408t454 171q264 0 454 -171t190 -409q0 -239 -189 -409t-457 -170t-455 171t-187 409z" />
    <glyph glyph-name="oe.sc" unicode="&#xe03b;" horiz-adv-x="1966" 
d="M1210 563q0 189 -138 313t-349 124t-350 -124t-139 -313t142 -315t352 -127q210 0 346 126t136 316zM1872 1120v-137h-512v-348h495v-137h-495v-359h512v-139h-664v186q-160 -204 -457 -204t-483 164t-186 414q0 249 182 415t457 166q319 0 487 -203v182h664z" />
    <glyph glyph-name="ohookabove.sc" unicode="&#xe03c;" horiz-adv-x="1449" 
d="M729 1618q87 0 145 -47t58 -120t-80 -130q-68 -43 -70 -113h-108q2 113 90 183q57 41 57 65t-25 42q-26 18 -76 18t-79 -35l-16 -74h-107q6 211 211 211zM1217 559q1 180 -145 310t-346 130t-346 -129t-146 -310t144 -310t346 -129t348 129t145 309zM82 562
q0 238 190 408t454 171q264 0 454 -171t190 -409q0 -239 -189 -409t-457 -170t-455 171t-187 409z" />
    <glyph glyph-name="ohorn.sc" unicode="&#xe03d;" horiz-adv-x="1529" 
d="M1243 559q0 180 -145 310t-345 130t-346 -129q-147 -129 -147 -310t144 -310t346 -129t348 129q145 129 145 309zM1477 1120q0 -203 -140 -319q59 -119 60 -242q1 -237 -189 -407t-457 -170t-455 171q-187 171 -187 409t190 408t453 171q152 1 284 -61t226 -167
q84 84 84 207h131z" />
    <glyph glyph-name="ohornacute.sc" unicode="&#xe03e;" horiz-adv-x="1529" 
d="M1061 1450l-395 -233l-70 114l395 238zM1243 559q0 180 -145 310t-345 130t-346 -129q-147 -129 -147 -310t144 -310t346 -129t348 129q145 129 145 309zM1477 1120q0 -203 -140 -319q59 -119 60 -242q1 -237 -189 -407t-457 -170t-455 171q-187 171 -187 409t190 408
t453 171q152 1 284 -61t226 -167q84 84 84 207h131z" />
    <glyph glyph-name="ohorndotbelow.sc" unicode="&#xe03f;" horiz-adv-x="1529" 
d="M827 -362h-151v258h151v-258zM1243 559q0 180 -145 310t-345 130t-346 -129q-147 -129 -147 -310t144 -310t346 -129t348 129q145 129 145 309zM1477 1120q0 -203 -140 -319q59 -119 60 -242q1 -237 -189 -407t-457 -170t-455 171q-187 171 -187 409t190 408t453 171
q152 1 284 -61t226 -167q84 84 84 207h131z" />
    <glyph glyph-name="ohorngrave.sc" unicode="&#xe040;" horiz-adv-x="1529" 
d="M907 1331l-69 -114l-396 233l70 119zM1243 559q0 180 -145 310t-345 130t-346 -129q-147 -129 -147 -310t144 -310t346 -129t348 129q145 129 145 309zM1477 1120q0 -203 -140 -319q59 -119 60 -242q1 -237 -189 -407t-457 -170t-455 171q-187 171 -187 409t190 408
t453 171q152 1 284 -61t226 -167q84 84 84 207h131z" />
    <glyph glyph-name="ohornhookabove.sc" unicode="&#xe041;" horiz-adv-x="1529" 
d="M958 1451q0 -73 -79 -130q-68 -43 -70 -113h-109q2 113 91 183q57 41 57 65t-26 42t-76 18t-78 -35l-17 -74h-106q6 211 211 211q88 0 145 -47t57 -120zM1243 559q0 180 -145 310t-345 130t-346 -129q-147 -129 -147 -310t144 -310t346 -129t348 129q145 129 145 309z
M1477 1120q0 -203 -140 -319q59 -119 60 -242q1 -237 -189 -407t-457 -170t-455 171q-187 171 -187 409t190 408t453 171q152 1 284 -61t226 -167q84 84 84 207h131z" />
    <glyph glyph-name="ohorntilde.sc" unicode="&#xe042;" horiz-adv-x="1529" 
d="M866 1276q-48 0 -139 45q-47 20 -79 20t-48 -7t-78 -58l-67 94q78 100 190 100q17 0 103 -32t116 -31q55 0 117 63l68 -94q-25 -40 -80 -70t-103 -30zM1243 559q0 180 -145 310t-345 130t-346 -129q-147 -129 -147 -310t144 -310t346 -129t348 129q145 129 145 309z
M1477 1120q0 -203 -140 -319q59 -119 60 -242q1 -237 -189 -407t-457 -170t-455 171q-187 171 -187 409t190 408t453 171q152 1 284 -61t226 -167q84 84 84 207h131z" />
    <glyph glyph-name="oogonek.sc" unicode="&#xe043;" horiz-adv-x="1449" 
d="M1217 559q1 180 -145 310t-346 130t-346 -129t-146 -310t144 -310t346 -129t348 129t145 309zM1370 559q0 -162 -96 -300t-252 -212q-260 -125 -260 -303q0 -43 28 -74q28 -30 70 -30t101 10v-154q-43 -8 -103 -8q-104 0 -176 76t-72 190t148 228h-33q-268 0 -456 171
q-187 171 -187 409t190 408t454 171q264 0 454 -171t190 -411z" />
    <glyph glyph-name="oogonekacute.sc" unicode="&#xe044;" horiz-adv-x="1449" 
d="M1034 1450l-395 -233l-70 114l396 238zM1217 559q1 180 -145 310t-346 130t-346 -129t-146 -310t144 -310t346 -129t348 129t145 309zM1370 559q0 -162 -96 -300t-252 -212q-260 -125 -260 -303q0 -43 28 -74q28 -30 70 -30t101 10v-154q-43 -8 -103 -8q-104 0 -176 76
t-72 190t148 228h-33q-268 0 -456 171q-187 171 -187 409t190 408t454 171q264 0 454 -171t190 -411z" />
    </font>
</defs>
</svg>
