<?xml version="1.0" encoding="UTF-8" standalone="no"?>
<svg width="32px" height="26px" viewBox="0 0 32 26" version="1.1" xmlns="http://www.w3.org/2000/svg" xmlns:xlink="http://www.w3.org/1999/xlink" xmlns:sketch="http://www.bohemiancoding.com/sketch/ns">
    <!-- Generator: Sketch 3.3.1 (12005) - http://www.bohemiancoding.com/sketch -->
    <title>Fill 116</title>
    <desc>Created with Sketch.</desc>
    <defs></defs>
    <g id="Page-1" stroke="none" stroke-width="1" fill="none" fill-rule="evenodd" sketch:type="MSPage">
        <g id="Desktop-HD-Copy" sketch:type="MSArtboardGroup" transform="translate(-184.000000, -299.000000)" fill="#000000">
            <path d="M215.691029,310 L212.848029,310 C211.883029,303.772 206.509029,299 200.005029,299 C194.990029,299 190.645029,301.839 188.472029,305.991 L190.336029,306.736 C192.205029,303.318 195.834029,301 200.005029,301 C205.402029,301 209.883029,304.881 210.826029,310 L207.410029,310 C207.100029,310.301 206.804029,310.486 207.248029,311.007 L210.978029,314.801 C211.288029,315.101 211.789029,315.101 212.097029,314.801 L215.853029,311.007 C216.162029,310.706 216.000029,310.301 215.691029,310 L215.691029,310 Z M200.005029,323 C194.966029,323 190.723029,319.616 189.417029,315 L192.668029,315 C192.978029,314.7 193.139029,314.294 192.831029,313.994 L189.075029,310.199 C188.766029,309.899 188.265029,309.899 187.956029,310.199 L184.225029,313.994 C183.782029,314.515 184.078029,314.7 184.387029,315 L187.368029,315 C188.724029,320.73 193.855029,325 200.005029,325 C204.685029,325 208.775029,322.524 211.068029,318.82 L209.185029,318.068 C207.214029,321.039 203.840029,323 200.005029,323 L200.005029,323 Z" id="Fill-116" sketch:type="MSShapeGroup"></path>
        </g>
    </g>
</svg>