<?xml version="1.0" encoding="UTF-8" standalone="no"?>
<svg width="46px" height="46px" viewBox="0 0 46 46" version="1.1" xmlns="http://www.w3.org/2000/svg" xmlns:xlink="http://www.w3.org/1999/xlink" xmlns:sketch="http://www.bohemiancoding.com/sketch/ns">
    <!-- Generator: Sketch 3.3.1 (12005) - http://www.bohemiancoding.com/sketch -->
    <title>Pause</title>
    <desc>Created with Sketch.</desc>
    <defs>
        <path id="path-1" d="M0,22 C0,34.1511837 9.87357405,44 22.0512821,44 C34.2289901,44 44.1025641,34.1511837 44.1025641,22 C44.1025641,9.84881633 34.2289901,0 22.0512821,0 C9.87357405,0 0,9.84881633 0,22 Z"></path>
    </defs>
    <g id="Page-1" stroke="none" stroke-width="1" fill="none" fill-rule="evenodd" sketch:type="MSPage">
        <g id="Desktop-HD" sketch:type="MSArtboardGroup" transform="translate(-654.000000, -501.000000)">
            <g id="Buttons" sketch:type="MSLayerGroup" transform="translate(654.000000, 502.000000)">
                <g id="Pause" transform="translate(0.948718, 0.000000)">
                    <g id="Shape-copy-3">
                        <use stroke="none" fill="#FFFFFF" fill-rule="evenodd" sketch:type="MSShapeGroup" xlink:href="#path-1"></use>
                        <use stroke="#E9E9E9" stroke-width="1" fill="none" xlink:href="#path-1"></use>
                    </g>
                    <path d="M16.1115514,14.3 C15.7386817,14.3 15.4358974,14.5728242 15.4358974,14.9095915 L15.4358974,29.0900533 C15.4358974,29.4268206 15.7386818,29.7 16.1115514,29.7 L19.1701062,29.7 C19.5429758,29.7 19.8461538,29.4268206 19.8461538,29.0900533 L19.8461538,14.9095915 C19.8457615,14.5725008 19.5429842,14.3 19.1701062,14.3 L16.1115514,14.3 Z M27.990619,14.3 L24.9324579,14.3 C24.5591946,14.3 24.2564103,14.5728242 24.2564103,14.9095915 L24.2564103,29.0900533 C24.2564103,29.4268206 24.5591946,29.7 24.9324579,29.7 L27.990619,29.7 C28.3638824,29.7 28.6666667,29.4268206 28.6666667,29.0900533 L28.6666667,14.9095915 C28.6666828,14.5725008 28.3638816,14.3 27.990619,14.3 Z" id="Shape" fill="#000000" sketch:type="MSShapeGroup"></path>
                </g>
            </g>
        </g>
    </g>
</svg>