<?xml version="1.0" encoding="UTF-8" standalone="no"?>
<svg width="17px" height="18px" viewBox="0 0 17 18" version="1.1" xmlns="http://www.w3.org/2000/svg" xmlns:xlink="http://www.w3.org/1999/xlink" xmlns:sketch="http://www.bohemiancoding.com/sketch/ns">
    <!-- Generator: Sketch 3.3.1 (12005) - http://www.bohemiancoding.com/sketch -->
    <title>Fill 98</title>
    <desc>Created with Sketch.</desc>
    <defs></defs>
    <g id="Page-1" stroke="none" stroke-width="1" fill="none" fill-rule="evenodd" sketch:type="MSPage">
        <g id="Desktop-HD-Copy" sketch:type="MSArtboardGroup" transform="translate(-236.000000, -303.000000)" fill="#000000">
            <path d="M249.458333,319.615385 C248.284625,319.615385 247.333333,318.685615 247.333333,317.538462 C247.333333,316.391308 248.284625,315.461538 249.458333,315.461538 C250.632042,315.461538 251.583333,316.391308 251.583333,317.538462 C251.583333,318.685615 250.632042,319.615385 249.458333,319.615385 L249.458333,319.615385 Z M239.541667,314.076923 C238.367958,314.076923 237.416667,313.147154 237.416667,312 C237.416667,310.853538 238.367958,309.923077 239.541667,309.923077 C240.715375,309.923077 241.666667,310.853538 241.666667,312 C241.666667,313.147154 240.715375,314.076923 239.541667,314.076923 L239.541667,314.076923 Z M249.458333,304.384615 C250.632042,304.384615 251.583333,305.314385 251.583333,306.461538 C251.583333,307.608692 250.632042,308.538462 249.458333,308.538462 C248.284625,308.538462 247.333333,307.608692 247.333333,306.461538 C247.333333,305.314385 248.284625,304.384615 249.458333,304.384615 L249.458333,304.384615 Z M249.458333,314.076923 C248.204583,314.076923 247.110208,314.717308 246.4805,315.677538 L242.687375,313.559077 C242.932458,313.088308 243.083333,312.563538 243.083333,312 C243.083333,311.651769 243.014625,311.322231 242.916875,311.005154 L246.863,308.801538 C247.509708,309.486923 248.429125,309.923077 249.458333,309.923077 C251.41475,309.923077 253,308.373692 253,306.461538 C253,304.549385 251.41475,303 249.458333,303 C247.501917,303 245.916667,304.549385 245.916667,306.461538 C245.916667,306.809769 245.985375,307.139308 246.083125,307.457077 L242.137,309.66 C241.490292,308.975308 240.570875,308.538462 239.541667,308.538462 C237.58525,308.538462 236,310.087846 236,312 C236,313.912154 237.58525,315.461538 239.541667,315.461538 C240.349167,315.461538 241.085125,315.187385 241.680833,314.742923 L241.666667,314.769231 L245.955625,317.164615 C245.941458,317.289231 245.916667,317.409692 245.916667,317.538462 C245.916667,319.450615 247.501917,321 249.458333,321 C251.41475,321 253,319.450615 253,317.538462 C253,315.626308 251.41475,314.076923 249.458333,314.076923 L249.458333,314.076923 Z" id="Fill-98" sketch:type="MSShapeGroup"></path>
        </g>
    </g>
</svg>