<?xml version="1.0" encoding="UTF-8" standalone="no"?>
<svg width="30px" height="24px" viewBox="0 0 30 24" version="1.1" xmlns="http://www.w3.org/2000/svg" xmlns:xlink="http://www.w3.org/1999/xlink" xmlns:sketch="http://www.bohemiancoding.com/sketch/ns">
    <!-- Generator: Sketch 3.3.1 (12005) - http://www.bohemiancoding.com/sketch -->
    <title>Fill 129</title>
    <desc>Created with Sketch.</desc>
    <defs></defs>
    <g id="Page-1" stroke="none" stroke-width="1" fill="none" fill-rule="evenodd" sketch:type="MSPage">
        <g id="Icon-Set" sketch:type="MSLayerGroup" transform="translate(-256.000000, -571.000000)" fill="#000000">
            <g id="Rectangle-1" transform="translate(252.000000, 568.000000)" sketch:type="MSShapeGroup">
                <path d="M18.0074507,25 L11.0037253,20.625 L11.0037253,9.375 L18.0074507,5 L18.0074507,25 L18.0074507,25 Z M9.00266096,18 C9.00266096,18.553 8.55442253,19 8.00212877,19 L7.00159657,19 C6.4493028,19 6.00106438,18.553 6.00106438,18 L6.00106438,12 C6.00106438,11.448 6.4493028,11 7.00159657,11 L8.00212877,11 C8.55442253,11 9.00266096,11.448 9.00266096,12 L9.00266096,18 L9.00266096,18 Z M29.4575411,15 L33.6327619,10.827 C34.0830014,10.377 34.1250237,9.688 33.7268119,9.289 C33.3275996,8.891 32.6382329,8.933 32.1879934,9.383 L28.0127726,13.556 L23.8375518,9.383 C23.3873123,8.933 22.6979456,8.891 22.2987332,9.289 C21.9005214,9.688 21.9425438,10.377 22.3927833,10.827 L26.5680041,15 L22.3927833,19.173 C21.9425438,19.623 21.9005214,20.312 22.2987332,20.711 C22.6979456,21.109 23.3873123,21.067 23.8375518,20.617 L28.0127726,16.444 L32.1879934,20.617 C32.6382329,21.067 33.3275996,21.109 33.7268119,20.711 C34.1250237,20.312 34.0830014,19.623 33.6327619,19.173 L29.4575411,15 L29.4575411,15 Z M18.0074507,3 L9.00266096,9 L6.00106438,9 C4.89647684,9 4,9.896 4,11 L4,19 C4,20.104 4.89647684,21 6.00106438,21 L9.00266096,21 L18.0074507,27 C19.1120382,27 20.0085151,26.104 20.0085151,25 L20.0085151,5 C20.0085151,3.896 19.1120382,3 18.0074507,3 L18.0074507,3 Z" id="Fill-129"></path>
            </g>
        </g>
    </g>
</svg>