<?xml version="1.0" encoding="UTF-8" standalone="no"?>
<svg width="19px" height="18px" viewBox="0 0 19 18" version="1.1" xmlns="http://www.w3.org/2000/svg" xmlns:xlink="http://www.w3.org/1999/xlink" xmlns:sketch="http://www.bohemiancoding.com/sketch/ns">
    <!-- Generator: Sketch 3.3.1 (12005) - http://www.bohemiancoding.com/sketch -->
    <title>Fill 130</title>
    <desc>Created with Sketch.</desc>
    <defs></defs>
    <g id="Page-1" stroke="none" stroke-width="1" fill="none" fill-rule="evenodd" sketch:type="MSPage">
        <g id="Desktop-HD-Copy" sketch:type="MSArtboardGroup" transform="translate(-275.000000, -303.000000)" fill="#000000">
            <path d="M289.44,306.82575 L289.44,308.32575 C291.17432,308.673 292.48,310.18575 292.48,312 C292.48,313.81425 291.17432,315.327 289.44,315.67425 L289.44,317.17425 C292.01488,316.8075 294,314.64225 294,312 C294,309.35775 292.01488,307.1925 289.44,306.82575 L289.44,306.82575 Z M285.64,319.5 L280.32,316.21875 L280.32,307.78125 L285.64,304.5 L285.64,319.5 L285.64,319.5 Z M278.8,314.25 C278.8,314.66475 278.45952,315 278.04,315 L277.28,315 C276.86048,315 276.52,314.66475 276.52,314.25 L276.52,309.75 C276.52,309.336 276.86048,309 277.28,309 L278.04,309 C278.45952,309 278.8,309.336 278.8,309.75 L278.8,314.25 L278.8,314.25 Z M285.64,303 L278.8,307.5 L276.52,307.5 C275.68096,307.5 275,308.172 275,309 L275,315 C275,315.828 275.68096,316.5 276.52,316.5 L278.8,316.5 L285.64,321 C286.47904,321 287.16,320.328 287.16,319.5 L287.16,304.5 C287.16,303.672 286.47904,303 285.64,303 L285.64,303 Z" id="Fill-130" sketch:type="MSShapeGroup"></path>
        </g>
    </g>
</svg>