<?xml version="1.0" encoding="UTF-8" standalone="no"?>
<svg width="46px" height="46px" viewBox="0 0 46 46" version="1.1" xmlns="http://www.w3.org/2000/svg" xmlns:xlink="http://www.w3.org/1999/xlink" xmlns:sketch="http://www.bohemiancoding.com/sketch/ns">
    <!-- Generator: Sketch 3.3.1 (12005) - http://www.bohemiancoding.com/sketch -->
    <title>Play</title>
    <desc>Created with Sketch.</desc>
    <defs>
        <path id="path-1" d="M0,22 C0,34.1511837 9.87357405,44 22.0512821,44 C34.2289901,44 44.1025641,34.1511837 44.1025641,22 C44.1025641,9.84881633 34.2289901,0 22.0512821,0 C9.87357405,0 0,9.84881633 0,22 Z"></path>
    </defs>
    <g id="Page-1" stroke="none" stroke-width="1" fill="none" fill-rule="evenodd" sketch:type="MSPage">
        <g id="Desktop-HD" sketch:type="MSArtboardGroup" transform="translate(-654.000000, -501.000000)">
            <g id="Buttons" sketch:type="MSLayerGroup" transform="translate(655.000000, 502.000000)">
                <g id="Play">
                    <g id="Shape-copy-3">
                        <use stroke="none" fill="#FFFFFF" fill-rule="evenodd" sketch:type="MSShapeGroup" xlink:href="#path-1"></use>
                        <use stroke="#E9E9E9" stroke-width="1" fill="none" xlink:href="#path-1"></use>
                    </g>
                    <path d="M30.3423848,20.9875225 L19.6783783,13.4387904 C19.288351,13.1627239 18.7703524,13.1226049 18.3424227,13.3363082 C17.9120477,13.5496143 17.6410256,13.9805959 17.6410256,14.4512993 L17.6410256,29.5491603 C17.6410256,30.0194665 17.9120477,30.4500508 18.3424227,30.6637542 C18.5258211,30.7547171 18.725114,30.8 18.9248145,30.8 C19.1905385,30.8 19.4558548,30.7193647 19.6787858,30.5608747 L30.3427923,23.0117457 C30.6761699,22.7757982 30.8717949,22.4000299 30.8717949,21.9992368 C30.871389,21.5988174 30.6745407,21.2230798 30.3423848,20.9875225 L30.3423848,20.9875225 Z" id="Shape" fill="#000000" sketch:type="MSShapeGroup"></path>
                </g>
            </g>
        </g>
    </g>
</svg>